<svg xmlns="http://www.w3.org/2000/svg" xmlns:xlink="http://www.w3.org/1999/xlink" width="455.48" height="512.104" viewBox="0 0 455.48 512.104">
  <defs>
    <linearGradient id="linear-gradient" x1="0.25" y1="0.817" x2="1" y2="0.165" gradientUnits="objectBoundingBox">
      <stop offset="0" stop-color="#88defd"/>
      <stop offset="0.284" stop-color="#1c7bac"/>
      <stop offset="0.573" stop-color="#2f4dac"/>
      <stop offset="1" stop-color="#1d46bb"/>
    </linearGradient>
    <linearGradient id="linear-gradient-2" x1="0.083" y1="0.225" x2="0.862" y2="0.852" gradientUnits="objectBoundingBox">
      <stop offset="0" stop-color="#b8e6fc"/>
      <stop offset="0.264" stop-color="#47d9d9"/>
      <stop offset="0.657" stop-color="#525ab4"/>
      <stop offset="1" stop-color="#658eff"/>
      <stop offset="1" stop-color="#08ecff"/>
    </linearGradient>
    <linearGradient id="linear-gradient-3" x1="0.686" y1="0.479" x2="0.034" y2="0.553" gradientUnits="objectBoundingBox">
      <stop offset="0" stop-color="#db25e8" stop-opacity="0"/>
      <stop offset="0.134" stop-color="#c525e8" stop-opacity="0.161"/>
      <stop offset="0.451" stop-color="#9625e8" stop-opacity="0.518"/>
      <stop offset="0.71" stop-color="#7325e8" stop-opacity="0.776"/>
      <stop offset="0.9" stop-color="#5e25e8" stop-opacity="0.937"/>
      <stop offset="1" stop-color="#5625e8"/>
    </linearGradient>
    <linearGradient id="linear-gradient-4" x1="1.079" y1="0.597" x2="-0.06" y2="0.16" gradientUnits="objectBoundingBox">
      <stop offset="0" stop-color="#8fe68b"/>
      <stop offset="0.312" stop-color="#89b6eb"/>
      <stop offset="0.451" stop-color="#65b7d5"/>
      <stop offset="0.71" stop-color="#4695c7"/>
      <stop offset="0.9" stop-color="#325bb7"/>
      <stop offset="1" stop-color="#1bb76f"/>
    </linearGradient>
    <linearGradient id="linear-gradient-5" x1="0.289" y1="0.095" x2="0.91" y2="0.783" gradientUnits="objectBoundingBox">
      <stop offset="0" stop-color="#64aed5" stop-opacity="0.18"/>
      <stop offset="0.134" stop-color="#303151" stop-opacity="0.314"/>
      <stop offset="0.451" stop-color="#64b7d5" stop-opacity="0.345"/>
      <stop offset="0.621" stop-color="#3fc7cc"/>
      <stop offset="0.764" stop-color="#2988c3"/>
      <stop offset="0.9" stop-color="#1e5db2"/>
      <stop offset="1" stop-color="#2bbaba"/>
    </linearGradient>
  </defs>
  <g id="Logo" transform="translate(-217 -27.522)">
    <path id="Path_41330" data-name="Path 41330" d="M1670.558-2156.355l-205.212,69.8s-2.458,153.772,48.845,253.358S1670.558-1688.2,1670.558-1688.2s115.472-60.548,167.684-160.134,41.167-238.213,41.167-238.213Z" transform="translate(-1225.818 2210.517)" fill="#fff"/>
    <g id="Group_52144" data-name="Group 52144" transform="translate(217 27.522)">
      <path id="Subtraction_78" data-name="Subtraction 78" d="M227.026,512.1h0c-.049-.023-4.981-2.4-13.4-7.459-4.96-2.979-10.151-6.3-15.428-9.857-6.6-4.452-13.349-9.3-20.068-14.416a534.065,534.065,0,0,1-50.526-43.93c-9.751-9.58-19.4-19.749-28.691-30.226-10.216-11.524-20.242-23.706-29.8-36.207a236.27,236.27,0,0,1-13.979-20.49c-4.2-6.9-8.233-14.266-11.979-21.9-3.572-7.282-6.981-15-10.131-22.939-2.993-7.542-5.83-15.482-8.434-23.6C15.58,253,8.92,221.57,4.791,187.654c-1.622-13.323-2.852-27.067-3.657-40.85C.491,135.779.117,124.7.023,113.888-.136,95.531.581,84.045.588,83.931L227.026,0,455.378,83.931v0c.015.479.355,11.934-.3,30.1-.39,10.863-1.053,21.982-1.97,33.046-1.147,13.83-2.7,27.613-4.606,40.967-4.861,33.993-12.055,65.442-21.383,93.474-2.7,8.1-5.609,16.025-8.659,23.544-3.21,7.915-6.658,15.6-10.25,22.85-3.767,7.6-7.8,14.927-11.975,21.775a241.033,241.033,0,0,1-13.833,20.317c-9.416,12.375-19.29,24.455-29.35,35.9-9.144,10.408-18.647,20.53-28.244,30.084a547.843,547.843,0,0,1-49.71,43.98c-6.609,5.144-13.249,10.033-19.735,14.533-5.19,3.6-10.293,6.96-15.168,9.986-8.289,5.145-13.125,7.583-13.173,7.607Zm.041-482.08L33.955,101.384c-.009.1-.922,10.371-1.152,27.024-.135,9.765-.011,19.769.367,29.735.474,12.458,1.349,24.892,2.6,36.955,3.192,30.707,8.822,59.232,16.734,84.782,2.287,7.385,4.8,14.617,7.464,21.494,2.806,7.238,5.86,14.284,9.077,20.939,3.374,6.98,7.022,13.725,10.841,20.048a213.663,213.663,0,0,0,12.755,18.819c8.752,11.5,17.786,22.6,26.851,32.976,8.24,9.433,16.692,18.485,25.12,26.9a428.951,428.951,0,0,0,42.767,37.657c5.572,4.246,11.126,8.211,16.507,11.786,4.3,2.859,8.509,5.477,12.5,7.779a115.32,115.32,0,0,0,10.681,5.6c.036-.016,3.8-1.757,10.382-5.74,3.88-2.347,7.973-5,12.167-7.9,5.243-3.619,10.659-7.62,16.1-11.894a444.489,444.489,0,0,0,41.823-37.7c8.258-8.4,16.55-17.4,24.645-26.773,8.9-10.307,17.791-21.308,26.414-32.7,4.4-5.818,8.668-12.07,12.671-18.583,3.829-6.229,7.521-12.862,10.975-19.715,3.293-6.534,6.456-13.439,9.4-20.524,2.8-6.732,5.472-13.8,7.947-21.013a471.928,471.928,0,0,0,19.68-82.5c1.765-11.705,3.2-23.757,4.27-35.822.855-9.652,1.477-19.332,1.85-28.772.635-16.086.32-26.006.317-26.1L227.066,30.023Z" transform="translate(0)" fill="url(#linear-gradient)"/>
      <g id="Group_52143" data-name="Group 52143" transform="translate(124.115 152.589)">
        <path id="Path_18" data-name="Path 18" d="M207.253,104.306c0,1.228-.035,2.44-.091,3.634a103.741,103.741,0,0,1-101.374,99.3c-.723.019-1.447.037-2.17.037s-1.447-.018-2.17-.037A103.705,103.705,0,0,1,.144,98.14C2.966,43.683,48.455.344,102.986,0a102.977,102.977,0,0,1,61.8,19.959,19.865,19.865,0,0,1,8.137,16.055v.018a19.63,19.63,0,0,1-20.142,19.689,20.655,20.655,0,0,1-11.806-3.887,63.267,63.267,0,0,0-34.823-12.006c-.849-.035-1.682-.054-2.531-.054-.67,0-1.321.019-1.989.035a.334.334,0,0,0-.181,0,63.992,63.992,0,0,0-61.419,69.754c.056.472.091.942.144,1.412A63.838,63.838,0,0,0,152.9,144.192a19.59,19.59,0,0,0,4.575-12.531A20.706,20.706,0,0,0,136.813,111a20.254,20.254,0,0,0-15.621,7.23A22.832,22.832,0,0,1,80.8,102.715a23.039,23.039,0,0,1,21.643-21.9,22.761,22.761,0,0,1,18.677,8.137,20.428,20.428,0,0,0,15.693,7.323h21.245a19.9,19.9,0,0,0,14.716-6.13,20.266,20.266,0,0,1,5.66-4.285,19.71,19.71,0,0,1,9.835-2.1C199.028,84.255,207.253,93.548,207.253,104.306Z" transform="translate(0 0)" fill="url(#linear-gradient-2)"/>
        <path id="Path_19" data-name="Path 19" d="M34.823,12.006A63.267,63.267,0,0,0,0,0,83.108,83.108,0,0,1,46.629,15.893,20.655,20.655,0,0,1,34.823,12.006Z" transform="translate(106.149 39.831)" fill="url(#linear-gradient-3)"/>
        <path id="Path_20" data-name="Path 20" d="M167.477,83.713A83.737,83.737,0,0,1,85.9,167.424c-.723.019-1.447.037-2.17.037s-1.447-.018-2.17-.037A83.74,83.74,0,0,1,81.559,0a63.856,63.856,0,1,0,51.456,104.379,19.591,19.591,0,0,0,4.575-12.531,20.706,20.706,0,0,0-20.666-20.664,20.254,20.254,0,0,0-15.621,7.23A22.832,22.832,0,0,1,60.912,62.9a23.039,23.039,0,0,1,21.643-21.9,22.76,22.76,0,0,1,18.677,8.137,20.428,20.428,0,0,0,15.693,7.323H138.17a19.9,19.9,0,0,0,14.716-6.13,20.266,20.266,0,0,1,5.66-4.285A83.351,83.351,0,0,1,167.477,83.713Z" transform="translate(19.889 39.813)" opacity="0.8" fill="url(#linear-gradient-4)" style="mix-blend-mode: multiply;isolation: isolate"/>
        <path id="Path_21" data-name="Path 21" d="M167.224,23.517c0,1.229-.035,2.44-.091,3.634A83.728,83.728,0,0,1,0,28.777c.055.472.091.942.144,1.412A63.948,63.948,0,0,0,57.008,86.365,63.685,63.685,0,0,0,112.875,63.4a19.591,19.591,0,0,0,4.575-12.531A20.706,20.706,0,0,0,96.784,30.208a20.254,20.254,0,0,0-15.621,7.23A22.832,22.832,0,0,1,40.771,21.926,23.039,23.039,0,0,1,62.414.03,22.76,22.76,0,0,1,81.091,8.167,20.428,20.428,0,0,0,96.784,15.49h21.245a19.9,19.9,0,0,0,14.716-6.13,20.266,20.266,0,0,1,5.66-4.285,19.71,19.71,0,0,1,9.835-2.1C159,3.466,167.224,12.759,167.224,23.517Z" transform="translate(40.029 80.789)" opacity="0.8" fill="url(#linear-gradient-5)" style="mix-blend-mode: multiply;isolation: isolate"/>
      </g>
    </g>
  </g>
</svg>
