<svg width="220" height="68" viewBox="0 0 220 68" fill="none" xmlns="http://www.w3.org/2000/svg">
<rect width="220" height="68" rx="10" fill="#2F2F2F"/>
<path d="M45.8582 35.2326C45.8132 30.4324 49.7875 28.0996 49.9896 27.9874C47.7442 24.7125 44.2415 24.2639 43.0066 24.219C40.0652 23.905 37.2136 25.9686 35.7316 25.9686C34.2048 25.9686 31.9145 24.2415 29.4222 24.2863C26.2338 24.3312 23.2475 26.193 21.6084 29.0417C18.2179 34.8961 20.7552 43.4871 23.9885 48.1975C25.6051 50.5079 27.5137 53.0874 29.9836 52.9977C32.4085 52.908 33.3067 51.45 36.2481 51.45C39.1446 51.45 39.9978 52.9977 42.535 52.9304C45.1396 52.8856 46.7787 50.5976 48.3505 48.2648C50.2141 45.618 50.9775 42.9936 51 42.859C50.8877 42.9039 45.9031 40.9973 45.8582 35.2326ZM41.0756 21.1012C42.3779 19.4637 43.276 17.2655 43.029 15C41.1429 15.0897 38.7853 16.301 37.4156 17.8936C36.2032 19.3067 35.1478 21.5946 35.4173 23.7704C37.5504 23.9499 39.7059 22.7162 41.0756 21.1012Z" fill="white"/>
<path d="M61.084 27.0001V20.0001H64.034C64.7807 20.0001 65.4373 20.1467 66.004 20.4401C66.5773 20.7334 67.0207 21.1434 67.334 21.6701C67.654 22.1967 67.814 22.8067 67.814 23.5001C67.814 24.1934 67.654 24.8034 67.334 25.3301C67.0207 25.8567 66.5773 26.2667 66.004 26.5601C65.4373 26.8534 64.7807 27.0001 64.034 27.0001H61.084ZM62.084 26.1301H63.974C64.554 26.1301 65.054 26.0201 65.474 25.8001C65.9007 25.5801 66.2307 25.2734 66.464 24.8801C66.6973 24.4801 66.814 24.0201 66.814 23.5001C66.814 22.9734 66.6973 22.5134 66.464 22.1201C66.2307 21.7267 65.9007 21.4201 65.474 21.2001C65.054 20.9801 64.554 20.8701 63.974 20.8701H62.084V26.1301Z" fill="white"/>
<path d="M71.4757 27.0601C70.9424 27.0601 70.469 26.9434 70.0557 26.7101C69.6424 26.4767 69.3157 26.1567 69.0757 25.7501C68.8357 25.3367 68.7157 24.8701 68.7157 24.3501C68.7157 23.8234 68.8357 23.3567 69.0757 22.9501C69.3157 22.5434 69.6424 22.2267 70.0557 22.0001C70.469 21.7667 70.9424 21.6501 71.4757 21.6501C72.0024 21.6501 72.4724 21.7667 72.8857 22.0001C73.3057 22.2267 73.6324 22.5434 73.8657 22.9501C74.1057 23.3501 74.2257 23.8167 74.2257 24.3501C74.2257 24.8767 74.1057 25.3434 73.8657 25.7501C73.6324 26.1567 73.3057 26.4767 72.8857 26.7101C72.4724 26.9434 72.0024 27.0601 71.4757 27.0601ZM71.4757 26.2201C71.8157 26.2201 72.119 26.1434 72.3857 25.9901C72.659 25.8367 72.8724 25.6201 73.0257 25.3401C73.179 25.0534 73.2557 24.7234 73.2557 24.3501C73.2557 23.9701 73.179 23.6434 73.0257 23.3701C72.8724 23.0901 72.659 22.8734 72.3857 22.7201C72.119 22.5667 71.8157 22.4901 71.4757 22.4901C71.1357 22.4901 70.8324 22.5667 70.5657 22.7201C70.299 22.8734 70.0857 23.0901 69.9257 23.3701C69.7657 23.6434 69.6857 23.9701 69.6857 24.3501C69.6857 24.7234 69.7657 25.0534 69.9257 25.3401C70.0857 25.6201 70.299 25.8367 70.5657 25.9901C70.8324 26.1434 71.1357 26.2201 71.4757 26.2201Z" fill="white"/>
<path d="M76.5269 27.0001L74.5569 21.7001H75.4669L77.2169 26.5001H76.7869L78.6069 21.7001H79.4169L81.1969 26.5001H80.7769L82.5669 21.7001H83.4269L81.4469 27.0001H80.5269L78.8569 22.6201H79.1369L77.4469 27.0001H76.5269Z" fill="white"/>
<path d="M87.231 21.6501C87.6643 21.6501 88.0444 21.7334 88.371 21.9001C88.7044 22.0667 88.9643 22.3201 89.151 22.6601C89.3377 23.0001 89.431 23.4301 89.431 23.9501V27.0001H88.471V24.0601C88.471 23.5467 88.3444 23.1601 88.091 22.9001C87.8444 22.6401 87.4943 22.5101 87.041 22.5101C86.701 22.5101 86.4043 22.5767 86.151 22.7101C85.8977 22.8434 85.701 23.0401 85.561 23.3001C85.4277 23.5601 85.361 23.8834 85.361 24.2701V27.0001H84.401V21.7001H85.321V23.1301L85.171 22.7501C85.3443 22.4034 85.611 22.1334 85.971 21.9401C86.331 21.7467 86.751 21.6501 87.231 21.6501Z" fill="white"/>
<path d="M91.2077 27.0001V19.5801H92.1677V27.0001H91.2077Z" fill="white"/>
<path d="M96.2706 27.0601C95.7373 27.0601 95.264 26.9434 94.8506 26.7101C94.4373 26.4767 94.1106 26.1567 93.8706 25.7501C93.6306 25.3367 93.5106 24.8701 93.5106 24.3501C93.5106 23.8234 93.6306 23.3567 93.8706 22.9501C94.1106 22.5434 94.4373 22.2267 94.8506 22.0001C95.264 21.7667 95.7373 21.6501 96.2706 21.6501C96.7973 21.6501 97.2673 21.7667 97.6806 22.0001C98.1006 22.2267 98.4273 22.5434 98.6606 22.9501C98.9006 23.3501 99.0206 23.8167 99.0206 24.3501C99.0206 24.8767 98.9006 25.3434 98.6606 25.7501C98.4273 26.1567 98.1006 26.4767 97.6806 26.7101C97.2673 26.9434 96.7973 27.0601 96.2706 27.0601ZM96.2706 26.2201C96.6106 26.2201 96.914 26.1434 97.1806 25.9901C97.454 25.8367 97.6673 25.6201 97.8206 25.3401C97.974 25.0534 98.0506 24.7234 98.0506 24.3501C98.0506 23.9701 97.974 23.6434 97.8206 23.3701C97.6673 23.0901 97.454 22.8734 97.1806 22.7201C96.914 22.5667 96.6106 22.4901 96.2706 22.4901C95.9306 22.4901 95.6273 22.5667 95.3606 22.7201C95.094 22.8734 94.8806 23.0901 94.7206 23.3701C94.5606 23.6434 94.4806 23.9701 94.4806 24.3501C94.4806 24.7234 94.5606 25.0534 94.7206 25.3401C94.8806 25.6201 95.094 25.8367 95.3606 25.9901C95.6273 26.1434 95.9306 26.2201 96.2706 26.2201Z" fill="white"/>
<path d="M103.589 27.0001V25.8801L103.539 25.6701V23.7601C103.539 23.3534 103.419 23.0401 103.179 22.8201C102.946 22.5934 102.593 22.4801 102.119 22.4801C101.806 22.4801 101.499 22.5334 101.199 22.6401C100.899 22.7401 100.646 22.8767 100.439 23.0501L100.039 22.3301C100.313 22.1101 100.639 21.9434 101.019 21.8301C101.406 21.7101 101.809 21.6501 102.229 21.6501C102.956 21.6501 103.516 21.8267 103.909 22.1801C104.303 22.5334 104.499 23.0734 104.499 23.8001V27.0001H103.589ZM101.849 27.0601C101.456 27.0601 101.109 26.9934 100.809 26.8601C100.516 26.7267 100.289 26.5434 100.129 26.3101C99.9695 26.0701 99.8895 25.8001 99.8895 25.5001C99.8895 25.2134 99.9561 24.9534 100.089 24.7201C100.229 24.4867 100.453 24.3001 100.759 24.1601C101.073 24.0201 101.493 23.9501 102.019 23.9501H103.699V24.6401H102.059C101.579 24.6401 101.256 24.7201 101.089 24.8801C100.923 25.0401 100.839 25.2334 100.839 25.4601C100.839 25.7201 100.943 25.9301 101.149 26.0901C101.356 26.2434 101.643 26.3201 102.009 26.3201C102.369 26.3201 102.683 26.2401 102.949 26.0801C103.223 25.9201 103.419 25.6867 103.539 25.3801L103.729 26.0401C103.603 26.3534 103.379 26.6034 103.059 26.7901C102.739 26.9701 102.336 27.0601 101.849 27.0601Z" fill="white"/>
<path d="M108.466 27.0601C107.953 27.0601 107.493 26.9467 107.086 26.7201C106.686 26.4934 106.369 26.1767 106.136 25.7701C105.903 25.3634 105.786 24.8901 105.786 24.3501C105.786 23.8101 105.903 23.3401 106.136 22.9401C106.369 22.5334 106.686 22.2167 107.086 21.9901C107.493 21.7634 107.953 21.6501 108.466 21.6501C108.913 21.6501 109.316 21.7501 109.676 21.9501C110.036 22.1501 110.323 22.4501 110.536 22.8501C110.756 23.2501 110.866 23.7501 110.866 24.3501C110.866 24.9501 110.759 25.4501 110.546 25.8501C110.339 26.2501 110.056 26.5534 109.696 26.7601C109.336 26.9601 108.926 27.0601 108.466 27.0601ZM108.546 26.2201C108.879 26.2201 109.179 26.1434 109.446 25.9901C109.719 25.8367 109.933 25.6201 110.086 25.3401C110.246 25.0534 110.326 24.7234 110.326 24.3501C110.326 23.9701 110.246 23.6434 110.086 23.3701C109.933 23.0901 109.719 22.8734 109.446 22.7201C109.179 22.5667 108.879 22.4901 108.546 22.4901C108.206 22.4901 107.903 22.5667 107.636 22.7201C107.369 22.8734 107.156 23.0901 106.996 23.3701C106.836 23.6434 106.756 23.9701 106.756 24.3501C106.756 24.7234 106.836 25.0534 106.996 25.3401C107.156 25.6201 107.369 25.8367 107.636 25.9901C107.903 26.1434 108.206 26.2201 108.546 26.2201ZM110.356 27.0001V25.5701L110.416 24.3401L110.316 23.1101V19.5801H111.276V27.0001H110.356Z" fill="white"/>
<path d="M118.048 27.0601C117.515 27.0601 117.041 26.9434 116.628 26.7101C116.215 26.4767 115.888 26.1567 115.648 25.7501C115.408 25.3367 115.288 24.8701 115.288 24.3501C115.288 23.8234 115.408 23.3567 115.648 22.9501C115.888 22.5434 116.215 22.2267 116.628 22.0001C117.041 21.7667 117.515 21.6501 118.048 21.6501C118.575 21.6501 119.045 21.7667 119.458 22.0001C119.878 22.2267 120.205 22.5434 120.438 22.9501C120.678 23.3501 120.798 23.8167 120.798 24.3501C120.798 24.8767 120.678 25.3434 120.438 25.7501C120.205 26.1567 119.878 26.4767 119.458 26.7101C119.045 26.9434 118.575 27.0601 118.048 27.0601ZM118.048 26.2201C118.388 26.2201 118.691 26.1434 118.958 25.9901C119.231 25.8367 119.445 25.6201 119.598 25.3401C119.751 25.0534 119.828 24.7234 119.828 24.3501C119.828 23.9701 119.751 23.6434 119.598 23.3701C119.445 23.0901 119.231 22.8734 118.958 22.7201C118.691 22.5667 118.388 22.4901 118.048 22.4901C117.708 22.4901 117.405 22.5667 117.138 22.7201C116.871 22.8734 116.658 23.0901 116.498 23.3701C116.338 23.6434 116.258 23.9701 116.258 24.3501C116.258 24.7234 116.338 25.0534 116.498 25.3401C116.658 25.6201 116.871 25.8367 117.138 25.9901C117.405 26.1434 117.708 26.2201 118.048 26.2201Z" fill="white"/>
<path d="M124.956 21.6501C125.389 21.6501 125.769 21.7334 126.096 21.9001C126.429 22.0667 126.689 22.3201 126.876 22.6601C127.062 23.0001 127.156 23.4301 127.156 23.9501V27.0001H126.196V24.0601C126.196 23.5467 126.069 23.1601 125.816 22.9001C125.569 22.6401 125.219 22.5101 124.766 22.5101C124.426 22.5101 124.129 22.5767 123.876 22.7101C123.622 22.8434 123.426 23.0401 123.286 23.3001C123.152 23.5601 123.086 23.8834 123.086 24.2701V27.0001H122.126V21.7001H123.046V23.1301L122.896 22.7501C123.069 22.4034 123.336 22.1334 123.696 21.9401C124.056 21.7467 124.476 21.6501 124.956 21.6501Z" fill="white"/>
<path d="M133.438 27.0601C132.904 27.0601 132.491 26.9167 132.198 26.6301C131.904 26.3434 131.758 25.9334 131.758 25.4001V20.5401H132.718V25.3601C132.718 25.6467 132.788 25.8667 132.928 26.0201C133.074 26.1734 133.281 26.2501 133.548 26.2501C133.848 26.2501 134.098 26.1667 134.298 26.0001L134.598 26.6901C134.451 26.8167 134.274 26.9101 134.068 26.9701C133.868 27.0301 133.658 27.0601 133.438 27.0601ZM130.858 22.4901V21.7001H134.238V22.4901H130.858Z" fill="white"/>
<path d="M138.588 21.6501C139.022 21.6501 139.402 21.7334 139.728 21.9001C140.062 22.0667 140.322 22.3201 140.508 22.6601C140.695 23.0001 140.788 23.4301 140.788 23.9501V27.0001H139.828V24.0601C139.828 23.5467 139.702 23.1601 139.448 22.9001C139.202 22.6401 138.852 22.5101 138.398 22.5101C138.058 22.5101 137.762 22.5767 137.508 22.7101C137.255 22.8434 137.058 23.0401 136.918 23.3001C136.785 23.5601 136.718 23.8834 136.718 24.2701V27.0001H135.758V19.5801H136.718V23.1301L136.528 22.7501C136.702 22.4034 136.968 22.1334 137.328 21.9401C137.688 21.7467 138.108 21.6501 138.588 21.6501Z" fill="white"/>
<path d="M144.925 27.0601C144.358 27.0601 143.858 26.9434 143.425 26.7101C142.998 26.4767 142.665 26.1567 142.425 25.7501C142.192 25.3434 142.075 24.8767 142.075 24.3501C142.075 23.8234 142.188 23.3567 142.415 22.9501C142.648 22.5434 142.965 22.2267 143.365 22.0001C143.772 21.7667 144.228 21.6501 144.735 21.6501C145.248 21.6501 145.702 21.7634 146.095 21.9901C146.488 22.2167 146.795 22.5367 147.015 22.9501C147.242 23.3567 147.355 23.8334 147.355 24.3801C147.355 24.4201 147.352 24.4667 147.345 24.5201C147.345 24.5734 147.342 24.6234 147.335 24.6701H142.825V23.9801H146.835L146.445 24.2201C146.452 23.8801 146.382 23.5767 146.235 23.3101C146.088 23.0434 145.885 22.8367 145.625 22.6901C145.372 22.5367 145.075 22.4601 144.735 22.4601C144.402 22.4601 144.105 22.5367 143.845 22.6901C143.585 22.8367 143.382 23.0467 143.235 23.3201C143.088 23.5867 143.015 23.8934 143.015 24.2401V24.4001C143.015 24.7534 143.095 25.0701 143.255 25.3501C143.422 25.6234 143.652 25.8367 143.945 25.9901C144.238 26.1434 144.575 26.2201 144.955 26.2201C145.268 26.2201 145.552 26.1667 145.805 26.0601C146.065 25.9534 146.292 25.7934 146.485 25.5801L147.015 26.2001C146.775 26.4801 146.475 26.6934 146.115 26.8401C145.762 26.9867 145.365 27.0601 144.925 27.0601Z" fill="white"/>
<path d="M72.0111 43.9115H65.042L63.6681 47.1372H61L67.2721 33.1991H69.8208L76.1128 47.1372H73.4049L72.0111 43.9115ZM71.1549 41.8805L68.5265 35.7876L65.9181 41.8805H71.1549Z" fill="white"/>
<path d="M83.5403 36.385C84.5757 36.385 85.4983 36.6106 86.308 37.0619C87.131 37.5133 87.7748 38.1504 88.2394 38.9735C88.704 39.7965 88.9363 40.7456 88.9363 41.8208C88.9363 42.896 88.704 43.8518 88.2394 44.6881C87.7748 45.5111 87.131 46.1482 86.308 46.5996C85.4983 47.0509 84.5757 47.2765 83.5403 47.2765C82.1067 47.2765 80.9717 46.7987 80.1354 45.8429V51H77.6465V36.5044H80.016V37.8982C80.4275 37.3938 80.9319 37.0155 81.5292 36.7633C82.1398 36.5111 82.8102 36.385 83.5403 36.385ZM83.2615 45.146C84.1775 45.146 84.9275 44.8407 85.5115 44.2301C86.1089 43.6195 86.4075 42.8164 86.4075 41.8208C86.4075 40.8252 86.1089 40.0221 85.5115 39.4115C84.9275 38.8009 84.1775 38.4956 83.2615 38.4956C82.6642 38.4956 82.1266 38.635 81.6487 38.9137C81.1708 39.1792 80.7925 39.5642 80.5137 40.0686C80.235 40.573 80.0956 41.1571 80.0956 41.8208C80.0956 42.4845 80.235 43.0686 80.5137 43.573C80.7925 44.0774 81.1708 44.469 81.6487 44.7478C82.1266 45.0133 82.6642 45.146 83.2615 45.146Z" fill="white"/>
<path d="M97.1906 36.385C98.226 36.385 99.1485 36.6106 99.9583 37.0619C100.781 37.5133 101.425 38.1504 101.89 38.9735C102.354 39.7965 102.587 40.7456 102.587 41.8208C102.587 42.896 102.354 43.8518 101.89 44.6881C101.425 45.5111 100.781 46.1482 99.9583 46.5996C99.1485 47.0509 98.226 47.2765 97.1906 47.2765C95.7569 47.2765 94.622 46.7987 93.7857 45.8429V51H91.2967V36.5044H93.6662V37.8982C94.0777 37.3938 94.5821 37.0155 95.1795 36.7633C95.7901 36.5111 96.4605 36.385 97.1906 36.385ZM96.9118 45.146C97.8277 45.146 98.5777 44.8407 99.1618 44.2301C99.7591 43.6195 100.058 42.8164 100.058 41.8208C100.058 40.8252 99.7591 40.0221 99.1618 39.4115C98.5777 38.8009 97.8277 38.4956 96.9118 38.4956C96.3144 38.4956 95.7768 38.635 95.299 38.9137C94.8211 39.1792 94.4428 39.5642 94.164 40.0686C93.8852 40.573 93.7459 41.1571 93.7459 41.8208C93.7459 42.4845 93.8852 43.0686 94.164 43.573C94.4428 44.0774 94.8211 44.469 95.299 44.7478C95.7768 45.0133 96.3144 45.146 96.9118 45.146Z" fill="white"/>
<path d="M115.01 47.3363C113.934 47.3363 112.892 47.1836 111.884 46.8783C110.888 46.573 110.098 46.1681 109.514 45.6637L110.41 43.6527C110.981 44.104 111.678 44.4757 112.501 44.7677C113.337 45.0465 114.173 45.1858 115.01 45.1858C116.045 45.1858 116.815 45.0199 117.319 44.6881C117.837 44.3562 118.096 43.9181 118.096 43.3739C118.096 42.9757 117.95 42.6504 117.658 42.3982C117.379 42.1327 117.021 41.927 116.583 41.781C116.145 41.635 115.547 41.469 114.791 41.2832C113.729 41.031 112.866 40.7788 112.202 40.5265C111.552 40.2743 110.988 39.8827 110.51 39.3518C110.045 38.8075 109.813 38.0774 109.813 37.1615C109.813 36.3916 110.018 35.6947 110.43 35.0708C110.855 34.4336 111.485 33.9292 112.322 33.5575C113.171 33.1858 114.207 33 115.428 33C116.277 33 117.114 33.1062 117.937 33.3186C118.76 33.531 119.47 33.8363 120.067 34.2345L119.251 36.2456C118.64 35.8872 118.003 35.615 117.339 35.4292C116.676 35.2434 116.032 35.1504 115.408 35.1504C114.386 35.1504 113.622 35.323 113.118 35.6681C112.627 36.0133 112.381 36.4712 112.381 37.042C112.381 37.4403 112.521 37.7655 112.799 38.0177C113.091 38.2699 113.457 38.469 113.895 38.615C114.333 38.7611 114.93 38.927 115.687 39.1128C116.722 39.3518 117.572 39.604 118.235 39.8695C118.899 40.1217 119.463 40.5133 119.928 41.0442C120.406 41.5752 120.645 42.292 120.645 43.1947C120.645 43.9646 120.432 44.6615 120.007 45.2854C119.596 45.9093 118.965 46.4071 118.116 46.7788C117.266 47.1504 116.231 47.3363 115.01 47.3363Z" fill="white"/>
<path d="M129.364 46.5597C129.072 46.7987 128.714 46.9779 128.289 47.0973C127.877 47.2168 127.439 47.2765 126.975 47.2765C125.806 47.2765 124.904 46.9712 124.267 46.3606C123.629 45.75 123.311 44.8606 123.311 43.6925V38.5752H121.559V36.5841H123.311V34.1549H125.8V36.5841H128.647V38.5752H125.8V43.6327C125.8 44.1504 125.926 44.5487 126.178 44.8274C126.43 45.0929 126.795 45.2257 127.273 45.2257C127.831 45.2257 128.295 45.0796 128.667 44.7876L129.364 46.5597Z" fill="white"/>
<path d="M135.84 47.2765C134.765 47.2765 133.796 47.0442 132.933 46.5796C132.07 46.115 131.393 45.4712 130.902 44.6482C130.424 43.8119 130.185 42.8695 130.185 41.8208C130.185 40.7721 130.424 39.8363 130.902 39.0133C131.393 38.1903 132.07 37.5465 132.933 37.0819C133.796 36.6173 134.765 36.385 135.84 36.385C136.929 36.385 137.904 36.6173 138.767 37.0819C139.63 37.5465 140.3 38.1903 140.778 39.0133C141.269 39.8363 141.515 40.7721 141.515 41.8208C141.515 42.8695 141.269 43.8119 140.778 44.6482C140.3 45.4712 139.63 46.115 138.767 46.5796C137.904 47.0442 136.929 47.2765 135.84 47.2765ZM135.84 45.146C136.756 45.146 137.513 44.8407 138.11 44.2301C138.707 43.6195 139.006 42.8164 139.006 41.8208C139.006 40.8252 138.707 40.0221 138.11 39.4115C137.513 38.8009 136.756 38.4956 135.84 38.4956C134.924 38.4956 134.168 38.8009 133.57 39.4115C132.986 40.0221 132.694 40.8252 132.694 41.8208C132.694 42.8164 132.986 43.6195 133.57 44.2301C134.168 44.8407 134.924 45.146 135.84 45.146Z" fill="white"/>
<path d="M146.264 38.0575C146.981 36.9425 148.242 36.385 150.048 36.385V38.7544C149.835 38.7146 149.643 38.6947 149.47 38.6947C148.501 38.6947 147.745 38.9801 147.2 39.5509C146.656 40.1084 146.384 40.9181 146.384 41.9801V47.1372H143.895V36.5044H146.264V38.0575Z" fill="white"/>
<path d="M162.057 41.8805C162.057 42.0531 162.044 42.2987 162.018 42.6173H153.675C153.821 43.4004 154.199 44.0243 154.81 44.4889C155.434 44.9403 156.203 45.1659 157.119 45.1659C158.287 45.1659 159.25 44.781 160.007 44.0111L161.341 45.5442C160.863 46.115 160.259 46.5465 159.529 46.8385C158.799 47.1305 157.976 47.2765 157.06 47.2765C155.891 47.2765 154.863 47.0442 153.973 46.5796C153.084 46.115 152.394 45.4712 151.903 44.6482C151.425 43.8119 151.186 42.8695 151.186 41.8208C151.186 40.7854 151.418 39.8562 151.883 39.0332C152.36 38.1969 153.018 37.5465 153.854 37.0819C154.69 36.6173 155.633 36.385 156.681 36.385C157.717 36.385 158.639 36.6173 159.449 37.0819C160.272 37.5332 160.909 38.177 161.361 39.0133C161.825 39.8363 162.057 40.792 162.057 41.8805ZM156.681 38.3761C155.885 38.3761 155.208 38.615 154.65 39.0929C154.106 39.5575 153.774 40.1814 153.655 40.9646H159.688C159.582 40.1947 159.257 39.5708 158.712 39.0929C158.168 38.615 157.491 38.3761 156.681 38.3761Z" fill="white"/>
</svg>
