<svg width="220" height="68" viewBox="0 0 220 68" fill="none" xmlns="http://www.w3.org/2000/svg">
<rect width="220" height="68" rx="10" fill="#2F2F2F"/>
<path d="M20.6624 16.3994C20.2369 16.994 20 17.7255 20 18.5083V49.4911C20 50.2182 20.2051 50.9013 20.5755 51.4718L36.5175 33.8878L20.6624 16.3994Z" fill="white"/>
<path d="M37.9774 32.2776L43.1492 26.5732L24.9697 15.4743C24.1806 14.9925 23.2754 14.8783 22.4307 15.1293L37.9774 32.2776Z" fill="white"/>
<path d="M37.9773 35.4978L22.2734 52.8192C22.612 52.9395 22.9624 53.0001 23.3131 53.0001C23.882 53.0001 24.4511 52.8418 24.9696 52.5252L43.2799 41.3463L37.9773 35.4978Z" fill="white"/>
<path d="M50.3432 30.9657L45.0283 27.7207L39.437 33.8875L45.1588 40.199L50.3432 37.0337C51.3807 36.4005 52 35.2661 52 33.9997C52 32.7331 51.3807 31.5989 50.3432 30.9657Z" fill="white"/>
<path d="M61.9902 26.9999L65.1602 19.9999H66.1502L69.3302 26.9999H68.2802L65.4502 20.5599H65.8502L63.0202 26.9999H61.9902ZM63.3402 25.2499L63.6102 24.4499H67.5502L67.8402 25.2499H63.3402Z" fill="white"/>
<path d="M71.351 26.9999L69.031 21.6999H70.031L72.091 26.4999H71.611L73.711 21.6999H74.651L72.331 26.9999H71.351Z" fill="white"/>
<path d="M78.6709 26.9999V25.8799L78.6209 25.6699V23.7599C78.6209 23.3533 78.5009 23.0399 78.2609 22.8199C78.0276 22.5933 77.6743 22.4799 77.2009 22.4799C76.8876 22.4799 76.5809 22.5333 76.2809 22.6399C75.9809 22.7399 75.7276 22.8766 75.5209 23.0499L75.1209 22.3299C75.3943 22.1099 75.7209 21.9433 76.1009 21.8299C76.4876 21.7099 76.8909 21.6499 77.3109 21.6499C78.0376 21.6499 78.5976 21.8266 78.9909 22.1799C79.3843 22.5333 79.5809 23.0733 79.5809 23.7999V26.9999H78.6709ZM76.9309 27.0599C76.5376 27.0599 76.1909 26.9933 75.8909 26.8599C75.5976 26.7266 75.3709 26.5433 75.2109 26.3099C75.0509 26.0699 74.9709 25.7999 74.9709 25.4999C74.9709 25.2133 75.0376 24.9533 75.1709 24.7199C75.3109 24.4866 75.5343 24.2999 75.8409 24.1599C76.1543 24.0199 76.5743 23.9499 77.1009 23.9499H78.7809V24.6399H77.1409C76.6609 24.6399 76.3376 24.7199 76.1709 24.8799C76.0043 25.0399 75.9209 25.2333 75.9209 25.4599C75.9209 25.7199 76.0243 25.9299 76.2309 26.0899C76.4376 26.2433 76.7243 26.3199 77.0909 26.3199C77.4509 26.3199 77.7643 26.2399 78.0309 26.0799C78.3043 25.9199 78.5009 25.6866 78.6209 25.3799L78.8109 26.0399C78.6843 26.3533 78.4609 26.6033 78.1409 26.7899C77.8209 26.9699 77.4176 27.0599 76.9309 27.0599Z" fill="white"/>
<path d="M81.3575 26.9999V21.6999H82.3175V26.9999H81.3575ZM81.8375 20.6799C81.6508 20.6799 81.4942 20.6199 81.3675 20.4999C81.2475 20.3799 81.1875 20.2333 81.1875 20.0599C81.1875 19.8799 81.2475 19.7299 81.3675 19.6099C81.4942 19.4899 81.6508 19.4299 81.8375 19.4299C82.0242 19.4299 82.1775 19.4899 82.2975 19.6099C82.4242 19.7233 82.4875 19.8666 82.4875 20.0399C82.4875 20.2199 82.4275 20.3733 82.3075 20.4999C82.1875 20.6199 82.0308 20.6799 81.8375 20.6799Z" fill="white"/>
<path d="M84.1505 26.9999V19.5799H85.1105V26.9999H84.1505Z" fill="white"/>
<path d="M90.2334 26.9999V25.8799L90.1834 25.6699V23.7599C90.1834 23.3533 90.0634 23.0399 89.8234 22.8199C89.5901 22.5933 89.2368 22.4799 88.7634 22.4799C88.4501 22.4799 88.1434 22.5333 87.8434 22.6399C87.5434 22.7399 87.2901 22.8766 87.0834 23.0499L86.6834 22.3299C86.9568 22.1099 87.2834 21.9433 87.6634 21.8299C88.0501 21.7099 88.4534 21.6499 88.8734 21.6499C89.6001 21.6499 90.1601 21.8266 90.5534 22.1799C90.9468 22.5333 91.1434 23.0733 91.1434 23.7999V26.9999H90.2334ZM88.4934 27.0599C88.1001 27.0599 87.7534 26.9933 87.4534 26.8599C87.1601 26.7266 86.9334 26.5433 86.7734 26.3099C86.6134 26.0699 86.5334 25.7999 86.5334 25.4999C86.5334 25.2133 86.6001 24.9533 86.7334 24.7199C86.8734 24.4866 87.0968 24.2999 87.4034 24.1599C87.7168 24.0199 88.1368 23.9499 88.6634 23.9499H90.3434V24.6399H88.7034C88.2234 24.6399 87.9001 24.7199 87.7334 24.8799C87.5668 25.0399 87.4834 25.2333 87.4834 25.4599C87.4834 25.7199 87.5868 25.9299 87.7934 26.0899C88.0001 26.2433 88.2868 26.3199 88.6534 26.3199C89.0134 26.3199 89.3268 26.2399 89.5934 26.0799C89.8668 25.9199 90.0634 25.6866 90.1834 25.3799L90.3734 26.0399C90.2468 26.3533 90.0234 26.6033 89.7034 26.7899C89.3834 26.9699 88.9801 27.0599 88.4934 27.0599Z" fill="white"/>
<path d="M95.73 27.0599C95.2767 27.0599 94.8667 26.9599 94.5 26.7599C94.14 26.5533 93.8533 26.2499 93.64 25.8499C93.4333 25.4499 93.33 24.9499 93.33 24.3499C93.33 23.7499 93.4367 23.2499 93.65 22.8499C93.87 22.4499 94.16 22.1499 94.52 21.9499C94.8867 21.7499 95.29 21.6499 95.73 21.6499C96.25 21.6499 96.71 21.7633 97.11 21.9899C97.51 22.2166 97.8267 22.5333 98.06 22.9399C98.2933 23.3399 98.41 23.8099 98.41 24.3499C98.41 24.8899 98.2933 25.3633 98.06 25.7699C97.8267 26.1766 97.51 26.4933 97.11 26.7199C96.71 26.9466 96.25 27.0599 95.73 27.0599ZM92.92 26.9999V19.5799H93.88V23.1099L93.78 24.3399L93.84 25.5699V26.9999H92.92ZM95.65 26.2199C95.99 26.2199 96.2933 26.1433 96.56 25.9899C96.8333 25.8366 97.0467 25.6199 97.2 25.3399C97.36 25.0533 97.44 24.7233 97.44 24.3499C97.44 23.9699 97.36 23.6433 97.2 23.3699C97.0467 23.0899 96.8333 22.8733 96.56 22.7199C96.2933 22.5666 95.99 22.4899 95.65 22.4899C95.3167 22.4899 95.0133 22.5666 94.74 22.7199C94.4733 22.8733 94.26 23.0899 94.1 23.3699C93.9467 23.6433 93.87 23.9699 93.87 24.3499C93.87 24.7233 93.9467 25.0533 94.1 25.3399C94.26 25.6199 94.4733 25.8366 94.74 25.9899C95.0133 26.1433 95.3167 26.2199 95.65 26.2199Z" fill="white"/>
<path d="M99.7364 26.9999V19.5799H100.696V26.9999H99.7364Z" fill="white"/>
<path d="M104.889 27.0599C104.323 27.0599 103.823 26.9433 103.389 26.7099C102.963 26.4766 102.629 26.1566 102.389 25.7499C102.156 25.3433 102.039 24.8766 102.039 24.3499C102.039 23.8233 102.153 23.3566 102.379 22.9499C102.613 22.5433 102.929 22.2266 103.329 21.9999C103.736 21.7666 104.193 21.6499 104.699 21.6499C105.213 21.6499 105.666 21.7633 106.059 21.9899C106.453 22.2166 106.759 22.5366 106.979 22.9499C107.206 23.3566 107.319 23.8333 107.319 24.3799C107.319 24.4199 107.316 24.4666 107.309 24.5199C107.309 24.5733 107.306 24.6233 107.299 24.6699H102.789V23.9799H106.799L106.409 24.2199C106.416 23.8799 106.346 23.5766 106.199 23.3099C106.053 23.0433 105.849 22.8366 105.589 22.6899C105.336 22.5366 105.039 22.4599 104.699 22.4599C104.366 22.4599 104.069 22.5366 103.809 22.6899C103.549 22.8366 103.346 23.0466 103.199 23.3199C103.053 23.5866 102.979 23.8933 102.979 24.2399V24.3999C102.979 24.7533 103.059 25.0699 103.219 25.3499C103.386 25.6233 103.616 25.8366 103.909 25.9899C104.203 26.1433 104.539 26.2199 104.919 26.2199C105.233 26.2199 105.516 26.1666 105.769 26.0599C106.029 25.9533 106.256 25.7933 106.449 25.5799L106.979 26.1999C106.739 26.4799 106.439 26.6933 106.079 26.8399C105.726 26.9866 105.329 27.0599 104.889 27.0599Z" fill="white"/>
<path d="M113.608 27.0599C113.075 27.0599 112.601 26.9433 112.188 26.7099C111.775 26.4766 111.448 26.1566 111.208 25.7499C110.968 25.3366 110.848 24.8699 110.848 24.3499C110.848 23.8233 110.968 23.3566 111.208 22.9499C111.448 22.5433 111.775 22.2266 112.188 21.9999C112.601 21.7666 113.075 21.6499 113.608 21.6499C114.135 21.6499 114.605 21.7666 115.018 21.9999C115.438 22.2266 115.765 22.5433 115.998 22.9499C116.238 23.3499 116.358 23.8166 116.358 24.3499C116.358 24.8766 116.238 25.3433 115.998 25.7499C115.765 26.1566 115.438 26.4766 115.018 26.7099C114.605 26.9433 114.135 27.0599 113.608 27.0599ZM113.608 26.2199C113.948 26.2199 114.251 26.1433 114.518 25.9899C114.791 25.8366 115.005 25.6199 115.158 25.3399C115.311 25.0533 115.388 24.7233 115.388 24.3499C115.388 23.9699 115.311 23.6433 115.158 23.3699C115.005 23.0899 114.791 22.8733 114.518 22.7199C114.251 22.5666 113.948 22.4899 113.608 22.4899C113.268 22.4899 112.965 22.5666 112.698 22.7199C112.431 22.8733 112.218 23.0899 112.058 23.3699C111.898 23.6433 111.818 23.9699 111.818 24.3499C111.818 24.7233 111.898 25.0533 112.058 25.3399C112.218 25.6199 112.431 25.8366 112.698 25.9899C112.965 26.1433 113.268 26.2199 113.608 26.2199Z" fill="white"/>
<path d="M120.516 21.6499C120.949 21.6499 121.329 21.7333 121.656 21.8999C121.989 22.0666 122.249 22.3199 122.436 22.6599C122.622 22.9999 122.716 23.4299 122.716 23.9499V26.9999H121.756V24.0599C121.756 23.5466 121.629 23.1599 121.376 22.8999C121.129 22.6399 120.779 22.5099 120.326 22.5099C119.986 22.5099 119.689 22.5766 119.436 22.7099C119.182 22.8433 118.986 23.0399 118.846 23.2999C118.712 23.5599 118.646 23.8833 118.646 24.2699V26.9999H117.686V21.6999H118.606V23.1299L118.456 22.7499C118.629 22.4033 118.896 22.1333 119.256 21.9399C119.616 21.7466 120.036 21.6499 120.516 21.6499Z" fill="white"/>
<path d="M128.998 27.0599C128.464 27.0599 128.051 26.9166 127.758 26.6299C127.464 26.3433 127.318 25.9333 127.318 25.3999V20.5399H128.278V25.3599C128.278 25.6466 128.348 25.8666 128.488 26.0199C128.634 26.1733 128.841 26.2499 129.108 26.2499C129.408 26.2499 129.658 26.1666 129.858 25.9999L130.158 26.6899C130.011 26.8166 129.834 26.9099 129.628 26.9699C129.428 27.0299 129.218 27.0599 128.998 27.0599ZM126.418 22.4899V21.6999H129.798V22.4899H126.418Z" fill="white"/>
<path d="M134.148 21.6499C134.582 21.6499 134.962 21.7333 135.288 21.8999C135.622 22.0666 135.882 22.3199 136.068 22.6599C136.255 22.9999 136.348 23.4299 136.348 23.9499V26.9999H135.388V24.0599C135.388 23.5466 135.262 23.1599 135.008 22.8999C134.762 22.6399 134.412 22.5099 133.958 22.5099C133.618 22.5099 133.322 22.5766 133.068 22.7099C132.815 22.8433 132.618 23.0399 132.478 23.2999C132.345 23.5599 132.278 23.8833 132.278 24.2699V26.9999H131.318V19.5799H132.278V23.1299L132.088 22.7499C132.262 22.4033 132.528 22.1333 132.888 21.9399C133.248 21.7466 133.668 21.6499 134.148 21.6499Z" fill="white"/>
<path d="M140.485 27.0599C139.918 27.0599 139.418 26.9433 138.985 26.7099C138.558 26.4766 138.225 26.1566 137.985 25.7499C137.752 25.3433 137.635 24.8766 137.635 24.3499C137.635 23.8233 137.748 23.3566 137.975 22.9499C138.208 22.5433 138.525 22.2266 138.925 21.9999C139.332 21.7666 139.788 21.6499 140.295 21.6499C140.808 21.6499 141.262 21.7633 141.655 21.9899C142.048 22.2166 142.355 22.5366 142.575 22.9499C142.802 23.3566 142.915 23.8333 142.915 24.3799C142.915 24.4199 142.912 24.4666 142.905 24.5199C142.905 24.5733 142.902 24.6233 142.895 24.6699H138.385V23.9799H142.395L142.005 24.2199C142.012 23.8799 141.942 23.5766 141.795 23.3099C141.648 23.0433 141.445 22.8366 141.185 22.6899C140.932 22.5366 140.635 22.4599 140.295 22.4599C139.962 22.4599 139.665 22.5366 139.405 22.6899C139.145 22.8366 138.942 23.0466 138.795 23.3199C138.648 23.5866 138.575 23.8933 138.575 24.2399V24.3999C138.575 24.7533 138.655 25.0699 138.815 25.3499C138.982 25.6233 139.212 25.8366 139.505 25.9899C139.798 26.1433 140.135 26.2199 140.515 26.2199C140.828 26.2199 141.112 26.1666 141.365 26.0599C141.625 25.9533 141.852 25.7933 142.045 25.5799L142.575 26.1999C142.335 26.4799 142.035 26.6933 141.675 26.8399C141.322 26.9866 140.925 27.0599 140.485 27.0599Z" fill="white"/>
<path d="M72.0785 40.3298H74.4263V45.6554C73.7391 46.2025 72.9374 46.6225 72.0212 46.9152C71.105 47.2078 70.1633 47.3542 69.1962 47.3542C67.8346 47.3542 66.6066 47.0615 65.5122 46.4761C64.4178 45.8781 63.5589 45.0573 62.9353 44.0138C62.3118 42.9703 62 41.7932 62 40.4825C62 39.1718 62.3118 37.9947 62.9353 36.9512C63.5589 35.9077 64.4178 35.0933 65.5122 34.508C66.6193 33.9099 67.86 33.6108 69.2344 33.6108C70.3542 33.6108 71.3722 33.7953 72.2884 34.1644C73.2047 34.5334 73.9745 35.0742 74.5981 35.7869L73.0329 37.3139C72.0148 36.2959 70.7869 35.7869 69.3489 35.7869C68.4072 35.7869 67.5673 35.9841 66.8293 36.3786C66.1039 36.7731 65.5313 37.3266 65.1113 38.0392C64.7041 38.7519 64.5005 39.5663 64.5005 40.4825C64.5005 41.3733 64.7041 42.175 65.1113 42.8876C65.5313 43.6002 66.1039 44.1601 66.8293 44.5673C67.5673 44.9746 68.4008 45.1782 69.3298 45.1782C70.3733 45.1782 71.2895 44.9491 72.0785 44.491V40.3298Z" fill="white"/>
<path d="M82.0512 47.2969C81.0205 47.2969 80.0915 47.0742 79.2644 46.6288C78.4372 46.1835 77.7882 45.5663 77.3174 44.7773C76.8593 43.9756 76.6302 43.0721 76.6302 42.0668C76.6302 41.0615 76.8593 40.1644 77.3174 39.3754C77.7882 38.5864 78.4372 37.9692 79.2644 37.5239C80.0915 37.0785 81.0205 36.8558 82.0512 36.8558C83.0947 36.8558 84.03 37.0785 84.8572 37.5239C85.6843 37.9692 86.3269 38.5864 86.785 39.3754C87.2559 40.1644 87.4913 41.0615 87.4913 42.0668C87.4913 43.0721 87.2559 43.9756 86.785 44.7773C86.3269 45.5663 85.6843 46.1835 84.8572 46.6288C84.03 47.0742 83.0947 47.2969 82.0512 47.2969ZM82.0512 45.2545C82.9293 45.2545 83.6546 44.9618 84.2273 44.3765C84.7999 43.7911 85.0862 43.0212 85.0862 42.0668C85.0862 41.1124 84.7999 40.3425 84.2273 39.7572C83.6546 39.1718 82.9293 38.8791 82.0512 38.8791C81.1732 38.8791 80.4478 39.1718 79.8752 39.7572C79.3153 40.3425 79.0353 41.1124 79.0353 42.0668C79.0353 43.0212 79.3153 43.7911 79.8752 44.3765C80.4478 44.9618 81.1732 45.2545 82.0512 45.2545Z" fill="white"/>
<path d="M94.354 47.2969C93.3233 47.2969 92.3943 47.0742 91.5672 46.6288C90.74 46.1835 90.091 45.5663 89.6202 44.7773C89.1621 43.9756 88.933 43.0721 88.933 42.0668C88.933 41.0615 89.1621 40.1644 89.6202 39.3754C90.091 38.5864 90.74 37.9692 91.5672 37.5239C92.3943 37.0785 93.3233 36.8558 94.354 36.8558C95.3975 36.8558 96.3328 37.0785 97.16 37.5239C97.9871 37.9692 98.6298 38.5864 99.0879 39.3754C99.5587 40.1644 99.7941 41.0615 99.7941 42.0668C99.7941 43.0721 99.5587 43.9756 99.0879 44.7773C98.6298 45.5663 97.9871 46.1835 97.16 46.6288C96.3328 47.0742 95.3975 47.2969 94.354 47.2969ZM94.354 45.2545C95.2321 45.2545 95.9574 44.9618 96.5301 44.3765C97.1027 43.7911 97.389 43.0212 97.389 42.0668C97.389 41.1124 97.1027 40.3425 96.5301 39.7572C95.9574 39.1718 95.2321 38.8791 94.354 38.8791C93.476 38.8791 92.7506 39.1718 92.178 39.7572C91.6181 40.3425 91.3381 41.1124 91.3381 42.0668C91.3381 43.0212 91.6181 43.7911 92.178 44.3765C92.7506 44.9618 93.476 45.2545 94.354 45.2545Z" fill="white"/>
<path d="M112.192 36.9703V45.6172C112.192 49.2057 110.36 51 106.695 51C105.715 51 104.786 50.8727 103.908 50.6182C103.03 50.3765 102.305 50.0201 101.732 49.5493L102.801 47.755C103.246 48.1241 103.806 48.4168 104.481 48.6331C105.168 48.8621 105.862 48.9767 106.561 48.9767C107.681 48.9767 108.502 48.7222 109.024 48.2132C109.546 47.7041 109.806 46.9279 109.806 45.8844V45.3499C109.399 45.7953 108.903 46.1326 108.318 46.3616C107.732 46.5907 107.09 46.7052 106.39 46.7052C105.423 46.7052 104.544 46.5016 103.755 46.0944C102.979 45.6744 102.362 45.0891 101.904 44.3383C101.459 43.5875 101.236 42.7285 101.236 41.7614C101.236 40.7943 101.459 39.9417 101.904 39.2036C102.362 38.4528 102.979 37.8738 103.755 37.4666C104.544 37.0594 105.423 36.8558 106.39 36.8558C107.128 36.8558 107.796 36.9767 108.394 37.2185C109.005 37.4602 109.514 37.8293 109.921 38.3256V36.9703H112.192ZM106.752 44.6819C107.656 44.6819 108.394 44.4146 108.967 43.8802C109.552 43.333 109.845 42.6267 109.845 41.7614C109.845 40.9088 109.552 40.2153 108.967 39.6808C108.394 39.1463 107.656 38.8791 106.752 38.8791C105.836 38.8791 105.085 39.1463 104.5 39.6808C103.927 40.2153 103.641 40.9088 103.641 41.7614C103.641 42.6267 103.927 43.333 104.5 43.8802C105.085 44.4146 105.836 44.6819 106.752 44.6819Z" fill="white"/>
<path d="M115.329 33H117.715V47.1633H115.329V33Z" fill="white"/>
<path d="M130.429 42.1241C130.429 42.2895 130.416 42.5249 130.391 42.8303H122.393C122.533 43.5811 122.896 44.1792 123.481 44.6246C124.079 45.0573 124.817 45.2736 125.695 45.2736C126.815 45.2736 127.738 44.9046 128.463 44.1665L129.742 45.6363C129.284 46.1835 128.705 46.597 128.005 46.877C127.305 47.1569 126.516 47.2969 125.638 47.2969C124.518 47.2969 123.532 47.0742 122.679 46.6288C121.827 46.1835 121.165 45.5663 120.694 44.7773C120.236 43.9756 120.007 43.0721 120.007 42.0668C120.007 41.0742 120.23 40.1835 120.675 39.3945C121.133 38.5928 121.763 37.9692 122.565 37.5239C123.366 37.0785 124.27 36.8558 125.275 36.8558C126.268 36.8558 127.152 37.0785 127.929 37.5239C128.717 37.9565 129.328 38.5737 129.761 39.3754C130.206 40.1644 130.429 41.0806 130.429 42.1241ZM125.275 38.7646C124.512 38.7646 123.863 38.9936 123.328 39.4518C122.807 39.8971 122.488 40.4952 122.374 41.246H128.158C128.056 40.508 127.744 39.9099 127.222 39.4518C126.701 38.9936 126.052 38.7646 125.275 38.7646Z" fill="white"/>
<path d="M143.723 33.8017C144.881 33.8017 145.886 33.9926 146.739 34.3743C147.604 34.7561 148.266 35.3033 148.724 36.0159C149.182 36.7285 149.411 37.5748 149.411 38.5546C149.411 39.5217 149.182 40.368 148.724 41.0933C148.266 41.8059 147.604 42.3531 146.739 42.7349C145.886 43.1166 144.881 43.3075 143.723 43.3075H140.707V47.1633H138.225V33.8017H143.723ZM143.608 41.2078C144.69 41.2078 145.511 40.9788 146.07 40.5207C146.63 40.0626 146.91 39.4072 146.91 38.5546C146.91 37.702 146.63 37.0467 146.07 36.5885C145.511 36.1304 144.69 35.9014 143.608 35.9014H140.707V41.2078H143.608Z" fill="white"/>
<path d="M151.846 33H154.232V47.1633H151.846V33Z" fill="white"/>
<path d="M161.258 36.8558C162.759 36.8558 163.905 37.2185 164.694 37.9438C165.495 38.6564 165.896 39.7381 165.896 41.1888V47.1633H163.644V45.9226C163.351 46.368 162.931 46.7116 162.384 46.9533C161.85 47.1824 161.201 47.2969 160.437 47.2969C159.674 47.2969 159.005 47.1697 158.433 46.9152C157.86 46.6479 157.415 46.2853 157.097 45.8271C156.791 45.3563 156.639 44.8282 156.639 44.2428C156.639 43.3266 156.976 42.5949 157.65 42.0477C158.337 41.4878 159.413 41.2078 160.876 41.2078H163.51V41.0551C163.51 40.3425 163.294 39.7953 162.861 39.4136C162.441 39.0318 161.811 38.8409 160.972 38.8409C160.399 38.8409 159.833 38.93 159.273 39.1082C158.725 39.2863 158.261 39.5345 157.879 39.8526L156.944 38.1156C157.478 37.7084 158.121 37.3966 158.872 37.1803C159.623 36.9639 160.418 36.8558 161.258 36.8558ZM160.933 45.5599C161.531 45.5599 162.06 45.4263 162.518 45.1591C162.988 44.8791 163.319 44.4846 163.51 43.9756V42.7922H161.048C159.674 42.7922 158.986 43.2439 158.986 44.1474C158.986 44.5801 159.158 44.9236 159.502 45.1782C159.845 45.4327 160.323 45.5599 160.933 45.5599Z" fill="white"/>
<path d="M178.316 36.9703L173.544 47.9841C173.099 49.0912 172.558 49.8674 171.921 50.3128C171.285 50.7709 170.515 51 169.612 51C169.103 51 168.6 50.9173 168.104 50.7519C167.608 50.5864 167.2 50.3574 166.882 50.0647L167.837 48.3086C168.066 48.5249 168.333 48.6967 168.638 48.824C168.956 48.9512 169.275 49.0148 169.593 49.0148C170.013 49.0148 170.356 48.9067 170.623 48.6904C170.903 48.474 171.158 48.1113 171.387 47.6023L171.559 47.2015L167.111 36.9703H169.593L172.8 44.5101L176.025 36.9703H178.316Z" fill="white"/>
</svg>
