<?xml version="1.0" encoding="utf-8"?>
<!-- Generator: Adobe Illustrator 26.5.0, SVG Export Plug-In . SVG Version: 6.00 Build 0)  -->
<svg version="1.1" id="Layer_1" xmlns="http://www.w3.org/2000/svg" xmlns:xlink="http://www.w3.org/1999/xlink" x="0px" y="0px"
	 viewBox="0 0 512 512" style="enable-background:new 0 0 512 512;" xml:space="preserve">
<style type="text/css">
	.st0{opacity:0.5;fill:#44C4FF;}
	.st1{fill:#44C4FF;}
	.st2{fill:#F5FBFF;}
</style>
<path id="shadow" class="st0" d="M439.6,320.4c28.3,16.4,28.5,42.9,0.3,59.2l-132.2,76.8c-28.2,16.4-74,16.4-102.3,0L72.4,379.6
	C44,363.2,43.9,336.7,72,320.4l132.2-76.8c28.2-16.4,74-16.4,102.3,0L439.6,320.4z"/>
<g id="icon-base" transform="translate(-0.375)">
	<path id="Path_41712" class="st1" d="M486.1,283.5L321,379.4c-35.2,20.5-92.4,20.5-127.8,0L27,283.5C9.2,273.3,0.3,259.7,0.4,246.2
		v19.1c0,13.4,8.8,27,26.6,37.3l166.2,95.9c35.4,20.5,92.6,20.5,127.8,0l165.1-95.9c17.5-10.1,26.2-23.4,26.2-36.8v-19.1
		C512.3,260.1,503.6,273.3,486.1,283.5z"/>
	<path id="Path_41713" class="st2" d="M485.7,209.4c35.4,20.5,35.6,53.6,0.4,74L321,379.3c-35.2,20.5-92.4,20.5-127.8,0L27,283.4
		c-35.4-20.5-35.6-53.6-0.4-74l165.1-95.9c35.2-20.5,92.4-20.5,127.8,0L485.7,209.4z"/>
</g>
<g id="download-icon_00000158005316868358147550000010535360202867669406_">
	<g>
		<g>
			<path class="st1" d="M311.6,246.4c1.5-0.8,3.5-1.4,5.7-1.4c4.4,0,8,2.1,8,4.6l-0.2,21.8c0,1.3-0.9,2.4-2.4,3.3
				c-1.5,0.8-3.5,1.4-5.7,1.4l-37.7,0c-4.4,0-8-2.1-8-4.6c0-1.3,0.9-2.4,2.4-3.3c1.5-0.8,3.5-1.4,5.7-1.4l18.4,0l-56.9-33.1
				c-3.1-1.8-3.1-4.7,0-6.6c3.1-1.8,8.2-1.8,11.3,0l56.9,33.1l0.1-10.7C309.2,248.4,310.1,247.2,311.6,246.4z"/>
		</g>
		<g>
			<path class="st1" d="M326,189c2.8,0.9,5.4,2.1,7.9,3.5c4,2.3,7,4.9,8.9,7.7c1.9,2.7,2.6,5.6,2.4,8.4c-0.2,1.9-0.8,3.7-1.8,5.5
				c-1.3,2.4-3.2,4.6-5.5,6.8c-3.1,2.9-7,5.6-11.4,8.2L304,242c-3.1,1.8-8.2,1.8-11.3,0s-3.1-4.7,0-6.6l22.5-13
				c3.6-2.1,6.7-4.3,9-6.4c2.3-2.1,3.8-4.2,4.5-6.1c0.5-1.3,0.6-2.5,0.4-3.6c-0.3-1.5-1.1-3-2.8-4.6c-1-0.9-2.2-1.8-3.8-2.7
				c-2.6-1.5-5.1-2.4-7.7-2.9c-2.5-0.5-5.2-0.7-8-0.5c-1.9,0.1-3.9,0.3-5.9,0.7c-2.7,0.5-5.4,1.2-8.1,2.1c-3.6,1.2-7,2.7-9.9,4.2
				c-2.9,1.5-7.4,1.6-10.4,0.2c-6.2-2.9-12.7-5-19.1-6.3c-6.4-1.3-12.9-1.8-19.1-1.6c-12.5,0.3-24.3,3.4-33.8,8.8
				c-6.7,3.9-10.7,8.1-12.8,12.3c-2.1,4.2-2.2,8.5-1,12.5c0.8,2.6,2.3,5.1,4.2,7.2c1.5,1.7,1.1,3.6-1,5.1c-4.1,2.9-7.5,5.9-9.8,8.9
				c-2.3,3-3.6,6-3.7,8.7c-0.1,1.8,0.4,3.6,1.3,5.3c1.3,2.3,3.6,4.5,7.4,6.7c4.3,2.5,8.8,3.9,13.5,4.7c4.7,0.7,9.8,0.7,15.1,0
				c3.5-0.5,7.1-1.3,10.7-2.4c4.8-1.5,9.5-3.5,13.8-6l16.5-9.6c3.1-1.8,8.2-1.8,11.3,0c3.1,1.8,3.1,4.7,0,6.6l-16.5,9.6
				c-6.1,3.5-12.8,6.3-20,8.3c-7.2,2-14.7,3.2-22.4,3.3c-5.1,0.1-10.2-0.3-15.1-1.3c-6.6-1.3-12.8-3.5-18.2-6.6
				c-6-3.5-10-7.5-12-11.7c-1.9-4.2-1.8-8.5-0.2-12.6c1-2.7,2.7-5.4,4.9-8c2.2-2.6,4.9-5.1,7.9-7.5c-2.6-3.8-4.3-8-4.5-12.4
				c-0.4-5.5,1.4-11.4,6.1-17c3.1-3.7,7.5-7.4,13.2-10.7c9.1-5.3,20.2-8.9,32.2-10.5c12-1.7,24.8-1.3,37.3,1.1
				c6.4,1.3,12.7,3.1,18.7,5.5c2.3-1,4.7-2,7.3-2.8c4.6-1.5,9.6-2.8,15-3.6c3.6-0.5,7.3-0.7,11.2-0.6C316,186.5,321.2,187.3,326,189
				z"/>
		</g>
	</g>
</g>
<g id="icon-number">
	<path class="st1" d="M69.6,49.5c3.3,5.8,4.9,14.2,4.9,25.2c0,10.9-1.6,21.2-4.8,30.8c-3.2,9.6-7.6,18-13.2,25.3
		c-5.6,7.3-12,13-19.2,17.1c-7.1,4.1-13.5,5.8-19.1,5c-5.6-0.8-10.1-4.1-13.3-10C1.7,137,0,128.6,0,117.7c0-10.9,1.6-21.2,4.8-30.8
		c3.2-9.6,7.6-18,13.2-25.3c5.6-7.3,12-13,19.1-17.1c7.2-4.2,13.6-5.8,19.2-5S66.3,43.6,69.6,49.5z M52.1,106
		c1.4-5.6,2.1-12.1,2.1-19.7c0-7.5-0.8-13.2-2.2-17.1c-1.5-3.9-3.5-6.2-6-7c-2.5-0.7-5.5-0.1-8.9,1.8c-3.3,1.9-6.2,4.7-8.7,8.3
		c-2.5,3.7-4.5,8.3-5.9,13.9c-1.4,5.6-2.1,12.1-2.1,19.7c0,7.5,0.8,13.2,2.2,17.1c1.5,3.9,3.5,6.2,6,7c2.5,0.7,5.4,0.1,8.8-1.8
		c3.4-2,6.3-4.8,8.9-8.4C48.7,116.2,50.7,111.6,52.1,106"/>
	<polygon class="st1" points="117.2,0 117.5,99.9 97.3,111.5 97.1,30.2 79.7,40.2 79.7,21.6 	"/>
</g>
</svg>
