<svg width="512" height="512" viewBox="0 0 512 512" fill="none" xmlns="http://www.w3.org/2000/svg">
<path fill-rule="evenodd" clip-rule="evenodd" d="M505.333 469.333H512V277.333V92.6668C512 65.0526 489.614 42.6668 462 42.6668H327.333C299.719 42.6668 277.333 65.0526 277.333 92.6668V227.333C277.333 254.948 299.719 277.333 327.333 277.333H405.333V369.333C405.333 424.562 450.105 469.333 505.333 469.333Z" fill="#6EC2E7"/>
<path fill-rule="evenodd" clip-rule="evenodd" d="M228 469.333H234.667V277.333V92.6668C234.667 65.0526 212.281 42.6668 184.666 42.6668H49.9998C22.3856 42.6668 -0.000167847 65.0526 -0.000167847 92.6668V227.333C-0.000167847 254.948 22.3856 277.333 49.9999 277.333H128V369.333C128 424.562 172.771 469.333 228 469.333Z" fill="#6EC2E7"/>
</svg>
