<svg width="512" height="512" viewBox="0 0 512 512" fill="none" xmlns="http://www.w3.org/2000/svg">
<path fill-rule="evenodd" clip-rule="evenodd" d="M6.66669 42.6667H0V234.667V419.333C0 446.948 22.3858 469.333 50 469.333H184.667C212.281 469.333 234.667 446.948 234.667 419.333V284.667C234.667 257.053 212.281 234.667 184.667 234.667H106.667V142.667C106.667 87.4383 61.8952 42.6667 6.66669 42.6667Z" fill="#6EC2E7"/>
<path fill-rule="evenodd" clip-rule="evenodd" d="M284 42.6667H277.333V234.667V419.333C277.333 446.948 299.719 469.333 327.334 469.333H462C489.614 469.333 512 446.948 512 419.333V284.667C512 257.053 489.614 234.667 462 234.667H384V142.667C384 87.4383 339.229 42.6667 284 42.6667Z" fill="#6EC2E7"/>
</svg>
