<?xml version="1.0" encoding="utf-8"?>
<!-- Generator: Adobe Illustrator 26.5.0, SVG Export Plug-In . SVG Version: 6.00 Build 0)  -->
<svg version="1.1" id="Layer_1" xmlns="http://www.w3.org/2000/svg" xmlns:xlink="http://www.w3.org/1999/xlink" x="0px" y="0px"
	 viewBox="0 0 512 512" style="enable-background:new 0 0 512 512;" xml:space="preserve">
<style type="text/css">
	.st0{opacity:0.5;fill:#FF44A0;}
	.st1{fill:#FF44A0;}
	.st2{fill:#FFF5F9;}
</style>
<path id="shadow" class="st0" d="M439.6,320.4c28.3,16.4,28.5,42.9,0.3,59.2l-132.2,76.8c-28.2,16.4-74,16.4-102.3,0L72.4,379.6
	C44,363.2,43.9,336.7,72,320.4l132.2-76.8c28.2-16.4,74-16.4,102.3,0L439.6,320.4z"/>
<g id="icon-base">
	<path id="Path_41706" class="st1" d="M485.7,283.5l-165.1,95.9c-35.1,20.4-92.3,20.4-127.8,0l-166-95.9
		C9,273.2,0.1,259.6,0.1,246.2L0,265.3c0,13.5,8.9,26.9,26.7,37.3l166.1,95.9c35.4,20.4,92.6,20.4,127.8,0l165.1-96
		c17.4-10.1,26.2-23.4,26.3-36.8v-19.1C511.9,260,503.2,273.3,485.7,283.5z"/>
	<path id="Path_41707" class="st2" d="M485.3,209.4c35.4,20.4,35.6,53.5,0.4,74l-165.1,95.9c-35.1,20.4-92.3,20.4-127.8,0
		L26.8,283.5c-35.4-20.4-35.6-53.5-0.4-74l165.1-95.9c35.1-20.4,92.3-20.4,127.8,0L485.3,209.4z"/>
</g>
<g id="check-icon_00000039841556640998034820000018183535704993807254_">
	<g>
		<g>
			<path class="st1" d="M264.8,185.4c4.4,0,8,2.1,8,4.6l-0.4,64.7c0,1.2-0.9,2.4-2.4,3.3c-1.5,0.9-3.6,1.4-5.7,1.4l-33.5,0
				c-4.4,0-8-2.1-8-4.6c0-1.3,0.9-2.4,2.4-3.3c1.5-0.8,3.5-1.4,5.7-1.4l25.5,0l0.3-60c0-1.3,0.9-2.4,2.4-3.3
				C260.6,185.9,262.6,185.4,264.8,185.4z"/>
		</g>
		<g>
			<path class="st1" d="M298.1,215.8c3.1-1.8,8.2-1.8,11.3,0l38.9,22.6c4.4,2.6,6.9,6.1,6.9,9.7c0,3.7-2.5,7.2-7,9.7l-78.4,45.3
				c-4.5,2.6-10.5,4-16.8,4c-6.3,0-12.4-1.5-16.8-4L158.3,258c-4.4-2.6-6.9-6.1-6.9-9.7c0-3.7,2.5-7.2,7-9.7l61.6-35.6
				c3.1-1.8,8.2-1.8,11.3,0c3.1,1.8,3.1,4.7,0,6.6L169.6,245c-1.5,0.8-2.3,2-2.3,3.2c0,1.2,0.8,2.3,2.3,3.2l77.9,45.3
				c1.5,0.8,3.4,1.3,5.5,1.3c2.1,0,4-0.5,5.5-1.3l78.4-45.3c1.5-0.8,2.3-2,2.3-3.2c0-1.2-0.8-2.3-2.3-3.2L298,222.4
				C294.9,220.6,294.9,217.6,298.1,215.8z"/>
		</g>
	</g>
</g>
<g id="icon-number_00000122707634739352501810000013860197739765906069_">
	<path class="st1" d="M69.6,69.4c3.3,5.8,4.9,14.2,4.9,25.2c0,10.9-1.6,21.2-4.8,30.8c-3.2,9.6-7.6,18-13.2,25.3
		c-5.6,7.3-12,13-19.2,17.1c-7.1,4.1-13.5,5.8-19.1,5c-5.6-0.8-10.1-4.1-13.3-10C1.7,156.9,0,148.5,0,137.6
		c0-10.9,1.6-21.2,4.8-30.8c3.2-9.6,7.6-18,13.2-25.3c5.6-7.3,12-13,19.1-17.1c7.2-4.2,13.6-5.8,19.2-5S66.3,63.6,69.6,69.4z
		 M52.1,125.9c1.4-5.6,2.1-12.1,2.1-19.7c0-7.5-0.8-13.2-2.2-17.1c-1.5-3.9-3.5-6.2-6-7c-2.5-0.7-5.5-0.1-8.9,1.8
		c-3.3,1.9-6.2,4.7-8.7,8.3c-2.5,3.7-4.5,8.3-5.9,13.9c-1.4,5.6-2.1,12.1-2.1,19.7c0,7.5,0.8,13.2,2.2,17.1c1.5,3.9,3.5,6.2,6,7
		c2.5,0.7,5.4,0.1,8.8-1.8c3.4-2,6.3-4.8,8.9-8.4C48.7,136.1,50.7,131.5,52.1,125.9"/>
	<polygon class="st1" points="151.7,0 151.7,15 119.7,118.5 97.8,131.1 128.8,32.1 100,48.7 100,65 82.1,75.3 82,40.2 	"/>
</g>
</svg>
