<svg width="80" height="80" viewBox="0 0 80 80" fill="none" xmlns="http://www.w3.org/2000/svg">
<path d="M47.0643 38.6697C47.1956 38.6697 47.3239 38.6311 47.4332 38.5585C47.5426 38.486 47.6281 38.3827 47.679 38.2618C47.7299 38.1408 47.7439 38.0075 47.7194 37.8786C47.6949 37.7497 47.6328 37.6309 47.541 37.5371L34.4731 24.2503C34.3804 24.1553 34.2615 24.0903 34.1315 24.0634C34.0016 24.0365 33.8665 24.049 33.7438 24.0993C33.621 24.1497 33.516 24.2355 33.4423 24.3458C33.3686 24.4562 33.3295 24.586 33.3301 24.7187V36.6646C33.3295 36.9282 33.3809 37.1893 33.4816 37.4329C33.5822 37.6765 33.7299 37.8979 33.9164 38.0842C34.1028 38.2705 34.3242 38.4182 34.5679 38.5186C34.8116 38.6191 35.0727 38.6704 35.3363 38.6697H47.0643Z" fill="#6EC2E7"/>
<path d="M30.1658 41.834C29.4813 41.1585 28.9373 40.3541 28.5655 39.4672C28.1936 38.5803 28.0011 37.6285 27.9992 36.6668V21.3315H15.9971C13.1705 21.3396 10.4619 22.466 8.46324 24.4647C6.46453 26.4634 5.33811 29.1719 5.33008 31.9985V69.333C5.33008 72.162 6.45392 74.8752 8.45436 76.8756C10.4548 78.8761 13.168 79.9999 15.9971 79.9999H39.9978C41.3986 79.9999 42.7857 79.724 44.0798 79.188C45.374 78.6519 46.5499 77.8662 47.5405 76.8756C48.531 75.8851 49.3167 74.7092 49.8528 73.415C50.3888 72.1208 50.6647 70.7338 50.6647 69.333V44.003H35.3307C34.3689 44.0017 33.4169 43.8095 32.5299 43.4376C31.6429 43.0657 30.8386 42.5214 30.1635 41.8363L30.1658 41.834Z" fill="#6EC2E7"/>
<path d="M59.3308 17.3357H71.0624C71.1936 17.3358 71.3219 17.2971 71.4313 17.2245C71.5406 17.152 71.6261 17.0487 71.677 16.9278C71.7279 16.8068 71.742 16.6736 71.7174 16.5446C71.6929 16.4157 71.6308 16.2969 71.5391 16.2032L58.4712 2.91628C58.3785 2.82136 58.2595 2.75629 58.1296 2.7294C57.9996 2.70251 57.8646 2.71503 57.7418 2.76535C57.619 2.81568 57.5141 2.90151 57.4404 3.01186C57.3667 3.12221 57.3276 3.25205 57.3281 3.38475V15.3306C57.3281 15.5933 57.3799 15.8534 57.4804 16.0961C57.5809 16.3388 57.7283 16.5594 57.914 16.7451C58.0998 16.9309 58.3203 17.0782 58.563 17.1787C58.8057 17.2792 59.0658 17.331 59.3285 17.331L59.3308 17.3357Z" fill="#6EC2E7"/>
<path d="M59.3311 22.6691C57.3907 22.6541 55.534 21.8766 54.1619 20.5045C52.7898 19.1323 52.0123 17.2757 51.9973 15.3352V0H33.9977C31.3463 0.00309957 28.8044 1.05772 26.9296 2.93253C25.0548 4.80733 24.0002 7.34922 23.9971 10.0006V16.0005H31.0241C31.92 16.0044 32.8064 16.1853 33.6323 16.5328C34.4581 16.8803 35.2072 17.3875 35.8364 18.0254L54.0293 36.5298C55.2987 37.8176 56.0076 39.555 56.0015 41.3632V64.0019H64.8438C67.472 63.9756 69.9825 62.908 71.8245 61.0332C73.6666 59.1584 74.6899 56.6295 74.6699 54.0013V22.6691H59.3311Z" fill="#6EC2E7"/>
</svg>
