<svg width="80" height="80" viewBox="0 0 80 80" fill="none" xmlns="http://www.w3.org/2000/svg">
<path d="M48.3475 39.9975C48.3475 41.6486 47.8579 43.2626 46.9406 44.6354C46.0233 46.0083 44.7195 47.0783 43.1941 47.7101C41.6687 48.3419 39.9902 48.5073 38.3708 48.1852C36.7514 47.863 35.264 47.068 34.0965 45.9005C32.929 44.733 32.1339 43.2455 31.8118 41.6261C31.4897 40.0067 31.655 38.3282 32.2868 36.8028C32.9187 35.2774 33.9887 33.9736 35.3615 33.0563C36.7343 32.139 38.3483 31.6494 39.9994 31.6494C42.2135 31.6494 44.3369 32.5289 45.9024 34.0945C47.468 35.6601 48.3475 37.7834 48.3475 39.9975V39.9975Z" fill="#6EC2E7"/>
<path d="M77.2842 47.65L77.2022 47.5832L71.7141 43.2792C71.3666 43.0042 71.0893 42.6508 70.9048 42.2479C70.7204 41.845 70.6341 41.4041 70.6531 40.9614V38.9517C70.6356 38.5115 70.7229 38.0734 70.9077 37.6735C71.0926 37.2737 71.3698 36.9234 71.7165 36.6515L77.2022 32.3452L77.2842 32.2784C78.1304 31.5734 78.6983 30.5904 78.8863 29.5051C79.0742 28.4199 78.87 27.3032 78.3101 26.3546L70.8838 13.5023C70.8754 13.4904 70.8679 13.4779 70.8615 13.4648C70.2985 12.5296 69.4257 11.8212 68.3947 11.4624C67.3637 11.1036 66.2397 11.1172 65.2177 11.5007L65.1556 11.523L58.7025 14.1206C58.2953 14.2851 57.8549 14.3505 57.4176 14.3114C56.9802 14.2723 56.5584 14.1298 56.1868 13.8958C55.6161 13.5366 55.0363 13.197 54.4476 12.8769C54.0658 12.6698 53.738 12.3759 53.4907 12.0189C53.2433 11.6618 53.0833 11.2517 53.0235 10.8215L52.0467 3.93502L52.0268 3.80853C51.815 2.74255 51.2429 1.78192 50.4064 1.08796C49.57 0.394004 48.5203 0.00898307 47.4335 -0.00244141H32.5597C31.4575 0.00154569 30.3919 0.394082 29.5505 1.10612C28.7091 1.81816 28.1457 2.8041 27.9594 3.89051L27.9442 3.98655L26.9744 10.8847C26.9149 11.3138 26.756 11.723 26.5103 12.0799C26.2647 12.4367 25.9392 12.7313 25.5597 12.9401C24.9694 13.2579 24.3897 13.5952 23.8205 13.952C23.4493 14.1849 23.0281 14.3263 22.5915 14.3646C22.155 14.4028 21.7156 14.3369 21.3095 14.1722L14.8575 11.5593L14.7955 11.5347C13.7717 11.1508 12.6457 11.1382 11.6136 11.499C10.5815 11.8598 9.70858 12.5712 9.14694 13.5093L9.12469 13.5468L1.68661 26.4085C1.12578 27.358 0.921037 28.476 1.109 29.5626C1.29696 30.6492 1.86537 31.6334 2.71256 32.3393L2.79454 32.4061L8.28262 36.7101C8.63012 36.985 8.90747 37.3385 9.09191 37.7414C9.27636 38.1442 9.36265 38.5851 9.3437 39.0278V41.0387C9.36118 41.4789 9.27389 41.917 9.08901 42.3169C8.90414 42.7168 8.62696 43.067 8.28028 43.3389L2.79805 47.65L2.71607 47.7167C1.86897 48.4213 1.30023 49.4043 1.11162 50.4898C0.923006 51.5754 1.12683 52.6926 1.68661 53.6416L9.11766 66.4928C9.12605 66.5047 9.13349 66.5173 9.13991 66.5303C9.70264 67.4659 10.5753 68.1749 11.6063 68.5341C12.6373 68.8933 13.7615 68.8801 14.7838 68.4967L14.8458 68.4745L21.2872 65.8768C21.6944 65.7125 22.1348 65.6472 22.5722 65.6863C23.0095 65.7253 23.4313 65.8677 23.8029 66.1017C24.3737 66.4632 24.9534 66.8028 25.5421 67.1206C25.9251 67.3277 26.254 67.6222 26.502 67.9801C26.7501 68.338 26.9103 68.7493 26.9697 69.1807L27.9371 76.0671L27.957 76.1936C28.1697 77.2611 28.7438 78.2227 29.5826 78.9164C30.4214 79.6101 31.4736 79.9936 32.5621 80.0022H47.4359C48.5381 79.9983 49.6037 79.6057 50.4451 78.8937C51.2865 78.1816 51.8499 77.1957 52.0362 76.1093L52.0514 76.0133L53.0212 69.1151C53.0815 68.6854 53.2415 68.2757 53.4883 67.9188C53.7352 67.5619 54.0621 67.2677 54.443 67.0597C55.0367 66.7411 55.6141 66.4015 56.1821 66.0478C56.5534 65.8149 56.9746 65.6735 57.4111 65.6352C57.8476 65.597 58.287 65.6629 58.6931 65.8276L65.1509 68.4276L65.213 68.4522C66.2365 68.8372 67.3626 68.8507 68.3951 68.4905C69.4275 68.1303 70.3008 67.4192 70.8627 66.4811C70.8697 66.4686 70.8771 66.4562 70.885 66.4437L78.3125 53.5948C78.8741 52.6457 79.0795 51.5278 78.8919 50.4411C78.7043 49.3544 78.1361 48.3699 77.2889 47.664L77.2842 47.65ZM53.896 40.6522C53.7571 43.8505 52.5223 46.9036 50.399 49.2993C48.2756 51.695 45.3929 53.2875 42.2346 53.8096C39.0762 54.3317 35.8343 53.7517 33.053 52.1668C30.2716 50.5818 28.12 48.0885 26.9591 45.1052C25.7983 42.1218 25.6989 38.83 26.6775 35.782C27.6562 32.734 29.6534 30.1154 32.3341 28.3655C35.0147 26.6156 38.2157 25.8409 41.3998 26.1715C44.5839 26.502 47.5575 27.9177 49.8215 30.1808C51.1915 31.5472 52.2615 33.1843 52.9631 34.9875C53.6646 36.7907 53.9824 38.7204 53.896 40.6534V40.6522Z" fill="#6EC2E7"/>
</svg>
