<svg width="1096" height="1233" viewBox="0 0 1096 1233" fill="none" xmlns="http://www.w3.org/2000/svg">
<g clip-path="url(#clip0_519_41)">
<path d="M548.079 50.3862L49.4203 236.148C49.4053 236.389 47.8203 261.448 48.1753 302.448C48.3823 326.387 49.2053 350.898 50.6223 375.301C52.3933 405.801 55.1033 436.223 58.6753 465.713C67.7673 540.777 82.4363 610.346 102.275 672.487C108.009 690.449 114.258 708.02 120.848 724.714C127.785 742.285 135.291 759.366 143.158 775.484C151.409 792.384 160.285 808.698 169.539 823.962C179.001 839.607 189.277 854.744 200.324 869.312C221.371 896.979 243.424 923.964 265.869 949.518C286.269 972.748 307.461 995.318 328.844 1016.6C363.697 1051.43 400.643 1084.09 439.478 1114.4C454.17 1125.81 468.925 1136.65 483.334 1146.61C494.86 1154.58 506.192 1162.01 517.014 1168.69C535.449 1180.08 546.134 1185.41 546.24 1185.46C546.34 1185.41 557.004 1179.98 575.54 1168.37C586.375 1161.58 597.712 1154.05 609.24 1146C623.64 1135.93 638.381 1125.01 653.04 1113.53C691.675 1083.14 728.442 1050.44 763.14 1015.62C784.363 994.397 805.36 971.932 825.547 948.851C847.752 923.462 869.524 896.702 890.259 869.313C901.171 854.851 911.339 839.843 920.723 824.347C929.923 809.191 938.799 792.977 947.095 776.154C955.006 760.114 962.6 743.098 969.668 725.58C976.383 708.938 982.798 691.406 988.736 673.471C1009.28 611.428 1025.12 541.822 1035.83 466.588C1040.03 437.031 1043.44 406.525 1045.97 375.916C1047.99 351.43 1049.45 326.823 1050.31 302.776C1051.77 261.763 1050.97 236.399 1050.96 236.147L548.079 50.3862Z" fill="white"/>
<path d="M546.142 1232.26C546.025 1232.21 534.163 1226.49 513.913 1214.33C501.985 1207.16 489.503 1199.19 476.813 1190.63C460.948 1179.92 444.713 1168.26 428.552 1155.96C385.88 1123.32 345.299 1088.04 307.046 1050.31C283.597 1027.28 260.382 1002.82 238.046 977.626C213.478 949.912 189.367 920.616 166.382 890.554C154.321 874.729 143.1 858.281 132.764 841.278C122.658 824.693 112.964 806.97 103.956 788.604C95.3662 771.087 87.1692 752.526 79.5932 733.434C72.3932 715.296 65.5722 696.203 59.3112 676.686C37.6492 609.167 21.6302 533.576 11.7012 452.014C7.80116 419.974 4.84216 386.922 2.90716 353.776C1.36016 327.261 0.461163 300.628 0.235163 274.616C-0.147837 230.472 1.57716 202.85 1.59516 202.576L546.142 0.734375L1095.29 202.576V202.586C1095.33 203.737 1096.15 231.286 1094.58 274.972C1093.64 301.097 1092.05 327.835 1089.84 354.443C1087.08 387.702 1083.36 420.849 1078.77 452.963C1067.08 534.71 1049.78 610.34 1027.34 677.754C1020.86 697.241 1013.85 716.291 1006.52 734.374C998.802 753.409 990.509 771.898 981.871 789.326C972.811 807.604 963.122 825.226 953.071 841.69C942.82 858.532 931.717 874.839 919.804 890.549C897.16 920.309 873.414 949.36 849.223 976.894C827.232 1001.92 804.38 1026.27 781.301 1049.24C743.627 1086.88 703.705 1122.2 661.756 1155.01C645.862 1167.38 629.895 1179.13 614.296 1189.95C601.816 1198.61 589.543 1206.69 577.819 1213.97C557.885 1226.34 546.256 1232.21 546.141 1232.26H546.142ZM548.079 50.3864L49.4202 236.148C49.4052 236.389 47.8202 261.448 48.1752 302.448C48.3822 326.387 49.2052 350.898 50.6222 375.301C52.3932 405.801 55.1032 436.223 58.6752 465.713C67.7672 540.777 82.4362 610.346 102.275 672.487C108.009 690.449 114.258 708.02 120.848 724.714C127.785 742.285 135.291 759.366 143.158 775.484C151.409 792.384 160.285 808.698 169.539 823.962C179.001 839.607 189.277 854.744 200.324 869.312C221.371 896.979 243.424 923.964 265.869 949.518C286.269 972.748 307.461 995.318 328.844 1016.6C363.696 1051.43 400.643 1084.09 439.478 1114.4C454.17 1125.81 468.925 1136.65 483.334 1146.61C494.86 1154.58 506.192 1162.01 517.014 1168.69C535.449 1180.08 546.134 1185.41 546.24 1185.46C546.34 1185.41 557.004 1179.98 575.54 1168.37C586.375 1161.58 597.712 1154.05 609.24 1146C623.64 1135.93 638.381 1125.01 653.04 1113.53C691.675 1083.14 728.442 1050.44 763.14 1015.62C784.363 994.397 805.36 971.932 825.547 948.851C847.752 923.462 869.524 896.702 890.259 869.313C901.171 854.852 911.338 839.843 920.723 824.347C929.923 809.191 938.799 792.977 947.095 776.154C955.006 760.114 962.6 743.098 969.668 725.58C976.383 708.938 982.798 691.406 988.736 673.471C1009.28 611.428 1025.12 541.822 1035.83 466.588C1040.03 437.031 1043.44 406.525 1045.97 375.916C1047.99 351.43 1049.45 326.823 1050.31 302.776C1051.77 261.763 1050.97 236.399 1050.96 236.147L548.079 50.3864Z" fill="url(#paint0_linear_519_41)"/>
<path d="M797.068 618.527C797.068 621.481 796.983 624.396 796.85 627.265C791.506 758.186 684.63 863.362 553.056 866.058C551.316 866.102 549.577 866.147 547.837 866.147C546.097 866.147 544.358 866.103 542.618 866.058C403.272 863.233 291.613 745.358 299.003 603.697C305.788 472.737 415.182 368.513 546.32 367.686C599.739 367.238 651.871 384.076 694.935 415.686C701.006 420.127 705.943 425.939 709.343 432.648C712.744 439.358 714.511 446.776 714.503 454.297V454.341C714.524 460.658 713.278 466.914 710.837 472.74C708.397 478.566 704.812 483.843 700.295 488.258C695.778 492.673 690.421 496.137 684.541 498.444C678.661 500.752 672.378 501.855 666.064 501.69C655.865 501.563 645.953 498.299 637.673 492.342C613.24 474.626 584.089 464.576 553.929 463.471C551.887 463.386 549.885 463.342 547.842 463.342C546.231 463.342 544.665 463.386 543.059 463.426C542.917 463.386 542.766 463.386 542.623 463.426C464.881 466.041 401.656 526.694 394.92 603.266C394.075 612.551 394.075 621.892 394.92 631.176C395.053 632.311 395.138 633.441 395.267 634.571C403.267 705.701 460.791 762.532 532.016 769.664C557.231 772.299 582.705 768.633 606.154 758.995C629.603 749.357 650.292 734.049 666.366 714.444C673.445 705.996 677.338 695.332 677.366 684.309C677.366 658.872 656.93 634.615 627.666 634.615C620.512 634.577 613.437 636.115 606.945 639.121C600.452 642.126 594.701 646.524 590.101 652.003C582.769 660.85 572.847 667.173 561.732 670.083C550.617 672.993 538.869 672.343 528.142 668.224C517.416 664.105 508.252 656.726 501.941 647.124C495.631 637.523 492.491 626.183 492.964 614.703C494.05 586.703 517.008 563.483 545.012 562.046C553.504 561.595 561.985 563.128 569.781 566.525C577.577 569.921 584.475 575.088 589.927 581.614C594.544 587.135 600.317 591.573 606.838 594.616C613.36 597.659 620.47 599.232 627.666 599.224H678.757C692.057 599.224 705.146 594.267 714.147 584.483C718.043 580.276 722.65 576.789 727.757 574.183C735.072 570.485 743.221 568.746 751.409 569.137C777.287 570.306 797.068 592.654 797.068 618.527Z" fill="url(#paint1_linear_519_41)"/>
<path d="M637.673 492.346C613.24 474.629 584.089 464.579 553.929 463.475C594.311 464.589 633.407 477.914 666.064 501.694C655.865 501.566 645.953 498.303 637.673 492.346V492.346Z" fill="url(#paint2_linear_519_41)"/>
<path style="mix-blend-mode:multiply" opacity="0.8" d="M749.243 664.746C749.243 726.604 721.343 781.951 676.637 819.574C641.905 848.629 598.332 865.019 553.061 866.058C551.321 866.102 549.582 866.147 547.842 866.147C546.102 866.147 544.363 866.103 542.623 866.058C433.839 863.318 346.486 774.23 346.486 664.746C346.486 555.262 433.839 466.171 542.623 463.43C454.577 466.389 385.137 543.83 395.268 634.571C403.268 705.701 460.792 762.532 532.016 769.664C557.231 772.299 582.706 768.633 606.154 758.995C629.603 749.357 650.292 734.049 666.366 714.444C673.445 705.995 677.338 695.332 677.366 684.309C677.366 658.872 656.93 634.615 627.666 634.615C620.512 634.577 613.437 636.115 606.945 639.12C600.452 642.126 594.702 646.524 590.101 652.003C582.77 660.85 572.847 667.175 561.732 670.085C550.617 672.995 538.868 672.345 528.142 668.226C517.415 664.107 508.251 656.727 501.941 647.125C495.63 637.523 492.49 626.184 492.964 614.703C494.05 586.703 517.008 563.483 545.012 562.046C553.504 561.595 561.985 563.128 569.781 566.525C577.578 569.921 584.475 575.088 589.927 581.614C594.544 587.135 600.317 591.573 606.839 594.616C613.36 597.659 620.47 599.232 627.666 599.224H678.757C692.057 599.224 705.146 594.267 714.147 584.483C718.043 580.276 722.65 576.789 727.757 574.183C741.926 602.267 749.286 633.291 749.243 664.746Z" fill="url(#paint3_linear_519_41)"/>
<path style="mix-blend-mode:multiply" opacity="0.8" d="M797.068 618.527C797.068 621.481 796.983 624.396 796.85 627.265C791.462 733.665 703.5 818.228 595.756 818.228C489.36 818.228 402.27 735.703 394.92 631.176C395.053 632.311 395.138 633.441 395.267 634.571C403.267 705.701 460.791 762.532 532.016 769.664C557.231 772.299 582.705 768.633 606.154 758.995C629.603 749.357 650.292 734.049 666.366 714.444C673.445 705.996 677.337 695.332 677.366 684.309C677.366 658.873 656.93 634.615 627.666 634.615C620.512 634.577 613.437 636.115 606.944 639.12C600.452 642.126 594.701 646.524 590.101 652.003C582.769 660.85 572.847 667.173 561.732 670.083C550.616 672.993 538.868 672.343 528.142 668.224C517.416 664.105 508.252 656.726 501.941 647.124C495.63 637.523 492.491 626.183 492.964 614.703C494.05 586.703 517.008 563.483 545.012 562.046C553.505 561.594 561.986 563.126 569.783 566.522C577.581 569.918 584.479 575.085 589.932 581.611C594.549 587.132 600.322 591.57 606.843 594.613C613.364 597.656 620.475 599.229 627.671 599.221H678.762C692.062 599.221 705.151 594.264 714.152 584.48C718.047 580.273 722.655 576.786 727.762 574.18C735.077 570.481 743.226 568.741 751.414 569.131C777.286 570.306 797.068 592.654 797.068 618.527Z" fill="url(#paint4_linear_519_41)"/>
</g>
<defs>
<linearGradient id="paint0_linear_519_41" x1="274.02" y1="1006.89" x2="1176.71" y2="308.92" gradientUnits="userSpaceOnUse">
<stop stop-color="#88DEFD"/>
<stop offset="0.284" stop-color="#1C7BAC"/>
<stop offset="0.573" stop-color="#2F4DAC"/>
<stop offset="1" stop-color="#1D46BB"/>
</linearGradient>
<linearGradient id="paint1_linear_519_41" x1="340.024" y1="479.833" x2="728.323" y2="792.33" gradientUnits="userSpaceOnUse">
<stop stop-color="#B8E6FC"/>
<stop offset="0.264" stop-color="#47D9D9"/>
<stop offset="0.657" stop-color="#525AB4"/>
<stop offset="1" stop-color="#08ECFF"/>
</linearGradient>
<linearGradient id="paint2_linear_519_41" x1="630.854" y1="481.782" x2="564.192" y2="503.98" gradientUnits="userSpaceOnUse">
<stop stop-color="#DB25E8" stop-opacity="0"/>
<stop offset="0.134" stop-color="#C525E8" stop-opacity="0.161"/>
<stop offset="0.451" stop-color="#9625E8" stop-opacity="0.518"/>
<stop offset="0.71" stop-color="#7325E8" stop-opacity="0.776"/>
<stop offset="0.9" stop-color="#5E25E8" stop-opacity="0.937"/>
<stop offset="1" stop-color="#5625E8"/>
</linearGradient>
<linearGradient id="paint3_linear_519_41" x1="781.061" y1="703.852" x2="322.333" y2="527.835" gradientUnits="userSpaceOnUse">
<stop stop-color="#8FE68B"/>
<stop offset="0.312" stop-color="#89B6EB"/>
<stop offset="0.451" stop-color="#65B7D5"/>
<stop offset="0.71" stop-color="#4695C7"/>
<stop offset="0.9" stop-color="#325BB7"/>
<stop offset="1" stop-color="#1BB76F"/>
</linearGradient>
<linearGradient id="paint4_linear_519_41" x1="511.141" y1="586.313" x2="649.419" y2="826.726" gradientUnits="userSpaceOnUse">
<stop stop-color="#64AED5" stop-opacity="0.18"/>
<stop offset="0.134" stop-color="#303151" stop-opacity="0.314"/>
<stop offset="0.451" stop-color="#64B7D5" stop-opacity="0.345"/>
<stop offset="0.621" stop-color="#3FC7CC"/>
<stop offset="0.764" stop-color="#2988C3"/>
<stop offset="0.9" stop-color="#1E5DB2"/>
<stop offset="1" stop-color="#2BBABA"/>
</linearGradient>
<clipPath id="clip0_519_41">
<rect width="1096" height="1233" fill="white"/>
</clipPath>
</defs>
</svg>
