<svg xmlns="http://www.w3.org/2000/svg" xmlns:xlink="http://www.w3.org/1999/xlink" width="4717" height="2868" viewBox="0 0 4717 2868">
  <defs>
    <linearGradient id="linear-gradient" x1="0.25" y1="0.817" x2="1" y2="0.165" gradientUnits="objectBoundingBox">
      <stop offset="0" stop-color="#88defd"/>
      <stop offset="0.284" stop-color="#1c7bac"/>
      <stop offset="0.573" stop-color="#2f4dac"/>
      <stop offset="1" stop-color="#1d46bb"/>
    </linearGradient>
    <linearGradient id="linear-gradient-2" x1="0.083" y1="0.225" x2="0.862" y2="0.852" gradientUnits="objectBoundingBox">
      <stop offset="0" stop-color="#b8e6fc"/>
      <stop offset="0.264" stop-color="#47d9d9"/>
      <stop offset="0.657" stop-color="#525ab4"/>
      <stop offset="1" stop-color="#658eff"/>
      <stop offset="1" stop-color="#08ecff"/>
    </linearGradient>
    <linearGradient id="linear-gradient-3" x1="0.686" y1="0.479" x2="0.034" y2="0.553" gradientUnits="objectBoundingBox">
      <stop offset="0" stop-color="#db25e8" stop-opacity="0"/>
      <stop offset="0.134" stop-color="#c525e8" stop-opacity="0.161"/>
      <stop offset="0.451" stop-color="#9625e8" stop-opacity="0.518"/>
      <stop offset="0.71" stop-color="#7325e8" stop-opacity="0.776"/>
      <stop offset="0.9" stop-color="#5e25e8" stop-opacity="0.937"/>
      <stop offset="1" stop-color="#5625e8"/>
    </linearGradient>
    <linearGradient id="linear-gradient-4" x1="1.079" y1="0.597" x2="-0.06" y2="0.16" gradientUnits="objectBoundingBox">
      <stop offset="0" stop-color="#8fe68b"/>
      <stop offset="0.312" stop-color="#89b6eb"/>
      <stop offset="0.451" stop-color="#65b7d5"/>
      <stop offset="0.71" stop-color="#4695c7"/>
      <stop offset="0.9" stop-color="#325bb7"/>
      <stop offset="1" stop-color="#1bb76f"/>
    </linearGradient>
    <linearGradient id="linear-gradient-5" x1="0.289" y1="0.095" x2="0.91" y2="0.783" gradientUnits="objectBoundingBox">
      <stop offset="0" stop-color="#64aed5" stop-opacity="0.18"/>
      <stop offset="0.134" stop-color="#303151" stop-opacity="0.314"/>
      <stop offset="0.451" stop-color="#64b7d5" stop-opacity="0.345"/>
      <stop offset="0.621" stop-color="#3fc7cc"/>
      <stop offset="0.764" stop-color="#2988c3"/>
      <stop offset="0.9" stop-color="#1e5db2"/>
      <stop offset="1" stop-color="#2bbaba"/>
    </linearGradient>
    <linearGradient id="linear-gradient-6" x1="0.5" x2="0.5" y2="1" gradientUnits="objectBoundingBox">
      <stop offset="0" stop-color="#5cdce0"/>
      <stop offset="0.474" stop-color="#46a0c2"/>
      <stop offset="0.855" stop-color="#264997"/>
      <stop offset="1" stop-color="#133d87"/>
    </linearGradient>
    <clipPath id="clip-Artboard_1">
      <rect width="4717" height="2868"/>
    </clipPath>
  </defs>
  <g id="Artboard_1" data-name="Artboard – 1" clip-path="url(#clip-Artboard_1)">
    <rect width="4717" height="2868" fill="#fff"/>
    <g id="Group_1" data-name="Group 1" transform="translate(-18087 17438)">
      <rect id="Rectangle_63" data-name="Rectangle 63" width="4182" height="1958" rx="398" transform="translate(18321 -16940)" fill="#fff"/>
      <path id="Subtraction_15" data-name="Subtraction 15" d="M545.963,1231.529h0c-.117-.056-11.979-5.774-32.229-17.937-11.928-7.164-24.41-15.139-37.1-23.7-15.865-10.707-32.1-22.371-48.261-34.667a1284.323,1284.323,0,0,1-121.506-105.645c-23.449-23.038-46.664-47.494-69-72.688-24.568-27.714-48.679-57.01-71.664-87.072a568.162,568.162,0,0,1-33.618-49.276c-10.106-16.585-19.8-34.308-28.808-52.674C95.187,770.353,86.99,751.792,79.414,732.7c-7.2-18.138-14.021-37.231-20.282-56.748-21.662-67.519-37.681-143.11-47.61-224.672-3.9-32.04-6.859-65.092-8.794-98.238C1.181,326.527.282,299.894.056,273.882c-.383-44.144,1.342-71.766,1.36-72.04L545.963,0l549.152,201.842v.01c.036,1.151.854,28.7-.715,72.386-.937,26.125-2.531,52.863-4.738,79.471-2.757,33.259-6.484,66.406-11.076,98.52-11.69,81.747-28.99,157.377-51.422,224.791-6.484,19.487-13.49,38.537-20.822,56.62-7.719,19.035-16.012,37.524-24.65,54.952-9.06,18.278-18.749,35.9-28.8,52.364a579.623,579.623,0,0,1-33.267,48.859c-22.644,29.76-46.39,58.811-70.581,86.345-21.991,25.03-44.843,49.371-67.922,72.347a1317.505,1317.505,0,0,1-119.545,105.764c-15.894,12.37-31.861,24.128-47.46,34.949-12.48,8.658-24.753,16.738-36.477,24.016-19.934,12.374-31.563,18.235-31.678,18.293ZM547.9,49.652,49.241,235.414c-.015.241-1.6,25.3-1.245,66.3.207,23.939,1.03,48.45,2.447,72.853,1.771,30.5,4.481,60.922,8.053,90.412,9.092,75.064,23.761,144.633,43.6,206.774,5.734,17.962,11.983,35.533,18.573,52.227,6.937,17.571,14.443,34.652,22.31,50.77,8.251,16.9,17.127,33.214,26.381,48.478a523,523,0,0,0,30.785,45.35c21.047,27.667,43.1,54.652,65.545,80.206,20.4,23.23,41.592,45.8,62.975,67.085a1209.8,1209.8,0,0,0,110.634,97.8c14.692,11.411,29.447,22.248,43.856,32.209,11.526,7.968,22.858,15.4,33.68,22.08,18.435,11.384,29.12,16.714,29.226,16.767.1-.052,10.764-5.484,29.3-17.094,10.835-6.787,22.172-14.313,33.7-22.367,14.4-10.067,29.141-20.991,43.8-32.469a1222.71,1222.71,0,0,0,110.1-97.907c21.223-21.225,42.22-43.69,62.407-66.771,22.205-25.389,43.977-52.149,64.712-79.538a533.63,533.63,0,0,0,30.464-44.966c9.2-15.156,18.076-31.37,26.372-48.193,7.911-16.04,15.505-33.056,22.573-50.574,6.715-16.642,13.13-34.174,19.068-52.109,20.541-62.043,36.384-131.649,47.089-206.883,4.205-29.557,7.618-60.063,10.142-90.672,2.02-24.486,3.479-49.093,4.338-73.14,1.465-41.013.661-66.377.653-66.629L547.9,49.652Z" transform="translate(18761.18 -16560.266)" fill="url(#linear-gradient)"/>
      <g id="Group_71" data-name="Group 71" transform="translate(19059.656 -16193.313)">
        <path id="Path_18" data-name="Path 18" d="M498.412,250.841c0,2.954-.085,5.869-.218,8.738C492.85,390.5,385.974,495.676,254.4,498.372c-1.74.044-3.479.089-5.219.089s-3.479-.044-5.219-.089C104.616,495.547-7.043,377.672.347,236.011,7.132,105.051,116.526.827,247.664,0A247.645,247.645,0,0,1,396.279,48a47.772,47.772,0,0,1,19.568,38.611v.044a47.206,47.206,0,0,1-48.439,47.349,49.672,49.672,0,0,1-28.391-9.348,152.147,152.147,0,0,0-83.744-28.871c-2.042-.085-4.044-.129-6.087-.129-1.611,0-3.177.044-4.783.084a.8.8,0,0,0-.436,0C166.225,98.355,103,159.008,96.264,235.58a153.878,153.878,0,0,0,0,27.91c.133,1.135.218,2.265.347,3.395,8,71.13,65.524,127.961,136.749,135.093a153.153,153.153,0,0,0,134.35-55.22,47.112,47.112,0,0,0,11-30.135c0-25.437-20.436-49.694-49.7-49.694a48.709,48.709,0,0,0-37.565,17.388,54.908,54.908,0,0,1-97.137-37.3c1.086-28,24.044-51.22,52.048-52.657a54.736,54.736,0,0,1,44.915,19.568,49.127,49.127,0,0,0,37.739,17.61h51.091c13.3,0,26.389-4.957,35.39-14.741a48.736,48.736,0,0,1,13.61-10.3,47.4,47.4,0,0,1,23.652-5.046C478.631,202.62,498.412,224.968,498.412,250.841Z" transform="translate(0 0)" fill="url(#linear-gradient-2)"/>
        <path id="Path_19" data-name="Path 19" d="M83.744,28.871A152.148,152.148,0,0,0,0,0,199.861,199.861,0,0,1,112.135,38.219,49.672,49.672,0,0,1,83.744,28.871Z" transform="translate(255.273 95.788)" fill="url(#linear-gradient-3)"/>
        <path id="Path_20" data-name="Path 20" d="M402.757,201.316c0,61.858-27.9,117.205-72.606,154.828a199.739,199.739,0,0,1-123.576,46.484c-1.74.044-3.479.089-5.219.089s-3.479-.044-5.219-.089C87.353,399.888,0,310.8,0,201.316S87.353,2.741,196.137,0C108.091,2.959,38.651,80.4,48.782,171.141c8,71.13,65.524,127.961,136.748,135.093a153.153,153.153,0,0,0,134.35-55.22,47.113,47.113,0,0,0,11-30.135c0-25.437-20.436-49.694-49.7-49.694a48.709,48.709,0,0,0-37.565,17.388,54.907,54.907,0,0,1-97.137-37.3c1.086-28,24.044-51.22,52.048-52.657a54.735,54.735,0,0,1,44.915,19.568,49.127,49.127,0,0,0,37.739,17.61h51.091c13.3,0,26.389-4.957,35.39-14.741a48.737,48.737,0,0,1,13.61-10.3A200.448,200.448,0,0,1,402.757,201.316Z" transform="translate(47.83 95.744)" opacity="0.8" fill="url(#linear-gradient-4)" style="mix-blend-mode: multiply;isolation: isolate"/>
        <path id="Path_21" data-name="Path 21" d="M402.148,56.556c0,2.954-.085,5.869-.218,8.738-5.388,106.4-93.35,190.963-201.094,190.963C94.44,256.257,7.35,173.732,0,69.205.133,70.34.218,71.47.347,72.6c8,71.13,65.524,127.961,136.749,135.093a153.153,153.153,0,0,0,134.35-55.22,47.112,47.112,0,0,0,11-30.135c0-25.436-20.436-49.694-49.7-49.694a48.709,48.709,0,0,0-37.565,17.388,54.908,54.908,0,0,1-97.137-37.3c1.086-28,24.044-51.22,52.048-52.657A54.735,54.735,0,0,1,195.012,19.64a49.127,49.127,0,0,0,37.739,17.61h51.091c13.3,0,26.389-4.957,35.39-14.741a48.738,48.738,0,0,1,13.61-10.3A47.4,47.4,0,0,1,356.494,7.16C382.366,8.335,402.148,30.683,402.148,56.556Z" transform="translate(96.264 194.285)" opacity="0.8" fill="url(#linear-gradient-5)" style="mix-blend-mode: multiply;isolation: isolate"/>
      </g>
      <text id="Gizsafe" transform="translate(20026 -15818)" font-size="732" font-family="Baskerville"><tspan x="0" y="0">gizsafe</tspan></text>
      <circle id="Ellipse_18" data-name="Ellipse 18" cx="70" cy="70" r="70" transform="translate(20386 -16336)" fill="#fff"/>
      <rect id="Rectangle_64" data-name="Rectangle 64" width="20" height="90" rx="10" transform="translate(20068 -16244)" fill="#fff"/>
      <path id="location-sharp" d="M68.714,2.25C34.5,2.25,6.75,27.234,6.75,58.018c0,49.571,61.964,117.732,61.964,117.732s61.964-68.161,61.964-117.732C130.678,27.234,102.924,2.25,68.714,2.25Zm0,86.75A24.786,24.786,0,1,1,93.5,64.214,24.786,24.786,0,0,1,68.714,89Z" transform="translate(20382.25 -16367.75)" fill="url(#linear-gradient-6)"/>
    </g>
  </g>
</svg>
