<svg width="3157" height="1233" viewBox="0 0 3157 1233" fill="none" xmlns="http://www.w3.org/2000/svg">
<g clip-path="url(#clip0_519_2)">
<path d="M548.079 50.3864L49.4203 236.148C49.4053 236.389 47.8203 261.448 48.1753 302.448C48.3823 326.387 49.2053 350.898 50.6223 375.301C52.3933 405.801 55.1033 436.223 58.6753 465.713C67.7673 540.777 82.4363 610.346 102.275 672.487C108.009 690.449 114.258 708.02 120.848 724.714C127.785 742.285 135.291 759.366 143.158 775.484C151.409 792.384 160.285 808.698 169.539 823.962C179.001 839.607 189.277 854.744 200.324 869.312C221.371 896.979 243.424 923.964 265.869 949.518C286.269 972.748 307.461 995.318 328.844 1016.6C363.697 1051.43 400.643 1084.09 439.478 1114.4C454.17 1125.81 468.925 1136.65 483.334 1146.61C494.86 1154.58 506.192 1162.01 517.014 1168.69C535.449 1180.08 546.134 1185.41 546.24 1185.46C546.34 1185.41 557.004 1179.98 575.54 1168.37C586.375 1161.58 597.712 1154.05 609.24 1146C623.64 1135.93 638.381 1125.01 653.04 1113.53C691.675 1083.14 728.442 1050.44 763.14 1015.62C784.363 994.397 805.36 971.932 825.547 948.851C847.752 923.462 869.524 896.702 890.259 869.313C901.171 854.852 911.339 839.843 920.723 824.347C929.923 809.191 938.799 792.977 947.095 776.154C955.006 760.114 962.6 743.098 969.668 725.58C976.383 708.938 982.798 691.406 988.736 673.471C1009.28 611.428 1025.12 541.822 1035.83 466.588C1040.03 437.031 1043.44 406.525 1045.97 375.916C1047.99 351.43 1049.45 326.823 1050.31 302.776C1051.77 261.763 1050.97 236.399 1050.96 236.147L548.079 50.3864Z" fill="white"/>
<path d="M546.142 1232.26C546.025 1232.21 534.163 1226.49 513.913 1214.33C501.985 1207.16 489.503 1199.19 476.813 1190.63C460.948 1179.92 444.713 1168.26 428.552 1155.96C385.88 1123.32 345.299 1088.04 307.046 1050.31C283.597 1027.28 260.382 1002.82 238.046 977.626C213.478 949.912 189.367 920.616 166.382 890.554C154.321 874.729 143.1 858.281 132.764 841.278C122.658 824.693 112.964 806.97 103.956 788.604C95.3662 771.087 87.1692 752.526 79.5932 733.434C72.3932 715.296 65.5722 696.203 59.3112 676.686C37.6492 609.167 21.6302 533.576 11.7012 452.014C7.80116 419.974 4.84216 386.922 2.90716 353.776C1.36016 327.261 0.461163 300.628 0.235163 274.616C-0.147837 230.472 1.57716 202.85 1.59516 202.576L546.142 0.734375L1095.29 202.576V202.586C1095.33 203.737 1096.15 231.286 1094.58 274.972C1093.64 301.097 1092.05 327.835 1089.84 354.443C1087.08 387.702 1083.36 420.849 1078.77 452.963C1067.08 534.71 1049.78 610.34 1027.34 677.754C1020.86 697.241 1013.85 716.291 1006.52 734.374C998.802 753.409 990.509 771.898 981.871 789.326C972.811 807.604 963.122 825.226 953.071 841.69C942.82 858.532 931.717 874.839 919.804 890.549C897.16 920.309 873.414 949.36 849.223 976.894C827.232 1001.92 804.38 1026.27 781.301 1049.24C743.627 1086.88 703.705 1122.2 661.756 1155.01C645.862 1167.38 629.895 1179.13 614.296 1189.95C601.816 1198.61 589.543 1206.69 577.819 1213.97C557.885 1226.34 546.256 1232.21 546.141 1232.26H546.142ZM548.079 50.3864L49.4202 236.148C49.4052 236.389 47.8202 261.448 48.1752 302.448C48.3822 326.387 49.2052 350.898 50.6222 375.301C52.3932 405.801 55.1032 436.223 58.6752 465.713C67.7672 540.777 82.4362 610.346 102.275 672.487C108.009 690.449 114.258 708.02 120.848 724.714C127.785 742.285 135.291 759.366 143.158 775.484C151.409 792.384 160.285 808.698 169.539 823.962C179.001 839.607 189.277 854.744 200.324 869.312C221.371 896.979 243.424 923.964 265.869 949.518C286.269 972.748 307.461 995.318 328.844 1016.6C363.696 1051.43 400.643 1084.09 439.478 1114.4C454.17 1125.81 468.925 1136.65 483.334 1146.61C494.86 1154.58 506.192 1162.01 517.014 1168.69C535.449 1180.08 546.134 1185.41 546.24 1185.46C546.34 1185.41 557.004 1179.98 575.54 1168.37C586.375 1161.58 597.712 1154.05 609.24 1146C623.64 1135.93 638.381 1125.01 653.04 1113.53C691.675 1083.14 728.442 1050.44 763.14 1015.62C784.363 994.397 805.36 971.932 825.547 948.851C847.752 923.462 869.524 896.702 890.259 869.313C901.171 854.852 911.338 839.843 920.723 824.347C929.923 809.191 938.799 792.977 947.095 776.154C955.006 760.114 962.6 743.098 969.668 725.58C976.383 708.938 982.798 691.406 988.736 673.471C1009.28 611.428 1025.12 541.822 1035.83 466.588C1040.03 437.031 1043.44 406.525 1045.97 375.916C1047.99 351.43 1049.45 326.823 1050.31 302.776C1051.77 261.763 1050.97 236.399 1050.96 236.147L548.079 50.3864Z" fill="url(#paint0_linear_519_2)"/>
<path d="M797.068 618.527C797.068 621.481 796.983 624.396 796.85 627.265C791.506 758.186 684.63 863.362 553.056 866.058C551.316 866.102 549.577 866.147 547.837 866.147C546.097 866.147 544.358 866.103 542.618 866.058C403.272 863.233 291.613 745.358 299.003 603.697C305.788 472.737 415.182 368.513 546.32 367.686C599.739 367.238 651.871 384.076 694.935 415.686C701.006 420.127 705.943 425.939 709.343 432.648C712.744 439.358 714.511 446.776 714.503 454.297V454.341C714.524 460.658 713.278 466.914 710.837 472.74C708.397 478.566 704.812 483.843 700.295 488.258C695.778 492.673 690.421 496.137 684.541 498.444C678.661 500.752 672.378 501.855 666.064 501.69C655.865 501.563 645.953 498.299 637.673 492.342C613.24 474.626 584.089 464.576 553.929 463.471C551.887 463.386 549.885 463.342 547.842 463.342C546.231 463.342 544.665 463.386 543.059 463.426C542.917 463.386 542.766 463.386 542.623 463.426C464.881 466.041 401.656 526.694 394.92 603.266C394.075 612.551 394.075 621.892 394.92 631.176C395.053 632.311 395.138 633.441 395.267 634.571C403.267 705.701 460.791 762.532 532.016 769.664C557.231 772.299 582.705 768.633 606.154 758.995C629.603 749.357 650.292 734.049 666.366 714.444C673.445 705.996 677.338 695.332 677.366 684.309C677.366 658.872 656.93 634.615 627.666 634.615C620.512 634.577 613.437 636.115 606.945 639.121C600.452 642.126 594.701 646.524 590.101 652.003C582.769 660.85 572.847 667.173 561.732 670.083C550.617 672.993 538.869 672.343 528.142 668.224C517.416 664.105 508.252 656.726 501.941 647.124C495.631 637.523 492.491 626.183 492.964 614.703C494.05 586.703 517.008 563.483 545.012 562.046C553.504 561.595 561.985 563.128 569.781 566.525C577.577 569.921 584.475 575.088 589.927 581.614C594.544 587.135 600.317 591.573 606.838 594.616C613.36 597.659 620.47 599.232 627.666 599.224H678.757C692.057 599.224 705.146 594.267 714.147 584.483C718.043 580.276 722.65 576.789 727.757 574.183C735.072 570.485 743.221 568.746 751.409 569.137C777.287 570.306 797.068 592.654 797.068 618.527Z" fill="url(#paint1_linear_519_2)"/>
<path d="M637.673 492.345C613.24 474.629 584.089 464.579 553.929 463.474C594.311 464.589 633.407 477.914 666.064 501.693C655.865 501.566 645.953 498.303 637.673 492.345V492.345Z" fill="url(#paint2_linear_519_2)"/>
<path style="mix-blend-mode:multiply" opacity="0.8" d="M749.243 664.746C749.243 726.604 721.343 781.951 676.637 819.574C641.905 848.629 598.332 865.019 553.061 866.058C551.321 866.102 549.582 866.147 547.842 866.147C546.102 866.147 544.363 866.103 542.623 866.058C433.839 863.318 346.486 774.23 346.486 664.746C346.486 555.262 433.839 466.171 542.623 463.43C454.577 466.389 385.137 543.83 395.268 634.571C403.268 705.701 460.792 762.532 532.016 769.664C557.231 772.299 582.706 768.633 606.154 758.995C629.603 749.357 650.292 734.049 666.366 714.444C673.445 705.995 677.338 695.332 677.366 684.309C677.366 658.872 656.93 634.615 627.666 634.615C620.512 634.577 613.437 636.115 606.945 639.12C600.452 642.126 594.702 646.524 590.101 652.003C582.77 660.85 572.847 667.175 561.732 670.085C550.617 672.995 538.868 672.345 528.142 668.226C517.415 664.107 508.251 656.727 501.941 647.125C495.63 637.523 492.49 626.184 492.964 614.703C494.05 586.703 517.008 563.483 545.012 562.046C553.504 561.595 561.985 563.128 569.781 566.525C577.578 569.921 584.475 575.088 589.927 581.614C594.544 587.135 600.317 591.573 606.839 594.616C613.36 597.659 620.47 599.232 627.666 599.224H678.757C692.057 599.224 705.146 594.267 714.147 584.483C718.043 580.276 722.65 576.789 727.757 574.183C741.926 602.267 749.286 633.291 749.243 664.746Z" fill="url(#paint3_linear_519_2)"/>
<path style="mix-blend-mode:multiply" opacity="0.8" d="M797.068 618.527C797.068 621.481 796.983 624.396 796.85 627.265C791.462 733.665 703.5 818.228 595.756 818.228C489.36 818.228 402.27 735.703 394.92 631.176C395.053 632.311 395.138 633.441 395.267 634.571C403.267 705.701 460.791 762.532 532.016 769.664C557.231 772.299 582.705 768.633 606.154 758.995C629.603 749.357 650.292 734.049 666.366 714.444C673.445 705.996 677.337 695.332 677.366 684.309C677.366 658.873 656.93 634.615 627.666 634.615C620.512 634.577 613.437 636.115 606.944 639.12C600.452 642.126 594.701 646.524 590.101 652.003C582.769 660.85 572.847 667.173 561.732 670.083C550.616 672.993 538.868 672.343 528.142 668.224C517.416 664.105 508.252 656.726 501.941 647.124C495.63 637.523 492.491 626.183 492.964 614.703C494.05 586.703 517.008 563.483 545.012 562.046C553.505 561.594 561.986 563.126 569.783 566.522C577.581 569.918 584.479 575.085 589.932 581.611C594.549 587.132 600.322 591.57 606.843 594.613C613.364 597.656 620.475 599.229 627.671 599.221H678.762C692.062 599.221 705.151 594.264 714.152 584.48C718.047 580.273 722.655 576.786 727.762 574.18C735.077 570.481 743.226 568.741 751.414 569.131C777.286 570.306 797.068 592.654 797.068 618.527Z" fill="url(#paint4_linear_519_2)"/>
<path d="M1525.59 420.748C1536.33 438.804 1541.7 459.544 1541.7 482.968C1541.7 512.736 1531.94 537.38 1512.42 556.9C1492.9 575.932 1468.01 586.424 1437.75 588.376C1375.29 590.816 1343.08 601.064 1341.13 619.12C1341.13 628.88 1350.4 633.76 1368.94 633.76C1393.34 633.76 1429.94 635.224 1478.74 638.152C1513.39 641.08 1540.48 649.62 1560 663.772C1579.52 677.924 1589.28 701.348 1589.28 734.044C1589.28 777.476 1572.93 811.636 1540.23 836.524C1508.02 861.9 1469.72 874.588 1425.31 874.588C1403.84 874.588 1382.12 871.416 1360.16 865.072C1338.2 858.728 1318.44 847.504 1300.87 831.4C1283.3 815.296 1274.52 796.02 1274.52 773.572C1274.52 752.1 1283.3 734.044 1300.87 719.404C1318.44 704.764 1338.2 697.444 1360.16 697.444C1362.6 697.444 1366.75 697.932 1372.6 698.908C1371.14 700.372 1367.97 703.056 1363.09 706.96C1358.21 710.864 1354.79 713.548 1352.84 715.012C1350.89 716.964 1347.96 719.648 1344.06 723.064C1340.64 726.968 1338.2 730.14 1336.74 732.58C1335.27 735.02 1333.32 738.192 1330.88 742.096C1328.93 746 1327.46 749.904 1326.49 753.808C1326 758.2 1325.76 762.836 1325.76 767.716C1325.76 793.092 1336.49 812.124 1357.96 824.812C1379.44 837.988 1403.59 844.576 1430.43 844.576C1458.25 844.576 1483.62 837.744 1506.56 824.08C1529.5 810.904 1540.96 791.384 1540.96 765.52C1540.96 746.976 1534.38 732.824 1521.2 723.064C1508.02 713.792 1491.43 708.424 1471.42 706.96C1468.01 706.472 1458.49 705.74 1442.88 704.764C1427.26 704.276 1414.82 703.544 1405.54 702.568C1396.27 701.592 1384.32 699.396 1369.68 695.98C1355.52 693.052 1344.3 689.392 1336 685C1328.2 680.12 1321.12 673.288 1314.78 664.504C1308.43 655.232 1305.26 644.74 1305.26 633.028C1305.26 617.412 1312.09 604.724 1325.76 594.964C1339.91 585.204 1355.52 579.592 1372.6 578.128C1351.62 571.784 1335.03 560.316 1322.83 543.724C1311.12 527.132 1305.26 507.856 1305.26 485.896C1305.26 451.736 1316.24 424.408 1338.2 403.912C1360.65 382.928 1389.2 372.436 1423.84 372.436C1464.35 372.436 1495.09 384.88 1516.08 409.768C1536.08 386.344 1558.53 373.9 1583.42 372.436C1592.69 372.436 1600.99 374.876 1608.31 379.756C1615.63 384.636 1619.29 391.468 1619.29 400.252C1619.29 408.06 1616.85 414.648 1611.97 420.016C1607.58 425.384 1601.72 428.068 1594.4 428.068C1588.54 428.068 1581.71 424.652 1573.9 417.82C1566.1 410.5 1559.26 406.84 1553.41 406.84C1545.11 406.84 1535.84 411.476 1525.59 420.748ZM1483.87 482.968C1483.87 421.968 1464.1 391.468 1424.58 391.468C1408.96 391.468 1396.27 397.08 1386.51 408.304C1377.24 419.528 1371.14 431.728 1368.21 444.904C1365.77 458.08 1364.55 472.476 1364.55 488.092C1364.55 510.54 1368.94 530.304 1377.73 547.384C1386.51 563.976 1401.15 572.272 1421.65 572.272C1443.12 572.272 1458.74 563.244 1468.5 545.188C1478.74 527.132 1483.87 506.392 1483.87 482.968Z" fill="black"/>
<path d="M1728.87 376.096V603.748C1728.87 623.268 1732.29 637.908 1739.12 647.668C1746.44 656.94 1759.37 661.82 1777.91 662.308V685H1619.07V662.308C1637.61 661.82 1650.3 656.94 1657.13 647.668C1664.45 637.908 1668.11 623.268 1668.11 603.748V477.844C1668.11 458.812 1664.45 444.416 1657.13 434.656C1649.81 424.408 1637.13 419.04 1619.07 418.552V396.592C1648.35 392.688 1684.95 385.856 1728.87 376.096Z" fill="black"/>
<path d="M2045.21 583.252H2064.25L2058.39 685H1797.07V660.844L1985.19 402.448H1879.78C1868.56 402.448 1859.77 405.62 1853.43 411.964C1847.09 418.308 1840.74 428.312 1834.4 441.976C1828.54 455.64 1824.39 464.424 1821.95 468.328H1802.19L1812.44 379.756H2058.39V402.448L1870.27 660.844H1972.01C1981.77 660.844 1990.56 658.648 1998.37 654.256C2006.66 649.864 2013.74 643.032 2019.59 633.76C2025.94 624.488 2030.57 616.68 2033.5 610.336C2036.92 603.504 2040.82 594.476 2045.21 583.252Z" fill="black"/>
<path d="M2287.95 381.22V481.504H2271.11C2266.23 459.056 2256.72 439.78 2242.56 423.676C2228.9 407.084 2211.33 398.788 2189.86 398.788C2177.66 398.788 2167.41 402.692 2159.12 410.5C2151.31 418.308 2147.4 428.312 2147.4 440.512C2147.4 452.224 2152.77 462.716 2163.51 471.988C2174.24 481.26 2187.18 489.312 2202.3 496.144C2217.43 502.488 2232.56 509.808 2247.69 518.104C2263.3 525.912 2276.48 536.892 2287.22 551.044C2297.95 564.708 2303.32 581.056 2303.32 600.088C2303.32 627.904 2295.02 650.352 2278.43 667.432C2261.84 684.512 2239.88 693.052 2212.55 693.052C2181.32 693.052 2153.5 682.072 2129.1 660.112L2116.66 685H2099.09V580.324H2116.66C2119.59 604.236 2129.1 624.488 2145.21 641.08C2161.31 657.184 2181.08 665.236 2204.5 665.236C2218.65 665.236 2230.85 661.088 2241.1 652.792C2251.35 644.496 2256.47 633.516 2256.47 619.852C2256.47 606.676 2251.1 595.208 2240.37 585.448C2229.63 575.2 2216.7 566.66 2201.57 559.828C2186.44 552.508 2171.32 544.944 2156.19 537.136C2141.06 528.84 2128.13 518.104 2117.39 504.928C2106.66 491.264 2101.29 475.648 2101.29 458.08C2101.29 432.216 2108.61 411.476 2123.25 395.86C2138.38 380.244 2158.63 372.436 2184 372.436C2210.84 372.436 2235.24 384.148 2257.2 407.572L2271.11 381.22H2287.95Z" fill="black"/>
<path d="M2646.41 620.584H2668.37C2656.17 668.896 2631.77 693.052 2595.17 693.052C2578.58 693.052 2564.91 688.66 2554.18 679.876C2543.93 670.604 2537.59 657.672 2535.15 641.08C2521.97 656.208 2505.62 668.652 2486.1 678.412C2467.07 687.684 2447.79 692.32 2428.27 692.32C2406.8 692.32 2389.48 685.488 2376.3 671.824C2363.13 657.672 2356.54 639.616 2356.54 617.656C2356.54 598.136 2360.2 581.788 2367.52 568.612C2375.33 555.436 2386.06 545.432 2399.73 538.6C2413.88 531.768 2427.79 526.4 2441.45 522.496C2455.6 518.592 2471.95 514.688 2490.49 510.784C2509.04 506.392 2523.92 501.756 2535.15 496.876V471.988C2535.15 446.124 2531.49 426.848 2524.17 414.16C2517.33 401.472 2501.96 395.128 2478.05 395.128C2465.85 395.128 2456.09 397.568 2448.77 402.448C2441.94 407.328 2437.06 413.428 2434.13 420.748C2431.69 428.068 2429.25 435.388 2426.81 442.708C2424.37 449.54 2420.47 455.396 2415.1 460.276C2410.22 465.156 2403.14 467.596 2393.87 467.596C2386.06 467.596 2378.74 465.4 2371.91 461.008C2365.08 456.616 2361.66 450.76 2361.66 443.44C2361.66 427.824 2368.98 414.404 2383.62 403.18C2398.26 391.468 2414.12 383.416 2431.2 379.024C2448.28 374.632 2464.39 372.436 2479.51 372.436C2557.11 372.436 2595.9 403.424 2595.9 465.4V626.44C2595.9 646.936 2602.25 657.672 2614.93 658.648C2629.09 658.648 2639.09 647.668 2644.95 625.708C2645.92 623.756 2646.41 622.048 2646.41 620.584ZM2535.15 518.104C2528.31 521.032 2516.85 524.936 2500.74 529.816C2485.13 534.696 2472.19 539.088 2461.95 542.992C2451.7 546.896 2441.94 553.728 2432.67 563.488C2423.39 572.76 2418.27 583.984 2417.29 597.16C2417.29 612.288 2421.93 624.976 2431.2 635.224C2440.47 645.472 2452.92 650.596 2468.53 650.596C2489.52 650.596 2511.72 640.592 2535.15 620.584V518.104Z" fill="black"/>
<path d="M2845.62 380.488V402.448H2779.74V603.748C2779.74 627.172 2784.38 642.788 2793.65 650.596C2802.92 657.916 2819.51 662.064 2843.43 663.04V685H2669.94V662.308C2688.49 661.82 2701.17 656.94 2708.01 647.668C2715.33 637.908 2718.99 623.268 2718.99 603.748V402.448H2667.75V380.488H2718.99C2718.99 362.432 2719.23 347.792 2719.72 336.568C2720.21 324.856 2721.43 310.704 2723.38 294.112C2725.82 277.032 2729.72 263.124 2735.09 252.388C2740.46 241.652 2747.29 231.16 2755.59 220.912C2763.88 210.176 2775.11 202.368 2789.26 197.488C2803.41 192.12 2820 189.436 2839.03 189.436C2856.11 189.436 2871.49 193.828 2885.15 202.612C2899.3 211.396 2906.38 223.84 2906.38 239.944C2906.38 247.752 2903.45 254.828 2897.59 261.172C2892.23 267.028 2885.64 269.956 2877.83 269.956C2867.58 269.956 2860.26 267.028 2855.87 261.172C2851.48 255.316 2849.28 248.972 2849.28 242.14C2849.77 235.308 2848.31 228.964 2844.89 223.108C2841.96 217.252 2836.35 214.324 2828.05 214.324C2795.85 214.324 2779.74 239.944 2779.74 291.184V380.488H2845.62Z" fill="black"/>
<path d="M3156.47 521.764H2947.85C2947.85 617.412 2979.08 665.236 3041.54 665.236C3077.65 665.236 3108.89 646.692 3135.24 609.604L3156.47 621.316C3126.21 669.14 3084.24 693.052 3030.56 693.052C2985.67 693.052 2949.55 678.412 2922.23 649.132C2894.9 619.364 2881.23 581.788 2881.23 536.404C2881.23 491.02 2894.41 452.468 2920.76 420.748C2947.6 388.54 2983.47 372.436 3028.37 372.436C3067.89 372.436 3099.13 387.32 3122.06 417.088C3145 446.368 3156.47 481.26 3156.47 521.764ZM3091.32 496.144C3091.32 495.656 3091.32 494.68 3091.32 493.216C3091.81 491.264 3092.05 489.8 3092.05 488.824C3092.05 429.288 3069.6 399.52 3024.71 399.52C2999.82 399.52 2981.03 409.036 2968.34 428.068C2956.14 446.612 2949.55 469.304 2948.58 496.144H3091.32Z" fill="black"/>
<path d="M1689.96 282.25C1685.06 282.25 1680.27 280.796 1676.19 278.073C1672.12 275.349 1668.94 271.478 1667.06 266.949C1665.19 262.42 1664.7 257.436 1665.65 252.628C1666.61 247.82 1668.97 243.404 1672.44 239.938C1675.9 236.471 1680.32 234.111 1685.13 233.154C1689.94 232.198 1694.92 232.689 1699.45 234.565C1703.98 236.441 1707.85 239.618 1710.57 243.694C1713.3 247.77 1714.75 252.562 1714.75 257.464C1714.75 264.038 1712.14 270.342 1707.49 274.99C1702.84 279.639 1696.54 282.25 1689.96 282.25Z" fill="white"/>
<path d="M1689.96 195.5C1655.75 195.5 1628 220.484 1628 251.268C1628 300.839 1689.96 369 1689.96 369C1689.96 369 1751.93 300.839 1751.93 251.268C1751.93 220.484 1724.17 195.5 1689.96 195.5ZM1689.96 282.25C1685.06 282.25 1680.27 280.796 1676.19 278.073C1672.12 275.349 1668.94 271.478 1667.06 266.949C1665.19 262.42 1664.7 257.437 1665.65 252.628C1666.61 247.82 1668.97 243.404 1672.44 239.938C1675.9 236.471 1680.32 234.111 1685.13 233.154C1689.94 232.198 1694.92 232.689 1699.45 234.565C1703.98 236.441 1707.85 239.618 1710.57 243.694C1713.3 247.77 1714.75 252.562 1714.75 257.464C1714.75 264.038 1712.14 270.342 1707.49 274.99C1702.84 279.639 1696.54 282.25 1689.96 282.25Z" fill="url(#paint5_linear_519_2)"/>
</g>
<defs>
<linearGradient id="paint0_linear_519_2" x1="274.02" y1="1006.89" x2="1176.71" y2="308.92" gradientUnits="userSpaceOnUse">
<stop stop-color="#88DEFD"/>
<stop offset="0.284" stop-color="#1C7BAC"/>
<stop offset="0.573" stop-color="#2F4DAC"/>
<stop offset="1" stop-color="#1D46BB"/>
</linearGradient>
<linearGradient id="paint1_linear_519_2" x1="340.024" y1="479.833" x2="728.323" y2="792.33" gradientUnits="userSpaceOnUse">
<stop stop-color="#B8E6FC"/>
<stop offset="0.264" stop-color="#47D9D9"/>
<stop offset="0.657" stop-color="#525AB4"/>
<stop offset="1" stop-color="#08ECFF"/>
</linearGradient>
<linearGradient id="paint2_linear_519_2" x1="630.854" y1="481.781" x2="564.192" y2="503.98" gradientUnits="userSpaceOnUse">
<stop stop-color="#DB25E8" stop-opacity="0"/>
<stop offset="0.134" stop-color="#C525E8" stop-opacity="0.161"/>
<stop offset="0.451" stop-color="#9625E8" stop-opacity="0.518"/>
<stop offset="0.71" stop-color="#7325E8" stop-opacity="0.776"/>
<stop offset="0.9" stop-color="#5E25E8" stop-opacity="0.937"/>
<stop offset="1" stop-color="#5625E8"/>
</linearGradient>
<linearGradient id="paint3_linear_519_2" x1="781.061" y1="703.852" x2="322.333" y2="527.835" gradientUnits="userSpaceOnUse">
<stop stop-color="#8FE68B"/>
<stop offset="0.312" stop-color="#89B6EB"/>
<stop offset="0.451" stop-color="#65B7D5"/>
<stop offset="0.71" stop-color="#4695C7"/>
<stop offset="0.9" stop-color="#325BB7"/>
<stop offset="1" stop-color="#1BB76F"/>
</linearGradient>
<linearGradient id="paint4_linear_519_2" x1="511.141" y1="586.313" x2="649.419" y2="826.726" gradientUnits="userSpaceOnUse">
<stop stop-color="#64AED5" stop-opacity="0.18"/>
<stop offset="0.134" stop-color="#303151" stop-opacity="0.314"/>
<stop offset="0.451" stop-color="#64B7D5" stop-opacity="0.345"/>
<stop offset="0.621" stop-color="#3FC7CC"/>
<stop offset="0.764" stop-color="#2988C3"/>
<stop offset="0.9" stop-color="#1E5DB2"/>
<stop offset="1" stop-color="#2BBABA"/>
</linearGradient>
<linearGradient id="paint5_linear_519_2" x1="1689.96" y1="195.5" x2="1689.96" y2="369" gradientUnits="userSpaceOnUse">
<stop stop-color="#5CDCE0"/>
<stop offset="0.474" stop-color="#46A0C2"/>
<stop offset="0.855" stop-color="#264997"/>
<stop offset="1" stop-color="#133D87"/>
</linearGradient>
<clipPath id="clip0_519_2">
<rect width="3157" height="1233" fill="white"/>
</clipPath>
</defs>
</svg>
