<svg width="1233" height="1233" viewBox="0 0 1233 1233" fill="none" xmlns="http://www.w3.org/2000/svg">
<rect width="1233" height="1233" rx="250" fill="white"/>
<path d="M616.678 156.817L211.768 307.656C211.756 307.851 210.469 328.199 210.757 361.491C210.925 380.93 211.593 400.832 212.744 420.648C214.182 445.414 216.382 470.116 219.283 494.062C226.666 555.014 238.577 611.504 254.686 661.962C259.342 676.547 264.416 690.815 269.767 704.371C275.4 718.638 281.495 732.508 287.883 745.596C294.583 759.319 301.79 772.566 309.304 784.96C316.987 797.663 325.331 809.955 334.302 821.784C351.392 844.25 369.299 866.161 387.524 886.911C404.089 905.774 421.297 924.101 438.66 941.384C466.96 969.66 496.961 996.18 528.494 1020.8C540.424 1030.06 552.405 1038.86 564.105 1046.95C573.465 1053.42 582.666 1059.46 591.454 1064.88C606.423 1074.12 615.099 1078.45 615.185 1078.49C615.266 1078.45 623.925 1074.04 638.977 1064.61C647.775 1059.1 656.98 1052.99 666.341 1046.45C678.034 1038.28 690.003 1029.41 701.907 1020.09C733.278 995.409 763.132 968.861 791.308 940.588C808.541 923.353 825.59 905.111 841.982 886.37C860.012 865.754 877.691 844.025 894.528 821.785C903.388 810.042 911.644 797.855 919.265 785.272C926.735 772.966 933.942 759.8 940.679 746.14C947.103 733.115 953.269 719.298 959.008 705.074C964.461 691.561 969.67 677.325 974.491 662.761C991.17 612.383 1004.04 555.863 1012.73 494.773C1016.14 470.772 1018.91 446.002 1020.96 421.147C1022.6 401.264 1023.79 381.284 1024.49 361.757C1025.67 328.455 1025.02 307.859 1025.02 307.655L616.678 156.817Z" fill="white"/>
<path d="M615.105 1116.5C615.01 1116.45 605.379 1111.81 588.936 1101.94C579.25 1096.12 569.115 1089.64 558.81 1082.69C545.928 1074 532.745 1064.53 519.623 1054.54C484.973 1028.04 452.021 999.388 420.96 968.758C401.919 950.051 383.069 930.193 364.932 909.735C344.983 887.231 325.405 863.443 306.741 839.033C296.947 826.183 287.835 812.827 279.443 799.021C271.237 785.554 263.366 771.163 256.051 756.249C249.076 742.026 242.42 726.954 236.268 711.451C230.422 696.723 224.883 681.22 219.799 665.372C202.21 610.547 189.202 549.167 181.14 482.939C177.973 456.922 175.571 430.084 173.999 403.17C172.743 381.64 172.013 360.014 171.83 338.892C171.519 303.047 172.919 280.618 172.934 280.395L615.105 116.5L1061.02 280.395V280.404C1061.05 281.338 1061.71 303.708 1060.44 339.181C1059.67 360.394 1058.38 382.106 1056.59 403.711C1054.35 430.718 1051.32 457.633 1047.59 483.709C1038.1 550.088 1024.05 611.499 1005.84 666.239C1000.58 682.063 994.886 697.531 988.933 712.215C982.665 727.671 975.931 742.684 968.917 756.836C961.56 771.677 953.693 785.986 945.531 799.355C937.208 813.03 928.192 826.272 918.518 839.029C900.132 863.194 880.85 886.783 861.207 909.141C843.35 929.465 824.794 949.23 806.054 967.886C775.463 998.449 743.047 1027.13 708.984 1053.77C696.078 1063.81 683.113 1073.36 670.446 1082.15C660.313 1089.18 650.347 1095.74 640.827 1101.65C624.641 1111.69 615.198 1116.45 615.105 1116.5H615.105ZM616.678 156.817L211.768 307.656C211.756 307.852 210.469 328.199 210.757 361.491C210.925 380.93 211.593 400.833 212.744 420.648C214.182 445.414 216.382 470.117 219.283 494.062C226.666 555.014 238.577 611.504 254.686 661.963C259.342 676.548 264.416 690.815 269.767 704.371C275.4 718.638 281.495 732.508 287.883 745.596C294.583 759.319 301.79 772.566 309.304 784.96C316.987 797.663 325.331 809.955 334.302 821.784C351.392 844.25 369.299 866.162 387.524 886.911C404.089 905.774 421.297 924.101 438.66 941.384C466.96 969.66 496.961 996.18 528.494 1020.8C540.424 1030.06 552.405 1038.86 564.105 1046.95C573.465 1053.42 582.666 1059.46 591.454 1064.88C606.423 1074.12 615.099 1078.45 615.185 1078.5C615.266 1078.45 623.925 1074.04 638.977 1064.61C647.775 1059.1 656.98 1052.99 666.341 1046.45C678.034 1038.28 690.003 1029.41 701.907 1020.09C733.278 995.409 763.132 968.861 791.308 940.588C808.541 923.353 825.59 905.112 841.982 886.37C860.012 865.754 877.691 844.025 894.528 821.785C903.388 810.042 911.644 797.855 919.265 785.273C926.735 772.966 933.942 759.8 940.679 746.14C947.102 733.116 953.269 719.299 959.008 705.074C964.461 691.561 969.67 677.325 974.491 662.762C991.17 612.383 1004.03 555.863 1012.73 494.773C1016.14 470.773 1018.91 446.002 1020.96 421.147C1022.6 401.265 1023.79 381.284 1024.49 361.758C1025.67 328.455 1025.02 307.86 1025.02 307.655L616.678 156.817Z" fill="url(#paint0_linear_519_57)"/>
<path d="M818.857 618.147C818.857 620.546 818.788 622.913 818.68 625.242C814.341 731.55 727.558 816.953 620.72 819.142C619.307 819.178 617.895 819.214 616.482 819.214C615.069 819.214 613.657 819.179 612.244 819.142C499.095 816.848 408.428 721.134 414.429 606.105C419.939 499.766 508.766 415.136 615.25 414.465C658.626 414.101 700.957 427.773 735.925 453.441C740.855 457.046 744.864 461.766 747.625 467.214C750.386 472.662 751.821 478.685 751.815 484.793V484.828C751.832 489.957 750.82 495.037 748.838 499.768C746.856 504.499 743.945 508.783 740.278 512.368C736.61 515.954 732.26 518.766 727.486 520.64C722.711 522.513 717.609 523.41 712.482 523.276C704.201 523.172 696.152 520.522 689.429 515.685C669.589 501.299 645.919 493.139 621.429 492.242C619.771 492.173 618.145 492.137 616.486 492.137C615.178 492.137 613.906 492.173 612.602 492.205C612.487 492.173 612.364 492.173 612.248 492.205C549.122 494.329 497.783 543.579 492.314 605.755C491.627 613.294 491.627 620.879 492.314 628.418C492.422 629.34 492.491 630.257 492.595 631.175C499.091 688.932 545.801 735.079 603.635 740.87C624.11 743.01 644.795 740.033 663.835 732.207C682.876 724.381 699.675 711.951 712.727 696.032C718.476 689.171 721.636 680.512 721.659 671.562C721.659 650.907 705.065 631.211 681.303 631.211C675.494 631.18 669.749 632.428 664.477 634.869C659.205 637.309 654.536 640.881 650.8 645.33C644.847 652.513 636.79 657.648 627.764 660.01C618.739 662.373 609.2 661.845 600.49 658.501C591.78 655.156 584.339 649.164 579.215 641.368C574.09 633.571 571.541 624.364 571.925 615.042C572.807 592.306 591.449 573.452 614.188 572.285C621.084 571.918 627.97 573.163 634.301 575.921C640.631 578.679 646.232 582.874 650.659 588.174C654.408 592.656 659.096 596.26 664.391 598.731C669.686 601.202 675.46 602.48 681.303 602.473H722.789C733.588 602.473 744.217 598.448 751.525 590.503C754.689 587.087 758.43 584.256 762.577 582.14C768.517 579.136 775.134 577.725 781.782 578.043C802.795 578.992 818.857 597.138 818.857 618.147Z" fill="url(#paint1_linear_519_57)"/>
<path d="M689.429 515.688C669.589 501.302 645.919 493.141 621.429 492.244C654.219 493.149 685.965 503.969 712.482 523.278C704.201 523.175 696.152 520.525 689.429 515.688V515.688Z" fill="url(#paint2_linear_519_57)"/>
<path style="mix-blend-mode:multiply" opacity="0.8" d="M780.024 655.677C780.024 705.905 757.369 750.847 721.068 781.397C692.865 804.989 657.483 818.298 620.724 819.142C619.311 819.178 617.899 819.214 616.486 819.214C615.073 819.214 613.661 819.178 612.248 819.142C523.916 816.917 452.985 744.578 452.985 655.677C452.985 566.776 523.916 494.434 612.248 492.208C540.755 494.611 484.37 557.493 492.596 631.175C499.092 688.932 545.802 735.079 603.635 740.87C624.11 743.009 644.795 740.033 663.835 732.207C682.876 724.381 699.675 711.951 712.728 696.032C718.476 689.171 721.636 680.512 721.659 671.562C721.659 650.907 705.065 631.21 681.303 631.21C675.494 631.179 669.749 632.428 664.477 634.869C659.205 637.309 654.536 640.88 650.8 645.33C644.847 652.513 636.79 657.648 627.765 660.012C618.739 662.375 609.199 661.847 600.489 658.502C591.78 655.158 584.338 649.165 579.214 641.369C574.09 633.572 571.54 624.364 571.925 615.042C572.807 592.306 591.449 573.451 614.188 572.285C621.084 571.918 627.97 573.163 634.301 575.921C640.631 578.679 646.232 582.874 650.659 588.174C654.408 592.656 659.096 596.26 664.391 598.731C669.686 601.202 675.46 602.48 681.303 602.473H722.789C733.589 602.473 744.217 598.448 751.526 590.503C754.689 587.087 758.43 584.256 762.577 582.14C774.082 604.944 780.058 630.135 780.024 655.677Z" fill="url(#paint3_linear_519_57)"/>
<path style="mix-blend-mode:multiply" opacity="0.8" d="M818.857 618.147C818.857 620.546 818.788 622.913 818.68 625.242C814.305 711.639 742.88 780.304 655.392 780.304C568.998 780.304 498.281 713.294 492.313 628.418C492.421 629.34 492.49 630.257 492.595 631.175C499.091 688.932 545.8 735.079 603.635 740.87C624.109 743.01 644.794 740.033 663.835 732.207C682.875 724.381 699.675 711.951 712.727 696.032C718.475 689.171 721.636 680.512 721.659 671.562C721.659 650.908 705.065 631.211 681.302 631.211C675.493 631.18 669.749 632.429 664.477 634.869C659.205 637.309 654.535 640.881 650.8 645.33C644.846 652.513 636.789 657.648 627.764 660.011C618.738 662.373 609.199 661.845 600.489 658.501C591.78 655.157 584.339 649.164 579.214 641.368C574.09 633.571 571.54 624.364 571.925 615.042C572.806 592.306 591.448 573.452 614.187 572.285C621.084 571.917 627.97 573.161 634.302 575.919C640.633 578.677 646.235 582.872 650.662 588.171C654.411 592.654 659.099 596.258 664.394 598.729C669.69 601.2 675.463 602.477 681.307 602.471H722.792C733.592 602.471 744.22 598.446 751.529 590.501C754.692 587.085 758.433 584.254 762.58 582.138C768.52 579.133 775.137 577.721 781.786 578.038C802.794 578.992 818.857 597.138 818.857 618.147Z" fill="url(#paint4_linear_519_57)"/>
<defs>
<linearGradient id="paint0_linear_519_57" x1="394.142" y1="933.5" x2="1127.13" y2="366.746" gradientUnits="userSpaceOnUse">
<stop stop-color="#88DEFD"/>
<stop offset="0.284" stop-color="#1C7BAC"/>
<stop offset="0.573" stop-color="#2F4DAC"/>
<stop offset="1" stop-color="#1D46BB"/>
</linearGradient>
<linearGradient id="paint1_linear_519_57" x1="447.738" y1="505.528" x2="763.036" y2="759.275" gradientUnits="userSpaceOnUse">
<stop stop-color="#B8E6FC"/>
<stop offset="0.264" stop-color="#47D9D9"/>
<stop offset="0.657" stop-color="#525AB4"/>
<stop offset="1" stop-color="#08ECFF"/>
</linearGradient>
<linearGradient id="paint2_linear_519_57" x1="683.891" y1="507.11" x2="629.762" y2="525.135" gradientUnits="userSpaceOnUse">
<stop stop-color="#DB25E8" stop-opacity="0"/>
<stop offset="0.134" stop-color="#C525E8" stop-opacity="0.161"/>
<stop offset="0.451" stop-color="#9625E8" stop-opacity="0.518"/>
<stop offset="0.71" stop-color="#7325E8" stop-opacity="0.776"/>
<stop offset="0.9" stop-color="#5E25E8" stop-opacity="0.937"/>
<stop offset="1" stop-color="#5625E8"/>
</linearGradient>
<linearGradient id="paint3_linear_519_57" x1="805.86" y1="687.431" x2="433.373" y2="544.505" gradientUnits="userSpaceOnUse">
<stop stop-color="#8FE68B"/>
<stop offset="0.312" stop-color="#89B6EB"/>
<stop offset="0.451" stop-color="#65B7D5"/>
<stop offset="0.71" stop-color="#4695C7"/>
<stop offset="0.9" stop-color="#325BB7"/>
<stop offset="1" stop-color="#1BB76F"/>
</linearGradient>
<linearGradient id="paint4_linear_519_57" x1="586.684" y1="591.99" x2="698.966" y2="787.204" gradientUnits="userSpaceOnUse">
<stop stop-color="#64AED5" stop-opacity="0.18"/>
<stop offset="0.134" stop-color="#303151" stop-opacity="0.314"/>
<stop offset="0.451" stop-color="#64B7D5" stop-opacity="0.345"/>
<stop offset="0.621" stop-color="#3FC7CC"/>
<stop offset="0.764" stop-color="#2988C3"/>
<stop offset="0.9" stop-color="#1E5DB2"/>
<stop offset="1" stop-color="#2BBABA"/>
</linearGradient>
</defs>
</svg>
