<?xml version="1.0" encoding="utf-8"?>
<!-- Generator: Adobe Illustrator 26.5.0, SVG Export Plug-In . SVG Version: 6.00 Build 0)  -->
<svg version="1.1" id="OBJECTS" xmlns="http://www.w3.org/2000/svg" xmlns:xlink="http://www.w3.org/1999/xlink" x="0px" y="0px"
	 viewBox="0 0 554.8 1080" style="enable-background:new 0 0 554.8 1080;" xml:space="preserve">
<style type="text/css">
	.st0{fill:url(#SVGID_1_);}
	.st1{fill:url(#SVGID_00000124858976231647052900000011900350282907621787_);}
	.st2{fill:url(#SVGID_00000003074300794298531730000009635009487277646986_);}
	.st3{fill:url(#SVGID_00000126298581556829112990000005858972366407687585_);}
	.st4{opacity:0.5;}
	.st5{fill:url(#SVGID_00000050626231759078173540000003317893848955754137_);}
	.st6{fill:url(#SVGID_00000163053998360909709350000008563832233123563453_);}
	.st7{fill:url(#SVGID_00000159462795454266629320000002330205833697126027_);}
	.st8{fill:url(#SVGID_00000022531636636311682200000008575715141213992639_);}
	
		.st9{fill:url(#SVGID_00000177479291916606296180000002781597030018207393_);stroke:#6B6B6B;stroke-width:0.8108;stroke-miterlimit:10;}
	
		.st10{fill:url(#SVGID_00000128472017736795049540000014358089309066662536_);stroke:#6B6B6B;stroke-width:0.8108;stroke-miterlimit:10;}
	
		.st11{fill:url(#SVGID_00000039821120383852636780000010940666603860439985_);stroke:#6B6B6B;stroke-width:0.8108;stroke-miterlimit:10;}
	
		.st12{fill:url(#SVGID_00000132081193398345678740000012534071590015285133_);stroke:#6B6B6B;stroke-width:0.8108;stroke-miterlimit:10;}
	.st13{fill:url(#SVGID_00000011008656094273414260000017247795119465699980_);}
	.st14{fill:#D6D6D6;}
	.st15{fill:url(#SVGID_00000121278456766098501740000008565815838839836340_);}
	.st16{fill:#F5F5F5;}
	.st17{opacity:0.6;fill:url(#SVGID_00000173856285735165041220000007980934415236740286_);enable-background:new    ;}
	.st18{opacity:0.6;fill:url(#SVGID_00000089538718583162162540000011729793760537208986_);enable-background:new    ;}
	.st19{fill:url(#SVGID_00000000198192692364656920000007145707246060509845_);}
	.st20{display:none;fill:url(#SVGID_00000145055611615994155000000013918289509428512666_);}
	.st21{fill:url(#SVGID_00000122697118723011453870000001070345054214769044_);}
	.st22{display:none;fill:url(#SVGID_00000144309195794824096660000005212186375929861761_);}
	.st23{fill:url(#SVGID_00000054255997292420300030000000287654319644201649_);}
	.st24{fill:url(#SVGID_00000145750506275418474610000013006648292861951110_);}
	.st25{fill:url(#SVGID_00000075855717237675670780000016013482954632975518_);}
	.st26{fill:url(#SVGID_00000040545895317363462960000011540282302336347269_);}
	.st27{fill:url(#SVGID_00000099646267440434401060000008812434658868119729_);}
	.st28{fill:url(#SVGID_00000055703000709654243250000012380666730034959288_);}
	.st29{fill:url(#SVGID_00000078034603968050102970000011438759065702970504_);}
	.st30{fill:url(#SVGID_00000009589019260845148500000009085841700610958013_);}
	.st31{fill:url(#SVGID_00000109742745518698048400000013851054657979562921_);}
</style>
<g>
	<g>
		
			<linearGradient id="SVGID_1_" gradientUnits="userSpaceOnUse" x1="14.7426" y1="933.5837" x2="14.7426" y2="882.9082" gradientTransform="matrix(1 0 0 -1 0 1080)">
			<stop  offset="0" style="stop-color:#B4B5B6"/>
			<stop  offset="4.487954e-02" style="stop-color:#B8B9BA"/>
			<stop  offset="9.290413e-02" style="stop-color:#C5C6C7"/>
			<stop  offset="0.1422" style="stop-color:#DADBDC"/>
			<stop  offset="0.1668" style="stop-color:#E8E8E9"/>
			<stop  offset="0.2387" style="stop-color:#EAEAEB"/>
			<stop  offset="0.2561" style="stop-color:#EDEDEE"/>
			<stop  offset="0.2786" style="stop-color:#EBEBEC"/>
			<stop  offset="0.2868" style="stop-color:#E4E5E6"/>
			<stop  offset="0.2926" style="stop-color:#D9D9DB"/>
			<stop  offset="0.2972" style="stop-color:#C8C9CB"/>
			<stop  offset="0.2996" style="stop-color:#BCBEC0"/>
			<stop  offset="0.4993" style="stop-color:#929394"/>
			<stop  offset="0.5554" style="stop-color:#858687"/>
			<stop  offset="0.6067" style="stop-color:#898A8B"/>
			<stop  offset="0.6597" style="stop-color:#969697"/>
			<stop  offset="0.7135" style="stop-color:#AAABAC"/>
			<stop  offset="0.7675" style="stop-color:#C7C7C8"/>
			<stop  offset="0.8084" style="stop-color:#E2E2E3"/>
			<stop  offset="0.8107" style="stop-color:#E5E5E6"/>
			<stop  offset="0.8251" style="stop-color:#F2F2F2"/>
			<stop  offset="0.8436" style="stop-color:#FAFAFA"/>
			<stop  offset="0.8804" style="stop-color:#FCFCFC"/>
			<stop  offset="0.8893" style="stop-color:#EDEEEE"/>
			<stop  offset="0.9047" style="stop-color:#DBDCDC"/>
			<stop  offset="0.9231" style="stop-color:#CFCFD0"/>
			<stop  offset="0.9473" style="stop-color:#C7C8C9"/>
			<stop  offset="1" style="stop-color:#C5C6C7"/>
		</linearGradient>
		<path class="st0" d="M22.1,190.5c0,4.8-3.4,8.8-7.4,8.8l0,0c-4,0-7.4-4-7.4-8.8V152c0-4.8,3.4-8.8,7.4-8.8l0,0c4,0,7.4,4,7.4,8.8
			V190.5z"/>
		
			<linearGradient id="SVGID_00000060024366427085713800000005173119275168958352_" gradientUnits="userSpaceOnUse" x1="22.9435" y1="820.2085" x2="22.9435" y2="726.8095" gradientTransform="matrix(1 0 0 -1 0 1080)">
			<stop  offset="0" style="stop-color:#B4B5B6"/>
			<stop  offset="4.487954e-02" style="stop-color:#B8B9BA"/>
			<stop  offset="9.290413e-02" style="stop-color:#C5C6C7"/>
			<stop  offset="0.1422" style="stop-color:#DADBDC"/>
			<stop  offset="0.1668" style="stop-color:#E8E8E9"/>
			<stop  offset="0.2387" style="stop-color:#EAEAEB"/>
			<stop  offset="0.2561" style="stop-color:#EDEDEE"/>
			<stop  offset="0.2786" style="stop-color:#EBEBEC"/>
			<stop  offset="0.2868" style="stop-color:#E4E5E6"/>
			<stop  offset="0.2926" style="stop-color:#D9D9DB"/>
			<stop  offset="0.2972" style="stop-color:#C8C9CB"/>
			<stop  offset="0.2996" style="stop-color:#BCBEC0"/>
			<stop  offset="0.4993" style="stop-color:#929394"/>
			<stop  offset="0.5554" style="stop-color:#858687"/>
			<stop  offset="0.6067" style="stop-color:#898A8B"/>
			<stop  offset="0.6597" style="stop-color:#969697"/>
			<stop  offset="0.7135" style="stop-color:#AAABAC"/>
			<stop  offset="0.7675" style="stop-color:#C7C7C8"/>
			<stop  offset="0.8084" style="stop-color:#E2E2E3"/>
			<stop  offset="0.8107" style="stop-color:#E5E5E6"/>
			<stop  offset="0.8251" style="stop-color:#F2F2F2"/>
			<stop  offset="0.8436" style="stop-color:#FAFAFA"/>
			<stop  offset="0.8804" style="stop-color:#FCFCFC"/>
			<stop  offset="0.8893" style="stop-color:#EDEEEE"/>
			<stop  offset="0.9047" style="stop-color:#DBDCDC"/>
			<stop  offset="0.9231" style="stop-color:#CFCFD0"/>
			<stop  offset="0.9473" style="stop-color:#C7C8C9"/>
			<stop  offset="1" style="stop-color:#C5C6C7"/>
		</linearGradient>
		<path style="fill:url(#SVGID_00000060024366427085713800000005173119275168958352_);" d="M37.7,339.8c0,9.7-6.5,17.5-14.7,17.5
			l0,0c-8,0-14.7-7.8-14.7-17.5v-67.9c0-9.7,6.5-17.5,14.7-17.5l0,0c8,0,14.7,7.8,14.7,17.5V339.8z"/>
		
			<linearGradient id="SVGID_00000144316705130830843200000005752737696753085603_" gradientUnits="userSpaceOnUse" x1="22.9435" y1="704.4201" x2="22.9435" y2="611.0266" gradientTransform="matrix(1 0 0 -1 0 1080)">
			<stop  offset="0" style="stop-color:#B4B5B6"/>
			<stop  offset="4.487954e-02" style="stop-color:#B8B9BA"/>
			<stop  offset="9.290413e-02" style="stop-color:#C5C6C7"/>
			<stop  offset="0.1422" style="stop-color:#DADBDC"/>
			<stop  offset="0.1668" style="stop-color:#E8E8E9"/>
			<stop  offset="0.2387" style="stop-color:#EAEAEB"/>
			<stop  offset="0.2561" style="stop-color:#EDEDEE"/>
			<stop  offset="0.2786" style="stop-color:#EBEBEC"/>
			<stop  offset="0.2868" style="stop-color:#E4E5E6"/>
			<stop  offset="0.2926" style="stop-color:#D9D9DB"/>
			<stop  offset="0.2972" style="stop-color:#C8C9CB"/>
			<stop  offset="0.2996" style="stop-color:#BCBEC0"/>
			<stop  offset="0.4993" style="stop-color:#929394"/>
			<stop  offset="0.5554" style="stop-color:#858687"/>
			<stop  offset="0.6067" style="stop-color:#898A8B"/>
			<stop  offset="0.6597" style="stop-color:#969697"/>
			<stop  offset="0.7135" style="stop-color:#AAABAC"/>
			<stop  offset="0.7675" style="stop-color:#C7C7C8"/>
			<stop  offset="0.8084" style="stop-color:#E2E2E3"/>
			<stop  offset="0.8107" style="stop-color:#E5E5E6"/>
			<stop  offset="0.8251" style="stop-color:#F2F2F2"/>
			<stop  offset="0.8436" style="stop-color:#FAFAFA"/>
			<stop  offset="0.8804" style="stop-color:#FCFCFC"/>
			<stop  offset="0.8893" style="stop-color:#EDEEEE"/>
			<stop  offset="0.9047" style="stop-color:#DBDCDC"/>
			<stop  offset="0.9231" style="stop-color:#CFCFD0"/>
			<stop  offset="0.9473" style="stop-color:#C7C8C9"/>
			<stop  offset="1" style="stop-color:#C5C6C7"/>
		</linearGradient>
		<path style="fill:url(#SVGID_00000144316705130830843200000005752737696753085603_);" d="M37.7,455.5c0,9.7-6.5,17.5-14.7,17.5
			l0,0c-8,0-14.7-7.8-14.7-17.5v-67.9c0-9.7,6.5-17.5,14.7-17.5l0,0c8,0,14.7,7.8,14.7,17.5V455.5z"/>
		
			<linearGradient id="SVGID_00000085972961242270415220000004695266291911875473_" gradientUnits="userSpaceOnUse" x1="532.4529" y1="820.4812" x2="532.4529" y2="727.0864" gradientTransform="matrix(1 0 0 -1 0 1080)">
			<stop  offset="0" style="stop-color:#B4B5B6"/>
			<stop  offset="4.487954e-02" style="stop-color:#B8B9BA"/>
			<stop  offset="9.290413e-02" style="stop-color:#C5C6C7"/>
			<stop  offset="0.1422" style="stop-color:#DADBDC"/>
			<stop  offset="0.1668" style="stop-color:#E8E8E9"/>
			<stop  offset="0.2387" style="stop-color:#EAEAEB"/>
			<stop  offset="0.2561" style="stop-color:#EDEDEE"/>
			<stop  offset="0.2786" style="stop-color:#EBEBEC"/>
			<stop  offset="0.2868" style="stop-color:#E4E5E6"/>
			<stop  offset="0.2926" style="stop-color:#D9D9DB"/>
			<stop  offset="0.2972" style="stop-color:#C8C9CB"/>
			<stop  offset="0.2996" style="stop-color:#BCBEC0"/>
			<stop  offset="0.4993" style="stop-color:#929394"/>
			<stop  offset="0.5554" style="stop-color:#858687"/>
			<stop  offset="0.6067" style="stop-color:#898A8B"/>
			<stop  offset="0.6597" style="stop-color:#969697"/>
			<stop  offset="0.7135" style="stop-color:#AAABAC"/>
			<stop  offset="0.7675" style="stop-color:#C7C7C8"/>
			<stop  offset="0.8084" style="stop-color:#E2E2E3"/>
			<stop  offset="0.8107" style="stop-color:#E5E5E6"/>
			<stop  offset="0.8251" style="stop-color:#F2F2F2"/>
			<stop  offset="0.8436" style="stop-color:#FAFAFA"/>
			<stop  offset="0.8804" style="stop-color:#FCFCFC"/>
			<stop  offset="0.8893" style="stop-color:#EDEEEE"/>
			<stop  offset="0.9047" style="stop-color:#DBDCDC"/>
			<stop  offset="0.9231" style="stop-color:#CFCFD0"/>
			<stop  offset="0.9473" style="stop-color:#C7C8C9"/>
			<stop  offset="1" style="stop-color:#C5C6C7"/>
		</linearGradient>
		<path style="fill:url(#SVGID_00000085972961242270415220000004695266291911875473_);" d="M547.2,339.4c0,9.7-6.5,17.5-14.7,17.5
			l0,0c-8,0-14.7-7.8-14.7-17.5v-67.9c0-9.7,6.5-17.5,14.7-17.5l0,0c8,0,14.7,7.8,14.7,17.5V339.4z"/>
	</g>
	<g class="st4">
		
			<linearGradient id="SVGID_00000055702502290743816750000012436703679868614795_" gradientUnits="userSpaceOnUse" x1="21.3008" y1="133.9486" x2="31.2187" y2="133.9486" gradientTransform="matrix(1 0 0 -1 0 1080)">
			<stop  offset="0" style="stop-color:#D8D8D8"/>
			<stop  offset="0.2062" style="stop-color:#E1E1E1;stop-opacity:0.7938"/>
			<stop  offset="1" style="stop-color:#FFFFFF;stop-opacity:0"/>
		</linearGradient>
		
			<rect x="21.3" y="937.9" style="fill:url(#SVGID_00000055702502290743816750000012436703679868614795_);" width="9.9" height="16.4"/>
		
			<linearGradient id="SVGID_00000168099506357827000900000015933705071571408318_" gradientUnits="userSpaceOnUse" x1="21.3008" y1="978.8552" x2="31.2187" y2="978.8552" gradientTransform="matrix(1 0 0 -1 0 1080)">
			<stop  offset="0" style="stop-color:#D8D8D8"/>
			<stop  offset="0.2062" style="stop-color:#E1E1E1;stop-opacity:0.7938"/>
			<stop  offset="1" style="stop-color:#FFFFFF;stop-opacity:0"/>
		</linearGradient>
		
			<rect x="21.3" y="92.9" style="fill:url(#SVGID_00000168099506357827000900000015933705071571408318_);" width="9.9" height="16.4"/>
		
			<linearGradient id="SVGID_00000115506016358381385830000006185716104705796486_" gradientUnits="userSpaceOnUse" x1="1515.4822" y1="133.9486" x2="1525.3868" y2="133.9486" gradientTransform="matrix(-1 0 0 -1 2048.8958 1080)">
			<stop  offset="0" style="stop-color:#D8D8D8"/>
			<stop  offset="0.2062" style="stop-color:#E1E1E1;stop-opacity:0.7938"/>
			<stop  offset="1" style="stop-color:#FFFFFF;stop-opacity:0"/>
		</linearGradient>
		
			<rect x="523.4" y="937.9" style="fill:url(#SVGID_00000115506016358381385830000006185716104705796486_);" width="9.9" height="16.4"/>
		
			<linearGradient id="SVGID_00000037684712305486269620000005227741893324689038_" gradientUnits="userSpaceOnUse" x1="1515.4822" y1="978.8552" x2="1525.3868" y2="978.8552" gradientTransform="matrix(-1 0 0 -1 2048.8958 1080)">
			<stop  offset="0" style="stop-color:#D8D8D8"/>
			<stop  offset="0.2062" style="stop-color:#E1E1E1;stop-opacity:0.7938"/>
			<stop  offset="1" style="stop-color:#FFFFFF;stop-opacity:0"/>
		</linearGradient>
		
			<rect x="523.4" y="92.9" style="fill:url(#SVGID_00000037684712305486269620000005227741893324689038_);" width="9.9" height="16.4"/>
	</g>
	<g>
		
			<linearGradient id="SVGID_00000107579229164467824150000008713839871487620795_" gradientUnits="userSpaceOnUse" x1="11.1678" y1="925.2978" x2="11.1678" y2="875.6113" gradientTransform="matrix(1 0 0 -1 0 1080)">
			<stop  offset="0" style="stop-color:#E5E2DF"/>
			<stop  offset="0" style="stop-color:#DED9D6"/>
			<stop  offset="6.363179e-02" style="stop-color:#CFCBC9"/>
			<stop  offset="0.1851" style="stop-color:#A8A7A6"/>
			<stop  offset="0.264" style="stop-color:#8C8C8C"/>
			<stop  offset="0.3978" style="stop-color:#B7B7B7"/>
			<stop  offset="0.5096" style="stop-color:#D5D5D5"/>
			<stop  offset="0.573" style="stop-color:#E0E0E0"/>
			<stop  offset="0.632" style="stop-color:#D6D7D8"/>
			<stop  offset="0.7314" style="stop-color:#BCBFC2"/>
			<stop  offset="0.8582" style="stop-color:#92989E"/>
			<stop  offset="0.8764" style="stop-color:#8B9298"/>
			<stop  offset="1" style="stop-color:#D1D3D4"/>
			<stop  offset="1" style="stop-color:#A7A9AC"/>
		</linearGradient>
		
			<path style="fill:url(#SVGID_00000107579229164467824150000008713839871487620795_);stroke:#6B6B6B;stroke-width:0.8108;stroke-miterlimit:10;" d="
			M18.5,197.9c0,4.8-3.4,8.6-7.4,8.6l0,0c-4.2,0-7.4-3.8-7.4-8.6v-37.6c0-4.8,3.4-8.6,7.4-8.6l0,0c4.2,0,7.4,3.8,7.4,8.6V197.9z"/>
		
			<linearGradient id="SVGID_00000025425671132307116620000007895859986270612874_" gradientUnits="userSpaceOnUse" x1="19.3688" y1="814.1324" x2="19.3688" y2="722.5562" gradientTransform="matrix(1 0 0 -1 0 1080)">
			<stop  offset="0" style="stop-color:#E5E2DF"/>
			<stop  offset="0" style="stop-color:#DED9D6"/>
			<stop  offset="6.363179e-02" style="stop-color:#CFCBC9"/>
			<stop  offset="0.1851" style="stop-color:#A8A7A6"/>
			<stop  offset="0.264" style="stop-color:#8C8C8C"/>
			<stop  offset="0.3978" style="stop-color:#B7B7B7"/>
			<stop  offset="0.5096" style="stop-color:#D5D5D5"/>
			<stop  offset="0.573" style="stop-color:#E0E0E0"/>
			<stop  offset="0.632" style="stop-color:#D6D7D8"/>
			<stop  offset="0.7314" style="stop-color:#BCBFC2"/>
			<stop  offset="0.8582" style="stop-color:#92989E"/>
			<stop  offset="0.8764" style="stop-color:#8B9298"/>
			<stop  offset="1" style="stop-color:#D1D3D4"/>
			<stop  offset="1" style="stop-color:#A7A9AC"/>
		</linearGradient>
		
			<path style="fill:url(#SVGID_00000025425671132307116620000007895859986270612874_);stroke:#6B6B6B;stroke-width:0.8108;stroke-miterlimit:10;" d="
			M34.3,344.2c0,9.5-6.7,17.2-14.9,17.2l0,0c-8.2,0-14.9-7.8-14.9-17.2v-66.7c0-9.5,6.7-17.2,14.9-17.2l0,0
			c8.2,0,14.9,7.8,14.9,17.2V344.2z"/>
		
			<linearGradient id="SVGID_00000005250741099966457670000016221630455630930339_" gradientUnits="userSpaceOnUse" x1="19.3688" y1="700.6006" x2="19.3688" y2="609.0287" gradientTransform="matrix(1 0 0 -1 0 1080)">
			<stop  offset="0" style="stop-color:#E5E2DF"/>
			<stop  offset="0" style="stop-color:#DED9D6"/>
			<stop  offset="6.363179e-02" style="stop-color:#CFCBC9"/>
			<stop  offset="0.1851" style="stop-color:#A8A7A6"/>
			<stop  offset="0.264" style="stop-color:#8C8C8C"/>
			<stop  offset="0.3978" style="stop-color:#B7B7B7"/>
			<stop  offset="0.5096" style="stop-color:#D5D5D5"/>
			<stop  offset="0.573" style="stop-color:#E0E0E0"/>
			<stop  offset="0.632" style="stop-color:#D6D7D8"/>
			<stop  offset="0.7314" style="stop-color:#BCBFC2"/>
			<stop  offset="0.8582" style="stop-color:#92989E"/>
			<stop  offset="0.8764" style="stop-color:#8B9298"/>
			<stop  offset="1" style="stop-color:#D1D3D4"/>
			<stop  offset="1" style="stop-color:#A7A9AC"/>
		</linearGradient>
		
			<path style="fill:url(#SVGID_00000005250741099966457670000016221630455630930339_);stroke:#6B6B6B;stroke-width:0.8108;stroke-miterlimit:10;" d="
			M34.3,457.8c0,9.5-6.7,17.2-14.9,17.2l0,0c-8.2,0-14.9-7.8-14.9-17.2v-66.7c0-9.5,6.7-17.2,14.9-17.2l0,0
			c8.2,0,14.9,7.8,14.9,17.2V457.8z"/>
		
			<linearGradient id="SVGID_00000004521677478444050710000017561826860059371960_" gradientUnits="userSpaceOnUse" x1="536.0276" y1="836.1829" x2="536.0276" y2="708.4871" gradientTransform="matrix(1 0 0 -1 0 1080)">
			<stop  offset="0" style="stop-color:#E5E2DF"/>
			<stop  offset="0" style="stop-color:#DED9D6"/>
			<stop  offset="6.363179e-02" style="stop-color:#CFCBC9"/>
			<stop  offset="0.1851" style="stop-color:#A8A7A6"/>
			<stop  offset="0.264" style="stop-color:#8C8C8C"/>
			<stop  offset="0.3978" style="stop-color:#B7B7B7"/>
			<stop  offset="0.5096" style="stop-color:#D5D5D5"/>
			<stop  offset="0.573" style="stop-color:#E0E0E0"/>
			<stop  offset="0.632" style="stop-color:#D6D7D8"/>
			<stop  offset="0.7314" style="stop-color:#BCBFC2"/>
			<stop  offset="0.8582" style="stop-color:#92989E"/>
			<stop  offset="0.8764" style="stop-color:#8B9298"/>
			<stop  offset="1" style="stop-color:#D1D3D4"/>
			<stop  offset="1" style="stop-color:#A7A9AC"/>
		</linearGradient>
		
			<path style="fill:url(#SVGID_00000004521677478444050710000017561826860059371960_);stroke:#6B6B6B;stroke-width:0.8108;stroke-miterlimit:10;" d="
			M551,353.1c0,13.2-6.7,24-14.9,24l0,0c-8.2,0-14.9-10.7-14.9-24v-92.9c0-13.2,6.7-24,14.9-24l0,0c8.2,0,14.9,10.7,14.9,24V353.1z"
			/>
	</g>
	<g>
		
			<linearGradient id="SVGID_00000080187848697248978330000000564881505497255612_" gradientUnits="userSpaceOnUse" x1="7.5931" y1="539.9999" x2="546.9623" y2="539.9999" gradientTransform="matrix(1 0 0 -1 0 1080)">
			<stop  offset="0" style="stop-color:#FCFCFC"/>
			<stop  offset="0" style="stop-color:#FBFBFB"/>
			<stop  offset="0.264" style="stop-color:#EEEEEE"/>
			<stop  offset="0.5225" style="stop-color:#FEFEFE"/>
			<stop  offset="0.8229" style="stop-color:#EFEFEF"/>
			<stop  offset="0.8764" style="stop-color:#ECECEC"/>
			<stop  offset="1" style="stop-color:#F9F9F9"/>
			<stop  offset="1" style="stop-color:#F3F3F3"/>
		</linearGradient>
		<path style="fill:url(#SVGID_00000080187848697248978330000000564881505497255612_);" d="M100.5,1079.2
			c-51.3,0-92.9-40.8-92.9-90.8V91.7c0-50,41.8-90.8,92.9-90.8H454c51.3,0,92.9,40.8,92.9,90.8v896.6c0,50-41.6,90.8-92.9,90.8
			L100.5,1079.2L100.5,1079.2z"/>
		<path class="st14" d="M454,1.7c50.9,0,92.1,40.4,92.1,90v896.6c0,49.6-41.2,90-92.1,90H100.5c-50.9,0-92.1-40.4-92.1-90V91.7
			c0-49.6,41.4-90,92.1-90H454 M454,0H100.5C48.8,0,6.8,41.2,6.8,91.7v896.6c0,50.5,42.1,91.7,93.8,91.7H454
			c51.7,0,93.8-41.2,93.8-91.7V91.7C547.8,41.2,505.7,0,454,0L454,0z"/>
	</g>
	<g>
		
			<linearGradient id="SVGID_00000104695381464612483960000014378003565855102867_" gradientUnits="userSpaceOnUse" x1="14.322" y1="539.9999" x2="540.4436" y2="539.9999" gradientTransform="matrix(1 0 0 -1 0 1080)">
			<stop  offset="0" style="stop-color:#DADADA"/>
			<stop  offset="0.3403" style="stop-color:#DBDBDB"/>
			<stop  offset="0.6577" style="stop-color:#DBDBDB"/>
			<stop  offset="1" style="stop-color:#DADADA"/>
		</linearGradient>
		<path style="fill:url(#SVGID_00000104695381464612483960000014378003565855102867_);" d="M540.4,982c0,49-40.4,88.7-90.2,88.7
			H104.5c-49.8,0-90.2-39.7-90.2-88.7V98c0-49,40.4-88.7,90.2-88.7h345.7c49.8,0,90.2,39.7,90.2,88.7V982z"/>
	</g>
	<path class="st16" d="M537.1,978.6c0,48.8-40,88.1-88.9,88.1H106.6c-49.2,0-88.9-39.5-88.9-88.1V100.7c0-48.8,40-88.1,88.9-88.1
		h341.5c49.2,0,88.9,39.5,88.9,88.1V978.6z"/>
	<g>
		
			<linearGradient id="SVGID_00000047054523875788468840000005256675498212328108_" gradientUnits="userSpaceOnUse" x1="18.8853" y1="540.7359" x2="44.5978" y2="540.7359" gradientTransform="matrix(1 0 0 -1 0 1080)">
			<stop  offset="0" style="stop-color:#B2B2B2"/>
			<stop  offset="0" style="stop-color:#DADADA"/>
			<stop  offset="0.1236" style="stop-color:#8C878A"/>
			<stop  offset="0.2867" style="stop-color:#C5C2C4"/>
			<stop  offset="0.4122" style="stop-color:#EAE9EA"/>
			<stop  offset="0.4775" style="stop-color:#F8F8F8"/>
			<stop  offset="0.736" style="stop-color:#989398"/>
			<stop  offset="0.811" style="stop-color:#B2ADB0"/>
			<stop  offset="0.9351" style="stop-color:#D8D4D3"/>
			<stop  offset="1" style="stop-color:#E7E3E0"/>
			<stop  offset="1" style="stop-color:#EEEBE9"/>
		</linearGradient>
		<path style="opacity:0.6;fill:url(#SVGID_00000047054523875788468840000005256675498212328108_);enable-background:new    ;" d="
			M39.3,1023.9c-1.5-2.7-2.7-5.9-4-9c-2.3-6.3-3.8-12.8-4.6-19.6c0,0,0-0.4-0.2-1.1c-0.2-0.6-0.4-1.5-0.6-2.7c0-0.4-0.2-0.8-0.2-1.3
			c-0.6-2.7-1.1-5.7-1.5-8.8c-0.2-1.5-0.4-3.2-0.6-4.8c-0.2-1.7-0.2-3.4-0.4-5c-0.4-3.4-0.2-6.9-0.4-10.7c-0.2-15.1,0-32.4,0-51.1
			c0-20,0-41.8,0-65.2c0,0,0-0.4,0-1.3c0-63.1,0-135.6,0-208.2c0-199.8,0-399.5,0-399.5l0,0c0-26.7,0-51.9,0-74.9
			c0-9.5,0-18.5,0-27.3c0-4.4,0-8.6,0-12.6c0.2-4,0-7.8,0.4-11.6c0.2-1.9,0.2-3.6,0.4-5.5c0.2-1.9,0.4-3.6,0.6-5.3
			c0.2-1.7,0.4-3.4,0.6-5c0.2-1.3,0.4-2.7,0.6-4c0.2-0.6,0.2-1.5,0.4-2.1c0.6-2.3,0.8-3.8,0.8-3.8c0.8-6.5,2.1-13,4.2-19.1
			s4.8-12,9-16.8c-2.5,1.7-4.8,4-6.7,6.5c-1.1,1.3-2.1,2.5-2.9,4c-0.8,1.5-1.9,2.7-2.7,4.2c-3.6,5.9-6.3,12.6-8.4,19.6
			c0,0,0,0.4-0.2,1.1s-0.4,1.7-0.6,2.9c0,0.4-0.2,0.8-0.2,1.3c-0.6,3.2-1.3,6.3-1.5,9.7c-0.2,1.7-0.4,3.4-0.6,5.3
			c-0.2,1.7-0.2,3.6-0.4,5.5c-0.4,3.6-0.4,7.6-0.4,11.4c-0.2,15.4,0,32.4,0,51.1c0,20,0,41.8,0,65.2c0,0.4,0,0.8,0,1.3
			c0,63.1,0,135.6,0,208.2c0,199.8,0,399.5,0,399.5l0,0c0,26.7,0,51.9,0,74.9c0,9.5,0,18.5,0,27.3c0,4.4,0,8.4,0,12.6
			c0.2,4.2,0,8.4,0.4,12.4c0.2,1.9,0.2,4,0.4,5.9s0.4,3.8,0.6,5.7c0.2,1.9,0.4,3.8,0.8,5.5c0.2,1.5,0.6,2.9,0.8,4.4
			c0.2,0.8,0.2,1.5,0.4,2.1c0.6,2.7,1.1,4.2,1.1,4.2c2.3,6.5,5.3,12.8,8.8,18.5c3.6,5.5,7.6,10.5,12.4,13.5
			C42.5,1029.5,40.8,1026.8,39.3,1023.9z"/>
		
			<linearGradient id="SVGID_00000128463739983371858310000004149029125236081316_" gradientUnits="userSpaceOnUse" x1="982.0469" y1="540.7359" x2="1007.7523" y2="540.7359" gradientTransform="matrix(-1 0 0 -1 1517.8821 1080)">
			<stop  offset="0" style="stop-color:#B2B2B2"/>
			<stop  offset="0" style="stop-color:#DADADA"/>
			<stop  offset="0.1236" style="stop-color:#8C878A"/>
			<stop  offset="0.2867" style="stop-color:#C5C2C4"/>
			<stop  offset="0.4122" style="stop-color:#EAE9EA"/>
			<stop  offset="0.4775" style="stop-color:#F8F8F8"/>
			<stop  offset="0.736" style="stop-color:#989398"/>
			<stop  offset="0.811" style="stop-color:#B2ADB0"/>
			<stop  offset="0.9351" style="stop-color:#D8D4D3"/>
			<stop  offset="1" style="stop-color:#E7E3E0"/>
			<stop  offset="1" style="stop-color:#EEEBE9"/>
		</linearGradient>
		<path style="opacity:0.6;fill:url(#SVGID_00000128463739983371858310000004149029125236081316_);enable-background:new    ;" d="
			M515.4,1023.9c1.5-2.7,2.7-5.9,4-9c2.3-6.3,3.8-12.8,4.6-19.6c0,0,0-0.4,0.2-1.1c0.2-0.6,0.4-1.5,0.6-2.7c0-0.4,0.2-0.8,0.2-1.3
			c0.6-2.7,1.1-5.7,1.5-8.8c0.2-1.5,0.4-3.2,0.6-4.8c0.2-1.7,0.2-3.4,0.4-5c0.4-3.4,0.2-6.9,0.4-10.7c0.2-15.1,0-32.4,0-51.1
			c0-20,0-41.8,0-65.2c0,0,0-0.4,0-1.3c0-63.1,0-135.6,0-208.2c0-199.8,0-399.5,0-399.5l0,0c0-26.7,0-51.9,0-74.9
			c0-9.5,0-18.5,0-27.3c0-4.4,0-8.6,0-12.6c-0.2-4,0-7.8-0.4-11.6c-0.2-1.9-0.2-3.6-0.4-5.5c-0.2-1.9-0.4-3.6-0.6-5.3
			c-0.2-1.7-0.4-3.4-0.6-5c-0.2-1.3-0.4-2.7-0.6-4c-0.2-0.6-0.2-1.5-0.4-2.1c-0.6-2.3-0.8-3.8-0.8-3.8c-0.8-6.5-2.1-13-4.2-19.1
			c-2.1-6.1-4.8-12-9-16.8c2.5,1.7,4.8,4,6.9,6.5c1.1,1.3,1.9,2.5,2.9,4c0.8,1.5,1.9,2.7,2.7,4.2c3.6,5.9,6.3,12.6,8.4,19.6
			c0,0,0,0.4,0.2,1.1c0.2,0.6,0.4,1.7,0.6,2.9c0,0.4,0.2,0.8,0.2,1.3c0.6,3.2,1.3,6.3,1.5,9.7c0.2,1.7,0.4,3.4,0.6,5.3
			c0.2,1.7,0.2,3.6,0.4,5.5c0.4,3.6,0.4,7.6,0.4,11.4c0.2,15.4,0,32.4,0,51.1c0,20,0,41.8,0,65.2c0,0.4,0,0.8,0,1.3
			c0,63.1,0,135.6,0,208.2c0,199.8,0,399.5,0,399.5l0,0c0,26.7,0,51.9,0,74.9c0,9.5,0,18.5,0,27.3c0,4.4,0,8.4,0,12.6
			c-0.2,4.2,0,8.4-0.4,12.4c-0.2,1.9-0.2,4-0.4,5.9c-0.2,1.9-0.4,3.8-0.6,5.7c-0.2,1.9-0.4,3.8-0.8,5.5c-0.2,1.5-0.4,2.9-0.8,4.4
			c-0.2,0.8-0.2,1.5-0.4,2.1c-0.6,2.7-1.1,4.2-1.1,4.2c-2.3,6.5-5.3,12.8-8.8,18.5c-3.6,5.5-7.6,10.5-12.4,13.5
			C512.3,1029.5,513.9,1026.8,515.4,1023.9z"/>
	</g>
	<g class="st4">
		
			<linearGradient id="SVGID_00000068678614763609497300000007297119403333841329_" gradientUnits="userSpaceOnUse" x1="59.322" y1="1056.0281" x2="495.2332" y2="1056.0281" gradientTransform="matrix(1 0 0 -1 0 1080)">
			<stop  offset="0" style="stop-color:#C8C8C8"/>
			<stop  offset="0" style="stop-color:#C7C7C7"/>
			<stop  offset="0.264" style="stop-color:#BDBDBD"/>
			<stop  offset="0.5225" style="stop-color:#C9C9C9"/>
			<stop  offset="0.8764" style="stop-color:#BCBCBC"/>
			<stop  offset="1" style="stop-color:#C6C6C6"/>
			<stop  offset="1" style="stop-color:#C1C1C1"/>
		</linearGradient>
		<path style="fill:url(#SVGID_00000068678614763609497300000007297119403333841329_);" d="M493.8,32.6c-1.3-1.3-3.4-2.9-6.3-4.6
			c-2.9-1.5-6.9-3.2-11.4-4.4c-4.6-1.5-9.7-2.5-15.6-3.6c-5.7-1.1-12-1.9-18.5-2.5c-3.4-0.4-6.7-0.6-10.3-0.8
			c-3.6-0.2-7.1-0.4-10.7-0.6c-7.4-0.4-14.7-0.4-22.3-0.6c-7.6-0.2-15.4-0.2-22.9-0.4c-61.6-1.1-123.4-2.1-123.4-2.1
			s-49.2,1.9-98.4,2.9c-6.1,0.2-12.2,0.4-18.3,0.6c-6.1,0.2-12,0.6-17.9,1.1c-5.7,0.6-11.4,1.1-16.6,1.9C95.9,20,90.9,21,86.4,21.9
			c-4.6,1.1-8.6,2.1-12.2,3.4c-3.6,1.3-6.5,2.7-8.8,4c-2.3,1.5-4,2.7-4.8,4c-0.8,1.1-1.3,1.9-1.3,1.9s0.2-0.8,1.3-1.9
			c1.1-1.1,2.7-2.3,5-3.6c2.3-1.3,5.5-2.5,9-3.6c3.6-1.1,7.6-2.1,12.2-2.7c4.4-0.8,9.5-1.5,14.7-1.9c5-0.6,10.7-0.8,16.4-1.1
			s11.6-0.2,17.7-0.2c6.1,0.2,12.2,0.4,18.3,0.4c49.2,1.3,98.4,2.5,98.4,2.5S314,22.1,375.8,21c15.4-0.2,30.7-0.4,45.2-0.6
			c3.6,0,7.1,0,10.5,0s6.9,0,10.1,0.2c6.5,0.2,12.8,0.8,18.5,1.5c5.7,0.6,10.9,1.5,15.4,2.7c4.6,1.1,8.4,2.5,11.6,3.8
			C490.2,30.1,492.3,31.5,493.8,32.6c1.3,1.3,1.5,2.3,1.5,2.3S495,34.1,493.8,32.6z"/>
		
			<linearGradient id="SVGID_00000029727670846927280000000008196331422472610203_" gradientUnits="userSpaceOnUse" x1="58.0604" y1="1056.2383" x2="496.9155" y2="1056.2383" gradientTransform="matrix(1 0 0 -1 0 1080)">
			<stop  offset="0" style="stop-color:#C8C8C8"/>
			<stop  offset="0" style="stop-color:#C7C7C7"/>
			<stop  offset="0.264" style="stop-color:#BDBDBD"/>
			<stop  offset="0.5225" style="stop-color:#C9C9C9"/>
			<stop  offset="0.8764" style="stop-color:#BCBCBC"/>
			<stop  offset="1" style="stop-color:#C6C6C6"/>
			<stop  offset="1" style="stop-color:#C1C1C1"/>
		</linearGradient>
		<path style="display:none;fill:url(#SVGID_00000029727670846927280000000008196331422472610203_);" d="M61,35.5l-2.9-1.1
			c0-0.2,0.4-1.1,1.5-2.5c1.1-1.3,2.7-2.7,5.3-4.2c2.7-1.7,5.9-2.9,9.3-4.2c3.4-1.3,7.6-2.3,12.4-3.6c5.3-1.1,10.1-2.1,14.9-2.5
			c4.4-0.6,9-1.1,13.9-1.5l4.6-0.4c5.3-0.4,10.5-0.8,16-0.8c5-0.2,10.3-0.4,15.8-0.4l100.7-2.5l147,2.5c7.6,0.2,14.7,0.2,21.9,0.6
			c3.2,0,6.7,0.2,10.7,0.6l2.1,0.2c2.7,0.2,5.5,0.4,8.2,0.6c6.5,0.6,12.8,1.5,18.7,2.5c6.5,1.3,11.6,2.3,15.6,3.6
			c4,1.1,7.8,2.5,11.6,4.4s5.9,3.8,6.9,4.8c1.5,1.5,1.9,2.7,1.9,2.9l-3.2,1.1c0,0-0.2-0.6-1.3-1.7c-0.8-0.8-2.7-2.3-6.1-3.8
			c-3.8-1.7-7.4-2.7-11.1-3.6c-4-1.1-8.8-1.9-15.4-2.7c-5.9-0.6-12-1.3-18.3-1.5c-2.5-0.2-5.3-0.2-8-0.2h-2.1c-3.4,0-6.9-0.2-10.5,0
			l-168.6,2.5l-100.5-2.5c-5.5-0.2-10.7-0.2-16-0.2c-5.5-0.2-10.7,0-15.8,0l-4.4,0.2c-4.8,0.2-9.3,0.4-13.7,0.8
			c-4.6,0.4-9.5,1.1-14.5,1.9c-4.6,0.8-8.6,1.7-12,2.7c-3.2,0.8-6.1,2.1-8.6,3.4c-2.1,1.1-3.8,2.3-4.6,3.2
			C61.2,35.1,61,35.5,61,35.5z M130.6,18.7c1.7,0,3.6,0,5.3,0c5.3,0,10.7,0.2,16,0.2l100.5,2.5l168.4-2.7c3.6,0,7.1,0,10.7,0h1.9
			l-1.9-0.2c-4-0.2-7.4-0.4-10.5-0.6c-7.1-0.4-14.1-0.4-21.7-0.6l-23.6-0.4l-123.4-2.1l-100.7,2.7c-5.3,0.2-10.7,0.2-16,0.4
			c-4.8,0.2-9.7,0.4-14.5,0.8C124.3,18.7,127.5,18.7,130.6,18.7z"/>
	</g>
	<g class="st4">
		
			<linearGradient id="SVGID_00000103949628471501214070000001322510945376904074_" gradientUnits="userSpaceOnUse" x1="850.999" y1="-322.2362" x2="1286.9103" y2="-322.2362" gradientTransform="matrix(-1 0 0 1 1346.4426 1376.582)">
			<stop  offset="0" style="stop-color:#C8C8C8"/>
			<stop  offset="0" style="stop-color:#C7C7C7"/>
			<stop  offset="0.264" style="stop-color:#BDBDBD"/>
			<stop  offset="0.5225" style="stop-color:#C9C9C9"/>
			<stop  offset="0.8764" style="stop-color:#BCBCBC"/>
			<stop  offset="1" style="stop-color:#C6C6C6"/>
			<stop  offset="1" style="stop-color:#C1C1C1"/>
		</linearGradient>
		<path style="fill:url(#SVGID_00000103949628471501214070000001322510945376904074_);" d="M61,1045.7c1.3,1.3,3.4,2.9,6.3,4.6
			c2.9,1.5,6.9,3.2,11.4,4.4c4.4,1.5,9.7,2.5,15.6,3.6c5.7,1.1,12,1.9,18.5,2.3c3.4,0.4,6.7,0.6,10.3,0.8c3.6,0.2,7.1,0.4,10.7,0.6
			c7.4,0.4,14.7,0.4,22.3,0.6c7.6,0.2,15.4,0.2,22.9,0.4c61.6,1.1,123.4,2.1,123.4,2.1s49.2-1.3,98.4-2.5c6.1-0.2,12.2-0.2,18.3-0.6
			c6.1-0.2,12-0.6,17.9-1.1c5.7-0.6,11.4-1.1,16.6-1.9c5.3-0.6,10.3-1.7,14.7-2.5c4.4-1.1,8.6-2.1,12.2-3.4s6.5-2.7,8.8-4
			c2.3-1.5,4-2.7,4.8-4c0.8-1.1,1.3-1.9,1.3-1.9s-0.2,0.8-1.3,1.9c-0.8,1.1-2.7,2.3-5,3.6c-2.3,1.3-5.5,2.5-9,3.6s-7.6,2.1-12.2,2.7
			c-4.4,0.8-9.5,1.5-14.7,1.9c-5.3,0.6-10.7,0.6-16.4,1.1c-5.7,0.2-11.6,0.2-17.7,0.2c-6.1,0-12.2-0.2-18.3-0.4
			c-49.2-1.3-98.4-2.5-98.4-2.5s-61.6,1.1-123.4,2.1c-15.4,0.2-30.9,0.4-45.2,0.6c-3.6,0-7.1,0-10.5,0c-3.6,0-6.9,0-10.1-0.2
			c-6.5-0.2-12.8-0.8-18.5-1.5s-10.9-1.5-15.4-2.7c-4.6-1.1-8.4-2.5-11.6-3.8C64.6,1048.5,62.5,1047,61,1045.7
			c-1.3-1.3-1.5-2.3-1.5-2.3S59.7,1044.5,61,1045.7z"/>
		
			<linearGradient id="SVGID_00000076605294845054460690000000993816808271705746_" gradientUnits="userSpaceOnUse" x1="849.5271" y1="-321.8155" x2="1288.5925" y2="-321.8155" gradientTransform="matrix(-1 0 0 1 1346.4426 1376.582)">
			<stop  offset="0" style="stop-color:#C8C8C8"/>
			<stop  offset="0" style="stop-color:#C7C7C7"/>
			<stop  offset="0.264" style="stop-color:#BDBDBD"/>
			<stop  offset="0.5225" style="stop-color:#C9C9C9"/>
			<stop  offset="0.8764" style="stop-color:#BCBCBC"/>
			<stop  offset="1" style="stop-color:#C6C6C6"/>
			<stop  offset="1" style="stop-color:#C1C1C1"/>
		</linearGradient>
		<path style="display:none;fill:url(#SVGID_00000076605294845054460690000000993816808271705746_);" d="M493.8,1043l3.2,1.1
			c0,0.2-0.4,1.1-1.5,2.5c-1.1,1.3-2.7,2.7-5.3,4.2c-2.7,1.7-5.9,2.9-9.3,4.2c-3.4,1.3-7.6,2.3-12.4,3.6c-5.3,1.1-10.1,2.1-14.9,2.5
			c-4.4,0.6-9,1.1-13.9,1.5l-4.6,0.4c-5.3,0.4-10.5,0.6-16,0.8c-5.3,0.2-10.7,0.4-16,0.4l-100.7,2.5l-147-2.5
			c-7.6-0.2-14.7-0.2-21.9-0.6c-3.2,0-6.7-0.2-10.7-0.6l-2.1-0.2c-2.7-0.2-5.5-0.4-8.2-0.6c-6.5-0.6-12.8-1.5-18.7-2.5
			c-6.5-1.3-11.6-2.3-15.6-3.6c-4-1.1-7.8-2.5-11.6-4.4c-3.8-1.9-5.9-3.8-6.9-4.8c-1.5-1.5-1.9-2.7-1.9-2.9l3.2-1.1
			c0,0,0.2,0.6,1.3,1.7c0.8,0.8,2.7,2.3,6.1,3.8c3.8,1.7,7.4,2.7,11.1,3.6c4,1.1,8.8,1.9,15.4,2.7c5.9,0.6,12,1.3,18.3,1.5
			c2.5,0.2,5.3,0.2,8,0.2h2.1c3.4,0,6.9,0.2,10.5,0l168.6-2.7l100.7,2.5c5.5,0.2,10.7,0.2,16,0.2c5.5,0.2,10.7,0,15.8,0l4.4-0.2
			c4.8-0.2,9.3-0.4,13.7-0.8c4.6-0.4,9.5-1.1,14.5-1.9c4.6-0.8,8.6-1.7,12-2.7c3.2-0.8,6.1-2.1,8.6-3.4c2.1-1.1,3.8-2.3,4.6-3.2
			C493.6,1043.4,493.8,1043,493.8,1043z M424.2,1059.8c-1.7,0-3.6,0-5.3,0c-5.3,0-10.7-0.2-16-0.2l-100.5-2.5l-168.4,2.7
			c-3.6,0-7.1,0-10.7,0h-1.9l1.9,0.2c4,0.2,7.4,0.4,10.5,0.6c7.1,0.4,14.1,0.4,21.7,0.6l23.6,0.4l123.4,2.1l100.7-2.5
			c5.3-0.2,10.7-0.2,16-0.4c4.8-0.2,9.7-0.4,14.5-0.8C430.5,1059.8,427.3,1059.8,424.2,1059.8z"/>
	</g>
	<g class="st4">
		
			<linearGradient id="SVGID_00000001624854888960600200000012898741005696241080_" gradientUnits="userSpaceOnUse" x1="8.5122" y1="141.2033" x2="18.9217" y2="141.2033" gradientTransform="matrix(1 0 0 -1 0 1080)">
			<stop  offset="0" style="stop-color:#0E0E0E"/>
			<stop  offset="3.303945e-02" style="stop-color:#171717;stop-opacity:0.967"/>
			<stop  offset="0.5171" style="stop-color:#929292;stop-opacity:0.4829"/>
			<stop  offset="0.8486" style="stop-color:#E0E0E0;stop-opacity:0.1514"/>
			<stop  offset="1" style="stop-color:#FFFFFF;stop-opacity:0"/>
		</linearGradient>
		
			<rect x="8.4" y="930.7" style="fill:url(#SVGID_00000001624854888960600200000012898741005696241080_);" width="10.5" height="16.2"/>
		
			<linearGradient id="SVGID_00000111871079413160911060000009540424009827165056_" gradientUnits="userSpaceOnUse" x1="8.5122" y1="969.7079" x2="18.9217" y2="969.7079" gradientTransform="matrix(1 0 0 -1 0 1080)">
			<stop  offset="0" style="stop-color:#0E0E0E"/>
			<stop  offset="3.303945e-02" style="stop-color:#171717;stop-opacity:0.967"/>
			<stop  offset="0.5171" style="stop-color:#929292;stop-opacity:0.4829"/>
			<stop  offset="0.8486" style="stop-color:#E0E0E0;stop-opacity:0.1514"/>
			<stop  offset="1" style="stop-color:#FFFFFF;stop-opacity:0"/>
		</linearGradient>
		
			<rect x="8.4" y="102.2" style="fill:url(#SVGID_00000111871079413160911060000009540424009827165056_);" width="10.5" height="16.2"/>
		
			<linearGradient id="SVGID_00000072247202294232808600000017401027253143585674_" gradientUnits="userSpaceOnUse" x1="1502.6836" y1="141.2033" x2="1513.0929" y2="141.2033" gradientTransform="matrix(-1 0 0 -1 2048.8958 1080)">
			<stop  offset="0" style="stop-color:#0E0E0E"/>
			<stop  offset="3.303945e-02" style="stop-color:#171717;stop-opacity:0.967"/>
			<stop  offset="0.5171" style="stop-color:#929292;stop-opacity:0.4829"/>
			<stop  offset="0.8486" style="stop-color:#E0E0E0;stop-opacity:0.1514"/>
			<stop  offset="1" style="stop-color:#FFFFFF;stop-opacity:0"/>
		</linearGradient>
		
			<rect x="535.8" y="930.7" style="fill:url(#SVGID_00000072247202294232808600000017401027253143585674_);" width="10.5" height="16.2"/>
		
			<linearGradient id="SVGID_00000078006715743729629730000013332329702541846966_" gradientUnits="userSpaceOnUse" x1="1502.6836" y1="969.7079" x2="1513.0929" y2="969.7079" gradientTransform="matrix(-1 0 0 -1 2048.8958 1080)">
			<stop  offset="0" style="stop-color:#0E0E0E"/>
			<stop  offset="3.303945e-02" style="stop-color:#171717;stop-opacity:0.967"/>
			<stop  offset="0.5171" style="stop-color:#929292;stop-opacity:0.4829"/>
			<stop  offset="0.8486" style="stop-color:#E0E0E0;stop-opacity:0.1514"/>
			<stop  offset="1" style="stop-color:#FFFFFF;stop-opacity:0"/>
		</linearGradient>
		
			<rect x="535.8" y="102.2" style="fill:url(#SVGID_00000078006715743729629730000013332329702541846966_);" width="10.5" height="16.2"/>
	</g>
	<g>
		<g>
			
				<radialGradient id="SVGID_00000060021596621373073680000003952652342365600700_" cx="309.1582" cy="795.3264" r="5.8523" gradientTransform="matrix(1.555 0 0 -1.555 -147.2874 1277.5692)" gradientUnits="userSpaceOnUse">
				<stop  offset="0" style="stop-color:#363636"/>
				<stop  offset="1" style="stop-color:#000100"/>
			</radialGradient>
			<path style="fill:url(#SVGID_00000060021596621373073680000003952652342365600700_);" d="M342.6,40.8c0,5-4,9-9,9c-5,0-9-4-9-9
				s4-9,9-9C338.6,31.8,342.6,35.7,342.6,40.8z"/>
			
				<radialGradient id="SVGID_00000078759192917161671880000007946306803147167136_" cx="309.1561" cy="795.3274" r="4.7037" gradientTransform="matrix(1.555 0 0 -1.555 -147.2874 1277.5692)" gradientUnits="userSpaceOnUse">
				<stop  offset="0" style="stop-color:#124492"/>
				<stop  offset="0.1285" style="stop-color:#11418B"/>
				<stop  offset="0.3146" style="stop-color:#0F3878"/>
				<stop  offset="0.5355" style="stop-color:#0B2A58"/>
				<stop  offset="0.7811" style="stop-color:#06162D"/>
				<stop  offset="1" style="stop-color:#000100"/>
			</radialGradient>
			<path style="fill:url(#SVGID_00000078759192917161671880000007946306803147167136_);" d="M340.7,40.8c0,4-3.4,7.4-7.4,7.4
				c-4,0-7.4-3.4-7.4-7.4s3.4-7.4,7.4-7.4C337.5,33.4,340.7,36.8,340.7,40.8z"/>
		</g>
		<g>
			
				<linearGradient id="SVGID_00000018930209718233090230000011375381872280278194_" gradientUnits="userSpaceOnUse" x1="263.8197" y1="1044.6891" x2="263.8197" y2="1036.4413" gradientTransform="matrix(1 0 0 -1 0 1080)">
				<stop  offset="0" style="stop-color:#0A0909"/>
				<stop  offset="1" style="stop-color:#231F20"/>
			</linearGradient>
			<path style="fill:url(#SVGID_00000018930209718233090230000011375381872280278194_);" d="M308.5,39.3c0,2.5-2.1,4.6-4.6,4.6
				h-80.1c-2.5,0-4.6-2.1-4.6-4.6l0,0c0-2.5,2.1-4.6,4.6-4.6h80.1C306.4,34.9,308.5,36.8,308.5,39.3L308.5,39.3z"/>
			
				<linearGradient id="SVGID_00000044156776478880816340000009599151776362165668_" gradientUnits="userSpaceOnUse" x1="263.8197" y1="1043.6139" x2="263.8197" y2="1037.5532" gradientTransform="matrix(1 0 0 -1 0 1080)">
				<stop  offset="0" style="stop-color:#313333"/>
				<stop  offset="0.3403" style="stop-color:#1F1F1E"/>
				<stop  offset="0.6577" style="stop-color:#1F1F1E"/>
				<stop  offset="1" style="stop-color:#313333"/>
			</linearGradient>
			<path style="fill:url(#SVGID_00000044156776478880816340000009599151776362165668_);" d="M307.5,39.3c0,1.9-1.9,3.4-4.4,3.4
				h-78.4c-2.5,0-4.4-1.5-4.4-3.4l0,0c0-1.9,2.1-3.4,4.4-3.4H303C305.6,36,307.5,37.4,307.5,39.3L307.5,39.3z"/>
		</g>
	</g>
</g>
<linearGradient id="SVGID_00000155825962881989855740000002892603553746025377_" gradientUnits="userSpaceOnUse" x1="34.7192" y1="539.7871" x2="519.8369" y2="539.7871">
	<stop  offset="0" style="stop-color:#FFFFFF"/>
	<stop  offset="1" style="stop-color:#000000"/>
</linearGradient>
<path style="fill:url(#SVGID_00000155825962881989855740000002892603553746025377_);" d="M436.8,30.1h-30.9l0,0c0,0-6.1-0.2-7.8,6.3
	l0,0c-2.3,8.2-7.8,21.7-20,21.7H277.2H176.2c-12.2,0-17.7-13.2-20-21.7l0,0c-1.7-6.7-7.8-6.3-7.8-6.3l0,0h-30.7
	c-45.8,0-83.1,37.6-83.1,83.9v851.6c0,46.3,37.2,83.9,83.1,83.9h319c45.8,0,83.1-37.6,83.1-83.9V114C520,67.5,482.8,30.1,436.8,30.1
	z"/>
</svg>
