<svg width="80" height="80" viewBox="0 0 80 80" fill="none" xmlns="http://www.w3.org/2000/svg">
<path d="M70.7121 34.2859H45.7124C43.439 34.2859 41.2587 33.3828 39.6512 31.7753C38.0437 30.1678 37.1406 27.9875 37.1406 25.7141V0.71324C37.1406 0.524077 37.0655 0.342662 36.9317 0.208903C36.7979 0.0751446 36.6165 0 36.4274 0H19.9971C16.9661 0 14.0593 1.20404 11.9161 3.34725C9.77289 5.49046 8.56885 8.39728 8.56885 11.4282V68.5718C8.56885 71.6027 9.77289 74.5095 11.9161 76.6528C14.0593 78.796 16.9661 80 19.9971 80H59.9971C61.4983 80.0008 62.9851 79.7057 64.3723 79.1318C65.7595 78.5578 67.02 77.7161 68.0819 76.6548C69.1437 75.5935 69.986 74.3334 70.5607 72.9465C71.1354 71.5596 71.4312 70.073 71.4312 68.5718V34.9991C71.4312 34.81 71.356 34.6285 71.2223 34.4948C71.0885 34.361 70.9071 34.2859 70.7179 34.2859H70.7121Z" fill="#264BB4"/>
<path d="M69.1425 27.9616L43.4635 2.2873C43.4133 2.23821 43.3499 2.20494 43.281 2.19159C43.2121 2.17825 43.1408 2.18544 43.0759 2.21225C43.0111 2.23907 42.9555 2.28433 42.9161 2.34244C42.8768 2.40054 42.8553 2.46892 42.8545 2.5391V25.7106C42.8545 26.4685 43.1556 27.1954 43.6915 27.7313C44.2274 28.2672 44.9542 28.5683 45.7121 28.5683H68.8919C68.962 28.5674 69.0304 28.546 69.0885 28.5066C69.1466 28.4673 69.1919 28.4117 69.2187 28.3468C69.2455 28.282 69.2527 28.2107 69.2394 28.1418C69.226 28.0729 69.1927 28.0094 69.1437 27.9593L69.1425 27.9616Z" fill="#264BB4"/>
</svg>
