<svg width="80" height="80" viewBox="0 0 80 80" fill="none" xmlns="http://www.w3.org/2000/svg">
<path d="M75.2996 22.5H4.70039C3.45377 22.5 2.25821 22.9952 1.37671 23.8767C0.495219 24.7582 0 25.9538 0 27.2004V72.8C0 74.0466 0.495219 75.2422 1.37671 76.1237C2.25821 77.0052 3.45377 77.5004 4.70039 77.5004H75.2996C76.5462 77.5004 77.7418 77.0052 78.6233 76.1237C79.5048 75.2422 80 74.0466 80 72.8V27.2004C80 25.9538 79.5048 24.7582 78.6233 23.8767C77.7418 22.9952 76.5462 22.5 75.2996 22.5V22.5ZM55.4473 52.0748L31.0252 62.9754C30.6449 63.1462 30.2279 63.2193 29.8122 63.1878C29.3965 63.1564 28.9953 63.0215 28.645 62.7954C28.2947 62.5693 28.0065 62.2592 27.8067 61.8933C27.6069 61.5274 27.5017 61.1173 27.5008 60.7004V38.9003C27.5017 38.4834 27.6069 38.0734 27.8067 37.7075C28.0065 37.3416 28.2947 37.0315 28.645 36.8054C28.9953 36.5793 29.3965 36.4444 29.8122 36.4129C30.2279 36.3815 30.6449 36.4545 31.0252 36.6253L55.4506 47.4952C55.8942 47.6908 56.2715 48.0112 56.5363 48.4174C56.8011 48.8235 56.9421 49.2979 56.9421 49.7828C56.9421 50.2677 56.8011 50.7421 56.5363 51.1483C56.2715 51.5544 55.8942 51.8748 55.4506 52.0704L55.4473 52.0748Z" fill="#264BB4"/>
<path d="M70.3511 4.99958C70.3511 4.33652 70.0877 3.70062 69.6189 3.23176C69.15 2.76291 68.5141 2.49951 67.8511 2.49951H12.8507C12.1876 2.49951 11.5517 2.76291 11.0828 3.23176C10.614 3.70062 10.3506 4.33652 10.3506 4.99958V7.49965H70.3511V4.99958Z" fill="#264BB4"/>
<path d="M75.2995 14.9998C75.2995 14.3373 75.0366 13.7019 74.5684 13.2332C74.1003 12.7644 73.4652 12.5006 72.8028 12.4998H7.80317C7.47458 12.4993 7.14912 12.5637 6.84542 12.6891C6.54172 12.8146 6.26572 12.9986 6.03322 13.2308C5.80072 13.463 5.61627 13.7388 5.49043 14.0423C5.36458 14.3459 5.2998 14.6712 5.2998 14.9998V17.4999H75.2995V14.9998Z" fill="#264BB4"/>
</svg>
