<?xml version="1.0" encoding="utf-8"?>
<!-- Generator: Adobe Illustrator 26.5.0, SVG Export Plug-In . SVG Version: 6.00 Build 0)  -->
<svg version="1.1" id="Layer_1" xmlns="http://www.w3.org/2000/svg" xmlns:xlink="http://www.w3.org/1999/xlink" x="0px" y="0px"
	 viewBox="0 0 512 512" style="enable-background:new 0 0 512 512;" xml:space="preserve">
<style type="text/css">
	.st0{opacity:0.5;fill:#852DEE;}
	.st1{fill:#852DEE;}
	.st2{fill:#F5F0FA;}
</style>
<path id="shadow" class="st0" d="M439.6,320.4c28.3,16.4,28.5,42.9,0.3,59.2l-132.2,76.8c-28.2,16.4-74,16.4-102.3,0L72.4,379.6
	C44,363.2,43.9,336.7,72,320.4l132.2-76.8c28.2-16.4,74-16.4,102.3,0L439.6,320.4z"/>
<g id="icon-base" transform="translate(68.631 0)">
	<path id="Path_41699" class="st1" d="M417,283.5l-165,95.9c-35.2,20.5-92.3,20.5-127.7,0l-166.1-95.9
		c-17.8-10.3-26.7-23.7-26.7-37.2v19.1c0,13.5,8.9,26.9,26.7,37.2l166.1,95.9c35.4,20.5,92.5,20.5,127.7,0l165-95.9
		c17.5-10.2,26.2-23.4,26.3-36.8l0.1-19.1C443.2,260,434.5,273.4,417,283.5z"/>
	<path id="Path_41700" class="st2" d="M416.5,209.5c35.4,20.5,35.6,53.5,0.4,74l-165,95.9c-35.2,20.5-92.3,20.5-127.7,0l-166.1-95.9
		c-35.4-20.5-35.6-53.5-0.4-74l165-95.9c35.2-20.5,92.3-20.5,127.7,0L416.5,209.5z"/>
</g>
<g id="icon-number">
	<path class="st1" d="M69.6,64.5c3.3,5.8,4.9,14.2,4.9,25.2c0,10.9-1.6,21.2-4.8,30.8c-3.2,9.6-7.6,18-13.2,25.3
		c-5.6,7.3-12,13-19.2,17.1c-7.1,4.1-13.5,5.8-19.1,5c-5.6-0.8-10.1-4.1-13.3-10C1.7,152,0,143.6,0,132.6c0-10.9,1.6-21.2,4.8-30.8
		c3.2-9.6,7.6-18,13.2-25.3c5.6-7.3,12-13,19.1-17.1c7.2-4.2,13.6-5.8,19.2-5S66.3,58.6,69.6,64.5z M52.1,121
		c1.4-5.6,2.1-12.1,2.1-19.7c0-7.5-0.8-13.2-2.2-17.1c-1.5-3.9-3.5-6.2-6-7c-2.5-0.7-5.5-0.1-8.9,1.8c-3.3,1.9-6.2,4.7-8.7,8.3
		c-2.5,3.7-4.5,8.3-5.9,13.9c-1.4,5.6-2.1,12.1-2.1,19.7c0,7.5,0.8,13.2,2.2,17.1c1.5,3.9,3.5,6.2,6,7c2.5,0.7,5.4,0.1,8.8-1.8
		c3.4-2,6.3-4.8,8.9-8.4C48.7,131.2,50.7,126.6,52.1,121"/>
	<path class="st1" d="M143.1,0l0,15l-19.5,36.8c6.4-2.5,11.5-3,15.3-1.3c5.5,2.4,8.2,7.9,8.3,16.5c0,5.6-1.3,11.6-3.8,18
		c-2.6,6.4-6.5,12.6-11.8,18.7c-5.3,6.1-12.1,11.5-20.3,16.3c-6,3.5-12,6-18,7.6c-6,1.6-11,1.9-15.2,0.8l7.8-22.2
		c3.3,0.8,7.2,0.8,11.6-0.1c4.4-0.9,8.8-2.7,13.3-5.2c5.1-2.9,9-6.4,11.9-10.3c2.9-4,4.3-7.9,4.3-11.9c0-3.8-1.3-6.1-3.9-6.8
		c-2.6-0.7-6.7,0.6-12.4,3.9l-9.2,5.3l0-15.3l17.8-33.6l-37,21.3l-0.1-18.5L143.1,0z"/>
</g>
<g id="category-icon_00000052082213508367843770000002421379366661452964_">
	<g>
		<g>
			<path class="st1" d="M324.9,216.3c10.4-3.2,23.7-2.3,32.5,2.8c10.7,6.2,10.7,16.4-0.1,22.6c-10.8,6.2-28.3,6.2-39,0
				c-8.7-5.1-10.3-12.8-4.7-18.8l-11.6-6.8l-38.6,22.3l11.6,6.8c10.4-3.2,23.7-2.3,32.5,2.8c10.7,6.2,10.7,16.4-0.1,22.6
				c-10.8,6.2-28.3,6.2-39,0c-8.7-5.1-10.3-12.8-4.7-18.8l-11.6-6.8l-38.6,22.3L225,274c10.4-3.2,23.7-2.3,32.5,2.8
				c10.7,6.2,10.7,16.4-0.1,22.6c-10.8,6.2-28.3,6.2-39,0c-8.7-5.1-10.3-12.8-4.7-18.8l-11.7-6.8c-6.2-3.6-6.1-9.4,0.1-13l38.7-22.4
				l-10.8-6.3l-5.4,3.1c-4.7,2.7-12.2,2.7-16.9,0l-22.1-12.8c-4.6-2.7-4.6-7.1,0.1-9.8l22.2-12.8c4.7-2.7,12.2-2.7,16.9,0l22.1,12.8
				c4.6,2.7,4.6,7.1-0.1,9.8l-5.4,3.1l10.8,6.3l38.7-22.4c6.2-3.6,16.2-3.6,22.4,0L324.9,216.3z M246.1,283.3
				c-4.5-2.6-11.8-2.6-16.4,0c-4.5,2.6-4.5,6.9-0.1,9.5c4.5,2.6,11.8,2.6,16.4,0C250.6,290.2,250.6,285.9,246.1,283.3 M346,235.1
				c4.5-2.6,4.6-6.9,0.1-9.5c-4.5-2.6-11.8-2.6-16.4,0c-4.5,2.6-4.5,6.9-0.1,9.5C334.1,237.7,341.5,237.7,346,235.1 M296.1,254.5
				c-4.5-2.6-11.8-2.6-16.4,0c-4.5,2.6-4.5,6.9-0.1,9.5c4.5,2.6,11.8,2.6,16.4,0C300.6,261.3,300.6,257.1,296.1,254.5 M216.1,227
				l16.4-9.5l-16.3-9.5l-16.4,9.5L216.1,227"/>
		</g>
	</g>
</g>
</svg>
