<?xml version="1.0" encoding="utf-8"?>
<!-- Generator: Adobe Illustrator 26.5.0, SVG Export Plug-In . SVG Version: 6.00 Build 0)  -->
<svg version="1.1" id="Layer_1" xmlns="http://www.w3.org/2000/svg" xmlns:xlink="http://www.w3.org/1999/xlink" x="0px" y="0px"
	 viewBox="0 0 512 512" style="enable-background:new 0 0 512 512;" xml:space="preserve">
<style type="text/css">
	.st0{opacity:0.7;}
	.st1{fill:#852DEE;}
	.st2{fill:#F5F0FA;}
	.st3{fill:#6723B8;}
</style>
<g id="categories" transform="translate(0.49 50.584)">
	<g id="shadow_00000059311054769726034130000013662997408258502307_" class="st0">
		
			<image style="overflow:visible;" width="397" height="261" xlink:href="CF2113E2.png"  transform="matrix(1 0 0 1 72.0745 165.6785)">
		</image>
	</g>
	<g id="icon-base" transform="translate(68.631 0)">
		<path id="Path_41699" class="st1" d="M418.1,208.1l-155.7,90.5c-33.2,19.3-87.1,19.3-120.5,0l-156.7-90.5
			c-16.8-9.7-25.2-22.4-25.2-35.1l0,18c0,12.7,8.4,25.4,25.2,35.1l156.7,90.5c33.4,19.3,87.3,19.3,120.5,0l155.7-90.5
			c16.5-9.6,24.7-22.1,24.8-34.7l0.1-18C442.8,186,434.6,198.6,418.1,208.1z"/>
		<path id="Path_41700" class="st2" d="M417.7,138.3c33.4,19.3,33.6,50.5,0.4,69.8l-155.7,90.5c-33.2,19.3-87.1,19.3-120.5,0
			l-156.7-90.5c-33.4-19.3-33.6-50.5-0.4-69.8l155.7-90.5c33.2-19.3,87.1-19.3,120.5,0L417.7,138.3z"/>
	</g>
	<path id="category-icon" class="st1" d="M311.8,146.1l-14.8-9.8c-1-0.6-2.1-1.1-3.2-1.5c-1.1-0.3-2.3-0.5-3.5-0.6
		c-1.1,0-2.3,0.1-3.4,0.4c-1,0.2-2,0.7-2.8,1.3l-24,17.4l-14.2-9.6l6.1-4.3c0.8-0.5,1.4-1.2,1.8-2.1c0.4-0.7,0.5-1.6,0.4-2.4
		c-0.1-0.9-0.4-1.7-0.9-2.4c-0.6-0.9-1.4-1.6-2.2-2.2l-20.8-13.9c-1-0.6-2-1.1-3.1-1.5c-1.1-0.3-2.3-0.5-3.5-0.6
		c-1.1,0-2.3,0.1-3.4,0.3c-1,0.2-2,0.7-2.9,1.3l-18.6,12.7c-0.8,0.5-1.4,1.2-1.9,2c-0.4,0.7-0.6,1.6-0.5,2.4
		c0.1,0.9,0.4,1.7,0.8,2.4c0.6,0.9,1.3,1.6,2.2,2.2l21,14.4c1,0.7,2.1,1.2,3.2,1.5c1.2,0.4,2.4,0.6,3.6,0.6c1.2,0,2.4-0.1,3.5-0.4
		c1.1-0.3,2.1-0.7,3-1.3l6.2-4.4l14.2,9.7l-25,18.2c-0.8,0.6-1.5,1.3-1.9,2.2c-0.4,0.8-0.6,1.7-0.5,2.6c0.1,0.9,0.4,1.8,0.9,2.6
		c0.6,0.9,1.4,1.7,2.3,2.3l15.1,10.6c-1,1.4-1.7,3-2,4.8c-0.2,1.7,0,3.4,0.6,5c0.7,1.8,1.7,3.4,2.9,4.8c1.5,1.6,3.2,3,5.2,4
		c2.1,1.2,4.3,2,6.6,2.6c2.3,0.5,4.6,0.8,7,0.7c2.2,0,4.5-0.4,6.6-1.1c2-0.6,3.9-1.6,5.5-2.8c1.5-1.1,2.7-2.6,3.5-4.2
		c0.7-1.5,1.1-3.2,1-4.8c-0.1-1.7-0.6-3.4-1.4-5c-1-1.8-2.2-3.3-3.8-4.6c-1.7-1.4-3.6-2.6-5.6-3.5c-4.2-1.8-8.8-2.6-13.4-2.2
		c-2.2,0.2-4.4,0.7-6.4,1.6L236.2,181l25-18.3l15,10.2c-1,1.3-1.6,2.9-1.8,4.6c-0.2,1.6,0.1,3.3,0.7,4.8c0.7,1.7,1.7,3.3,3,4.6
		c1.5,1.6,3.2,2.9,5.1,3.9c2.1,1.1,4.2,1.9,6.5,2.5c2.2,0.5,4.5,0.8,6.8,0.7c2.2,0,4.3-0.4,6.4-1c1.9-0.6,3.7-1.5,5.3-2.7
		c1.4-1.1,2.5-2.4,3.3-4c0.7-1.4,1-3,0.9-4.6c-0.1-1.7-0.6-3.3-1.5-4.8c-1-1.7-2.3-3.2-3.8-4.4c-1.7-1.4-3.6-2.5-5.6-3.4
		c-2.1-0.9-4.2-1.5-6.4-1.9c-2.2-0.4-4.4-0.4-6.7-0.2c-2.1,0.2-4.2,0.7-6.2,1.5l-15-10.1l23.9-17.5l14.9,9.8
		c-0.9,1.3-1.5,2.8-1.6,4.4c-0.1,1.6,0.1,3.2,0.8,4.6c0.7,1.7,1.7,3.2,3,4.4c1.5,1.5,3.2,2.8,5.1,3.7c2,1.1,4.2,1.9,6.4,2.4
		c2.2,0.5,4.4,0.8,6.7,0.7c2.1,0,4.2-0.3,6.2-0.9c1.9-0.5,3.6-1.4,5.1-2.6c1.3-1,2.4-2.3,3.1-3.9c0.6-1.4,0.9-2.9,0.8-4.5
		c-0.2-1.6-0.7-3.2-1.5-4.6c-1-1.6-2.3-3.1-3.8-4.3c-1.7-1.3-3.5-2.4-5.5-3.3c-2-0.9-4.1-1.5-6.3-1.8c-2.1-0.4-4.3-0.4-6.5-0.3
		C315.8,144.9,313.8,145.4,311.8,146.1L311.8,146.1z M205.5,133.4l18.6-12.7l20.8,14l-18.5,13L205.5,133.4z M268.6,199
		c0.9,0.6,1.8,1.4,2.4,2.4c0.5,0.8,0.9,1.7,1,2.7c0.1,0.9,0,1.8-0.4,2.6c-0.4,0.9-1.1,1.7-1.9,2.3c-0.9,0.7-1.9,1.2-3.1,1.5
		c-1.2,0.3-2.4,0.5-3.6,0.4c-1.3,0-2.5-0.2-3.7-0.6c-1.2-0.4-2.4-0.9-3.4-1.6c-0.9-0.6-1.8-1.5-2.4-2.4c-0.5-0.8-0.9-1.7-1-2.7
		c-0.1-0.9,0.1-1.8,0.4-2.6c0.4-0.9,1.1-1.7,1.9-2.3c0.9-0.7,1.9-1.2,3-1.5c1.2-0.3,2.4-0.5,3.6-0.4c1.3,0,2.5,0.2,3.7,0.6
		C266.5,197.7,267.6,198.3,268.6,199z M299.3,175.5c0.9,0.6,1.7,1.4,2.4,2.3c0.5,0.8,0.9,1.6,1.1,2.6c0.1,0.9,0,1.7-0.3,2.5
		c-0.4,0.9-1,1.6-1.8,2.2c-0.9,0.7-1.9,1.1-2.9,1.4c-1.1,0.3-2.3,0.4-3.5,0.4c-1.2,0-2.5-0.2-3.7-0.6c-1.2-0.4-2.3-0.9-3.4-1.6
		c-0.9-0.6-1.7-1.4-2.4-2.3c-0.5-0.8-0.9-1.7-1-2.6c-0.1-0.9,0-1.7,0.4-2.5c0.4-0.9,1-1.6,1.8-2.2c0.9-0.6,1.9-1.1,2.9-1.4
		c1.1-0.3,2.3-0.4,3.5-0.4c1.2,0,2.4,0.2,3.6,0.6C297.2,174.3,298.3,174.9,299.3,175.5L299.3,175.5z M330.2,162.4
		c-0.8,0.6-1.8,1.1-2.8,1.4c-1.1,0.3-2.3,0.4-3.4,0.4c-1.2,0-2.4-0.2-3.6-0.6c-1.2-0.3-2.3-0.9-3.3-1.5c-0.9-0.6-1.7-1.4-2.4-2.2
		c-0.5-0.7-0.9-1.6-1.1-2.5c-0.1-0.8,0-1.7,0.3-2.4c0.4-0.8,1-1.6,1.7-2.1c0.8-0.6,1.8-1.1,2.8-1.3c1.1-0.3,2.2-0.4,3.4-0.4
		c1.2,0,2.4,0.2,3.5,0.6c1.2,0.3,2.3,0.9,3.3,1.5c0.9,0.6,1.7,1.3,2.4,2.2c0.5,0.7,0.9,1.6,1.1,2.5c0.1,0.8,0.1,1.7-0.3,2.4
		C331.5,161.1,331,161.8,330.2,162.4L330.2,162.4z"/>
	<g id="icon-number" transform="translate(50.51 -50.584)">
		<path id="Path_41701" class="st3" d="M9.2,52.1c1.7,5,2.5,10.3,2.4,15.6c0,6.2-0.8,12.3-2.3,18.3c-1.5,6-3.7,11.7-6.5,17.2
			c-2.7,5.2-6,10.1-9.9,14.5c-3.6,4.1-7.7,7.6-12.4,10.3c-3.8,2.4-8.1,3.8-12.5,4.1c-3.6,0.2-7.1-0.9-9.9-3.1
			c-3.1-2.5-5.3-5.9-6.6-9.6c-1.7-5-2.6-10.3-2.4-15.6c0-6.2,0.8-12.3,2.3-18.3c1.5-5.9,3.7-11.7,6.5-17.1c2.7-5.2,6-10.1,9.9-14.6
			c3.6-4.1,7.8-7.7,12.5-10.4c3.7-2.4,8-3.7,12.4-4c3.6-0.2,7.1,0.9,10,3.1C5.7,45,8,48.3,9.2,52.1z M-5.8,88
			c0.7-3.6,1.1-7.2,1.1-10.8c0-3.2-0.3-6.5-1.1-9.6c-0.5-2.3-1.6-4.4-3.1-6.2c-1.2-1.4-2.9-2.3-4.7-2.4c-2.1-0.1-4.2,0.5-6,1.6
			c-2.4,1.4-4.4,3.2-6.1,5.4c-1.9,2.4-3.5,5.1-4.7,7.9c-1.4,3.1-2.4,6.4-3.1,9.8c-0.7,3.6-1.1,7.2-1.1,10.9c0,3.2,0.3,6.4,1.1,9.6
			c0.5,2.3,1.6,4.4,3.1,6.1c1.2,1.4,2.9,2.3,4.7,2.5c2.2,0,4.3-0.6,6.1-1.8c2.3-1.4,4.3-3.1,6-5.2c1.9-2.4,3.5-5.1,4.7-7.9
			C-7.5,94.6-6.5,91.3-5.8,88"/>
		<path id="Path_41702" class="st3" d="M51.3,5.3c3.5-2.1,7.3-3.7,11.3-4.7c2.9-0.7,5.9-0.8,8.8-0.1c2.4,0.7,4.5,2.3,5.7,4.5
			c1.5,2.7,2.2,5.8,2,8.9c0,2.9-0.4,5.8-1.1,8.6c-0.7,3-1.8,5.9-3.1,8.6c-1.4,2.8-3,5.5-4.9,8c-1.8,2.4-3.9,4.5-6.3,6.4
			c5-1.9,9.1-1.4,12.2,1.2c3.1,2.7,4.7,7.3,4.7,13.8c0,4.5-0.8,8.9-2.2,13.1c-1.5,4.5-3.6,8.7-6.3,12.6c-2.8,4.2-6.2,8-9.9,11.4
			c-4,3.7-8.4,6.9-13.1,9.6c-5,3.1-10.5,5.2-16.3,6c-4.2,0.6-8.5-0.5-11.9-3.1l9.2-18.6c2.1,1.8,4.8,2.8,7.5,2.8
			c2.9,0,6.6-1.3,10.9-3.8c4.4-2.4,8.3-5.8,11.2-9.8c2.6-3.7,3.9-8.1,3.9-12.6c0-4.8-1.5-7.7-4.5-8.5c-3-0.9-7.5,0.4-13.6,3.9
			l-3.4,2l0-13.9l3.8-2.2c4.6-2.6,8.6-6.2,11.6-10.5c2.6-3.6,4-7.8,4.1-12.2c0-3.8-1.2-6-3.4-6.5s-5.2,0.2-8.9,2.3
			c-3.8,2.3-7.2,5.2-10,8.7c-3,3.7-5.4,7.9-7.2,12.4l-10.2-7.2c1.3-3,2.9-5.9,4.8-8.6c2.1-3,4.4-5.8,6.9-8.4
			c2.6-2.8,5.4-5.4,8.3-7.7C45,9.3,48,7.2,51.3,5.3z"/>
	</g>
</g>
</svg>
