<?xml version="1.0" encoding="utf-8"?>
<!-- Generator: Adobe Illustrator 26.5.0, SVG Export Plug-In . SVG Version: 6.00 Build 0)  -->
<svg version="1.1" id="Layer_1" xmlns="http://www.w3.org/2000/svg" xmlns:xlink="http://www.w3.org/1999/xlink" x="0px" y="0px"
	 viewBox="0 0 512 512" style="enable-background:new 0 0 512 512;" xml:space="preserve">
<style type="text/css">
	.st0{opacity:0.7;}
	.st1{fill:#FF445B;}
	.st2{fill:#FFF5F5;}
</style>
<g id="create-card" transform="translate(-0.439 55.367)">
	<g id="shadow_00000059311054769726034130000013662997408258502307_" class="st0">
		
			<image style="overflow:visible;" width="398" height="261" xlink:href="B83653AF.png"  transform="matrix(1 0 0 1 72.657 160.644)">
		</image>
	</g>
	<g id="icon-base" transform="translate(68.176 0)">
		<path id="Path_41706" class="st1" d="M419.5,209.5l-155.4,90.3c-33.1,19.2-87,19.2-120.3,0l-156.5-90.3
			c-16.8-9.7-25.1-22.4-25.1-35.1l-0.1,18c0,12.7,8.3,25.4,25.1,35.1l156.5,90.3c33.3,19.2,87.2,19.2,120.3,0l155.5-90.3
			c16.4-9.6,24.7-22.1,24.7-34.6l0-18C444.2,187.4,436,199.9,419.5,209.5z"/>
		<path id="Path_41707" class="st2" d="M419.1,139.8c33.3,19.2,33.5,50.4,0.4,69.7l-155.4,90.3c-33.1,19.2-87,19.2-120.3,0
			l-156.5-90.3c-33.3-19.2-33.5-50.5-0.4-69.7l155.4-90.3c33.1-19.2,87-19.2,120.3,0L419.1,139.8z"/>
	</g>
	<g id="document-icon" transform="translate(168.299 46.844)">
		<path id="Path_41743" class="st1" d="M103.5,82.2l-42.6,0.5c-0.3,0-0.6,0-0.9,0.1c-0.3,0-0.5,0.1-0.8,0.2
			c-0.2,0.1-0.5,0.2-0.7,0.3c-0.2,0.1-0.4,0.3-0.6,0.4l-26.7,23.2c-0.7,0.6-1.2,1.3-1.6,2.2c-0.3,0.8-0.4,1.7-0.2,2.5
			c0.2,0.9,0.6,1.8,1.1,2.5c0.6,0.9,1.5,1.6,2.4,2.2l88.8,56.6c1,0.7,2.2,1.2,3.4,1.5c1.2,0.3,2.3,0.5,3.5,0.4
			c1.1,0,2.2-0.2,3.3-0.6c1-0.4,1.9-0.9,2.6-1.6l39.9-40c0.6-0.6,1.1-1.4,1.3-2.2c0.2-0.8,0.2-1.7-0.1-2.5c-0.3-0.9-0.7-1.7-1.3-2.5
			c-0.7-0.8-1.5-1.6-2.5-2.1l-65.1-40.1c-0.3-0.2-0.5-0.3-0.8-0.4c-0.3-0.1-0.5-0.2-0.8-0.3c-0.3-0.1-0.5-0.1-0.8-0.1
			C104.1,82.2,103.8,82.2,103.5,82.2L103.5,82.2z M66.5,88.9l34.2-0.4l-14.2,12.9L66.5,88.9z M167.1,127.9l-40,39.8l-88.6-56.3
			l21.4-18.8l21.5,13.4c1,0.6,2.1,1.1,3.2,1.4c1.1,0.3,2.3,0.4,3.4,0.4c1.1,0,2.2-0.2,3.2-0.5c0.9-0.3,1.8-0.8,2.6-1.5L108.9,92
			L167.1,127.9z"/>
		<path id="Path_41744" class="st1" d="M109.7,148.3l30.4-29.3l7.3,4.5L117.2,153L109.7,148.3z"/>
		<path id="Path_41745" class="st1" d="M87.5,134.2l30.8-28.7l7.2,4.5l-30.7,28.9L87.5,134.2z"/>
	</g>
	<g id="icon-number" transform="translate(50.439 -55.367)">
		<path id="Path_41708" class="st1" d="M10.1,60c1.7,5,2.5,10.3,2.4,15.5c0,6.2-0.8,12.3-2.3,18.3c-1.5,5.9-3.7,11.7-6.5,17.2
			c-2.7,5.2-6,10.1-9.9,14.5c-3.6,4.1-7.8,7.6-12.4,10.3c-3.8,2.4-8,3.8-12.5,4.1c-3.6,0.2-7.1-0.9-9.9-3.1
			c-3.1-2.5-5.3-5.8-6.6-9.6c-1.7-5-2.5-10.3-2.4-15.5c0-6.2,0.8-12.3,2.3-18.3c1.5-5.9,3.7-11.7,6.5-17.1c2.7-5.2,6-10.1,9.8-14.5
			c3.5-4.1,7.8-7.6,12.5-10.4c3.7-2.4,8-3.7,12.4-4c3.6-0.2,7.1,0.9,9.9,3.1C6.5,53,8.8,56.3,10.1,60z M-4.9,95.8
			c0.7-3.6,1.1-7.2,1.1-10.8c0.1-3.2-0.3-6.5-1.1-9.6c-0.5-2.3-1.6-4.4-3.1-6.2c-1.2-1.4-2.9-2.2-4.7-2.4c-2.1-0.1-4.2,0.5-6,1.6
			c-2.3,1.4-4.4,3.2-6.1,5.3c-1.9,2.4-3.5,5.1-4.7,7.9c-1.4,3.1-2.4,6.4-3.1,9.8c-0.7,3.6-1.1,7.2-1.1,10.8c0,3.2,0.3,6.4,1.1,9.6
			c0.6,2.3,1.6,4.3,3.1,6.1c1.2,1.4,2.9,2.3,4.7,2.4c2.2,0,4.3-0.6,6.1-1.7c2.3-1.4,4.3-3.1,6-5.2c1.9-2.4,3.5-5.1,4.7-7.9
			C-6.6,102.4-5.6,99.1-4.9,95.8"/>
		<path id="Path_41709" class="st1" d="M76.3,0l0,17L45.7,34.7l-3.4,24.1c1.2-2,2.6-3.8,4.3-5.4c2.1-2,4.4-3.7,7-5.1
			c3.4-2.1,7.3-3.5,11.2-4.2c3.1-0.5,6.2-0.1,9,1.3c2.6,1.5,4.7,3.8,5.9,6.6c1.5,3.7,2.3,7.7,2.1,11.7c0,5.1-0.8,10.2-2.3,15
			c-1.6,5-3.8,9.8-6.6,14.3c-2.8,4.6-6.2,8.8-10,12.6c-3.8,3.8-8,7-12.6,9.7c-6.3,3.6-11.9,5.3-16.9,5.1c-4.5,0-8.8-2.2-11.3-6
			L31.3,98c2.2,2.3,5.3,3.6,8.5,3.7c3.7,0.1,7.4-0.9,10.6-2.9c4.4-2.6,8.1-6.3,10.7-10.7c2.7-4.3,4.1-9.3,4.1-14.4
			c0-4.8-1.3-8-4-9.4c-2.6-1.4-6-1-10,1.3c-2.8,1.7-5.3,3.8-7.4,6.4c-2.3,2.7-4.1,5.7-5.5,8.9L24.1,89c0-0.3,0.1-1.4,0.5-3.4
			c0.3-2,0.7-4.6,1.2-7.6c0.5-3.1,1-6.6,1.5-10.4c0.5-3.8,1.1-7.7,1.8-11.7c1.4-9.4,3-19.8,4.8-31.4L76.3,0z"/>
	</g>
</g>
</svg>
