<?xml version="1.0" encoding="utf-8"?>
<!-- Generator: Adobe Illustrator 26.5.0, SVG Export Plug-In . SVG Version: 6.00 Build 0)  -->
<svg version="1.1" id="Layer_1" xmlns="http://www.w3.org/2000/svg" xmlns:xlink="http://www.w3.org/1999/xlink" x="0px" y="0px"
	 viewBox="0 0 512 512" style="enable-background:new 0 0 512 512;" xml:space="preserve">
<style type="text/css">
	.st0{opacity:0.5;fill:#FF445B;}
	.st1{fill:#FF445B;}
	.st2{fill:#FFF5F5;}
	.st3{enable-background:new    ;}
</style>
<path id="shadow" class="st0" d="M439.4,320.4c28.3,16.4,28.5,42.9,0.3,59.2l-132.2,76.8c-28.2,16.4-74,16.4-102.3,0L72.1,379.6
	c-28.3-16.4-28.5-42.9-0.3-59.2L204,243.6c28.2-16.4,74-16.4,102.3,0L439.4,320.4z"/>
<g id="icon-base" transform="translate(68.176 0)">
	<path id="Path_41706" class="st1" d="M417.6,283.5l-165,95.9c-35.2,20.4-92.4,20.4-127.8,0l-166.2-95.9
		c-17.8-10.3-26.7-23.8-26.7-37.3l-0.1,19.1c0,13.5,8.8,27,26.7,37.3l166.2,95.9c35.4,20.4,92.6,20.4,127.8,0l165.1-95.9
		c17.4-10.2,26.2-23.5,26.2-36.7v-19.1C443.8,260,435.1,273.3,417.6,283.5z"/>
	<path id="Path_41707" class="st2" d="M417.2,209.4c35.4,20.4,35.6,53.5,0.4,74l-165,95.9c-35.2,20.4-92.4,20.4-127.8,0l-166.2-95.9
		c-35.4-20.4-35.6-53.6-0.4-74l165-95.9c35.2-20.4,92.4-20.4,127.8,0L417.2,209.4z"/>
</g>
<g id="document-icon_00000160886368946412428380000005720099672724557962_">
	<g>
		<g class="st3">
			<g>
				<path class="st1" d="M234.4,264.8c-3.1-1.8-3.1-4.7,0-6.6l42.6-24.6c3.1-1.8,8.2-1.8,11.3,0c3.1,1.8,3.1,4.7,0,6.6l-42.6,24.6
					C242.6,266.6,237.5,266.6,234.4,264.8z"/>
			</g>
			<g>
				<path class="st1" d="M277.4,204.7c2.1,0,4.2,0.4,5.8,1.4l63.4,36.9c4.3,2.5,6.7,5.9,6.7,9.4c0,3.5-2.5,6.9-6.8,9.4l-63.8,36.9
					c-4.3,2.5-10.2,3.9-16.3,3.9c-6.1,0-11.9-1.4-16.2-3.9l-84.6-49.2c-4.3-2.5-6.7-5.9-6.7-9.4c0-3.5,2.5-6.9,6.8-9.4l42.6-24.6
					c1.6-0.9,3.7-1.4,5.8-1.4L277.4,204.7z M335.2,249.5l-57.8-33.6L251.2,231c-1.5,0.9-3.6,1.4-5.7,1.4c-2.1,0-4.2-0.5-5.6-1.4
					l-26.1-15.2l-36.9,21.3c-1.3,0.8-2.1,1.8-2.1,2.9c0,1.1,0.7,2.1,2,2.9l84.6,49.2c1.3,0.8,3.1,1.2,4.9,1.2c1.9,0,3.6-0.4,5-1.2
					l63.8-36.9c1.3-0.8,2.1-1.8,2.1-2.9C337.3,251.2,336.5,250.2,335.2,249.5 M233.1,213.9l12.5,7.2l12.5-7.2L233.1,213.9"/>
			</g>
			<g>
				<path class="st1" d="M224.6,252.5c-3.1,1.8-8.2,1.8-11.3,0c-3.1-1.8-3.1-4.7,0-6.6l5.3-3.1l5.3-3.1c3.1-1.8,8.2-1.8,11.3,0
					c3.1,1.8,3.1,4.7,0,6.6l-5.3,3.1L224.6,252.5z"/>
			</g>
		</g>
		<g>
			<path class="st1" d="M298.1,246c3.1-1.8,8.2-1.8,11.3,0c3.1,1.8,3.1,4.7,0,6.6l-42.6,24.6c-3.1,1.8-8.2,1.8-11.3,0
				c-3.1-1.8-3.1-4.7,0-6.6L298.1,246z"/>
		</g>
	</g>
</g>
<g id="icon-number">
	<path class="st1" d="M69.6,65.3c3.3,5.8,4.9,14.2,4.9,25.2c0,10.9-1.6,21.2-4.8,30.8c-3.2,9.6-7.6,18-13.2,25.3
		c-5.6,7.3-12,13-19.2,17.1c-7.1,4.1-13.5,5.8-19.1,5c-5.6-0.8-10.1-4.1-13.3-10C1.7,152.8,0,144.4,0,133.4
		c0-10.9,1.6-21.2,4.8-30.8c3.2-9.6,7.6-18,13.2-25.3c5.6-7.3,12-13,19.1-17.1c7.2-4.2,13.6-5.8,19.2-5S66.3,59.4,69.6,65.3z
		 M52.1,121.8c1.4-5.6,2.1-12.1,2.1-19.7c0-7.5-0.8-13.2-2.2-17.1c-1.5-3.9-3.5-6.2-6-7c-2.5-0.7-5.5-0.1-8.9,1.8
		c-3.3,1.9-6.2,4.7-8.7,8.3c-2.5,3.7-4.5,8.3-5.9,13.9c-1.4,5.6-2.1,12.1-2.1,19.7c0,7.5,0.8,13.2,2.2,17.1c1.5,3.9,3.5,6.2,6,7
		c2.5,0.7,5.4,0.1,8.8-1.8c3.4-2,6.3-4.8,8.9-8.4C48.7,132,50.7,127.4,52.1,121.8"/>
	<path class="st1" d="M146.4,51.6c2.4,3.3,3.6,7.9,3.6,13.8c0,5.9-1.3,12.1-3.8,18.6c-2.6,6.5-6.5,12.8-11.8,19
		c-5.3,6.2-12.1,11.7-20.4,16.4c-6,3.5-12,6-17.9,7.6c-5.9,1.6-11,1.8-15.2,0.9l7.9-22.3c3.3,0.8,7.2,0.8,11.5-0.1
		c4.3-0.9,8.8-2.6,13.2-5.2c5-2.9,9-6.3,11.9-10.3c2.9-4,4.3-8,4.3-12.1c0-2.6-0.6-4.5-1.8-5.8c-1.2-1.3-3.2-1.7-6.2-1
		c-2.9,0.6-7.1,2.5-12.4,5.6L87.2,89.4l4.3-58.8l53-30.6l0.1,18.5l-36.2,20.9l-1.4,19.8l7.1-4.1c8.6-5,15.5-7.6,20.8-7.9
		C140.1,46.9,144,48.4,146.4,51.6z"/>
</g>
</svg>
