<?xml version="1.0" encoding="utf-8"?>
<!-- Generator: Adobe Illustrator 26.5.0, SVG Export Plug-In . SVG Version: 6.00 Build 0)  -->
<svg version="1.1" id="Layer_1" xmlns="http://www.w3.org/2000/svg" xmlns:xlink="http://www.w3.org/1999/xlink" x="0px" y="0px"
	 viewBox="0 0 512 512" style="enable-background:new 0 0 512 512;" xml:space="preserve">
<style type="text/css">
	.st0{opacity:0.7;}
	.st1{fill:#FF44A0;}
	.st2{fill:#FFF5F9;}
	.st3{fill:#FF44A0;stroke:#FF44A0;stroke-width:3.4903;stroke-linecap:round;}
</style>
<g id="register-gadget" transform="translate(102.377 51.507)">
	<g id="shadow_00000059311054769726034130000013662997408258502307_" class="st0">
		
			<image style="overflow:visible;" width="398" height="261" xlink:href="13369A89.png"  transform="matrix(1 0 0 1 -30.167 164.782)">
		</image>
	</g>
	<g id="icon-base">
		<path id="Path_41706" class="st1" d="M385,218l-154.5,89.8c-32.9,19.1-86.4,19.1-119.6,0L-44.5,218c-16.7-9.6-25-22.3-25-34.9
			l-0.1,17.9c0,12.6,8.3,25.2,25,34.9l155.5,89.8c33.1,19.1,86.7,19.1,119.6,0L385,235.8c16.3-9.5,24.5-21.9,24.6-34.4l0-17.9
			C409.6,196,401.4,208.5,385,218z"/>
		<path id="Path_41707" class="st2" d="M384.7,148.7c33.1,19.1,33.3,50.1,0.4,69.3l-154.5,89.8c-32.9,19.1-86.4,19.1-119.6,0
			L-44.5,218c-33.1-19.1-33.3-50.1-0.4-69.3l154.5-89.8c32.9-19.1,86.4-19.1,119.6,0L384.7,148.7z"/>
	</g>
	<g id="check-icon" transform="translate(73.357 64.758)">
		<path id="Path_41710" class="st3" d="M146.1,117.9c5.3,3.1,7.3,7.3,6.2,11.3c-0.2,0.7-1.5,1.2-2.8,1.1c-0.4,0-0.8-0.2-1.2-0.4
			c-0.6-0.3-0.8-0.8-0.7-1.3c0.9-3.1-0.7-6.4-4.8-8.8L92.9,91c-6.6-3.8-17.1-3.8-23.5,0L21,119.8c-6.4,3.8-6.2,10,0.4,13.8
			l49.9,28.8c7.4,3.8,16.1,3.8,23.5,0l18.8-11.2c1.1-0.6,2.3-0.6,3.4,0c1,0.5,1,1.4,0.1,2l-18.8,11.2c-8.2,4.9-21.7,4.9-30.2,0
			l-49.9-28.8c-8.5-4.9-8.7-12.8-0.5-17.7L66,89c8.2-4.9,21.7-4.9,30.2,0L146.1,117.9z"/>
		<path id="Path_41711" class="st3" d="M152.3,139.1c0.4,0.2,0.7,0.6,0.7,1.1c0,0.8-1.1,1.4-2.4,1.3l-83.5-2.1
			c-0.5,0-1.1-0.1-1.6-0.4c-0.4-0.2-0.7-0.6-0.7-1l-0.5-17.1c0-0.8,1-1.4,2.4-1.4c0.6,0,1.2,0.1,1.7,0.4c0.4,0.2,0.7,0.6,0.7,1
			l0.4,15.7l81.3,2.1C151.3,138.7,151.8,138.8,152.3,139.1z"/>
	</g>
	<path id="icon-number" class="st1" d="M-40.4,41.3c0,2.9-0.2,5.8-0.6,8.7c-0.3,2.7-0.8,5.5-1.5,8.2c-0.6,2.6-1.4,5.1-2.4,7.6
		c-0.9,2.4-2.1,4.8-3.3,7.1c-1.2,2.3-2.7,4.5-4.2,6.5c-1.6,2.1-3.2,4.1-5.1,5.9c-1.9,1.9-3.9,3.7-6,5.3c-2.2,1.7-4.5,3.3-6.9,4.7
		c-2.2,1.3-4.5,2.5-6.9,3.5c-1.9,0.8-4,1.5-6.1,1.9c-1.7,0.4-3.5,0.5-5.3,0.3c-1.6-0.2-3.1-0.6-4.5-1.4c-1.4-0.8-2.6-1.8-3.6-3
		c-1.1-1.4-2-3-2.7-4.6c-0.8-2-1.4-4.1-1.8-6.3c-0.5-2.6-0.7-5.3-0.8-7.9l-0.5-16.3c-0.1-3.1,0-6.1,0.2-9.2c0.3-2.9,0.7-5.8,1.3-8.7
		c0.6-2.8,1.4-5.5,2.4-8.2c1.9-5.2,4.6-10.2,8-14.6c1.7-2.2,3.5-4.3,5.4-6.2c2-2,4.1-3.8,6.4-5.5c2.3-1.7,4.7-3.3,7.3-4.7
		c2.3-1.3,4.7-2.4,7.2-3.4c2-0.8,4.1-1.3,6.3-1.6c1.8-0.2,3.6-0.2,5.3,0.2c1.6,0.3,3.1,1,4.4,1.9c1.4,1,2.5,2.2,3.4,3.5
		c1,1.6,1.9,3.3,2.4,5.1c0.7,2.2,1.2,4.4,1.5,6.6c0.3,2.7,0.5,5.4,0.5,8.2L-40.4,41.3z M-58.1,33.7c0-1.9-0.1-3.6-0.2-5.1
		c-0.1-1.4-0.3-2.8-0.6-4.1c-0.2-1.1-0.5-2.2-1-3.2c-0.3-0.8-0.8-1.5-1.4-2.2c-0.5-0.5-1.1-1-1.8-1.3c-0.7-0.3-1.5-0.4-2.2-0.4
		c-0.9,0-1.8,0.2-2.7,0.5c-1.1,0.4-2.1,0.9-3.1,1.4c-1.1,0.6-2.1,1.3-3.1,2c-0.9,0.7-1.8,1.5-2.6,2.4c-0.8,0.9-1.5,1.8-2.2,2.8
		c-0.7,1-1.2,2.1-1.7,3.2c-0.5,1.2-1,2.4-1.3,3.6c-0.4,1.3-0.7,2.7-1,4.1c-0.3,1.4-0.4,2.9-0.6,4.5c-0.1,1.6-0.2,3.3-0.2,5l0.4,21.6
		c0,1.8,0.1,3.4,0.3,4.9c0.1,1.3,0.3,2.6,0.6,3.9c0.2,1,0.6,2,1,3c0.3,0.8,0.8,1.5,1.4,2.1c0.5,0.5,1.1,0.9,1.8,1.2
		c0.7,0.3,1.5,0.4,2.2,0.3c0.9-0.1,1.8-0.3,2.6-0.6c1.1-0.4,2.1-0.9,3.1-1.5c1.1-0.6,2.1-1.3,3-2.1c0.9-0.7,1.8-1.6,2.6-2.4
		c0.8-0.9,1.5-1.8,2.1-2.8c0.6-1,1.2-2,1.7-3.1c0.5-1.1,0.9-2.3,1.3-3.5c0.4-1.3,0.7-2.6,0.9-4c0.2-1.4,0.4-2.9,0.6-4.4
		c0.1-1.6,0.2-3.2,0.2-4.9L-58.1,33.7z M31.3-41.3L-4.5,54.9l-17.6,10.5l35.4-92.2L-30.4-2.3l0.2-14.8l62-34.4L31.3-41.3z"/>
</g>
</svg>
