<?xml version="1.0" encoding="utf-8"?>
<!-- Generator: Adobe Illustrator 26.5.0, SVG Export Plug-In . SVG Version: 6.00 Build 0)  -->
<svg version="1.1" id="Layer_1" xmlns="http://www.w3.org/2000/svg" xmlns:xlink="http://www.w3.org/1999/xlink" x="0px" y="0px"
	 viewBox="0 0 512 512" style="enable-background:new 0 0 512 512;" xml:space="preserve">
<style type="text/css">
	.st0{opacity:0.7;}
	.st1{fill:#3598C5;}
	.st2{fill:#F5FBFF;}
</style>
<g id="service-request" transform="translate(101.488 42.542)">
	<g id="shadow_00000059311054769726034130000013662997408258502307_" class="st0">
		
			<image style="overflow:visible;" width="398" height="261" xlink:href="4BD7B995.png"  transform="matrix(1 0 0 1 -29.579 173.82)">
		</image>
	</g>
	<g id="icon-base" transform="translate(-0.368 0)">
		<path id="Path_41706" class="st1" d="M384.6,218.9l-165.1,95.9c-35.2,20.4-92.4,20.4-127.8,0l-166.2-95.9
			c-17.8-10.3-26.7-23.8-26.7-37.3l-0.1,19.1c0,13.5,8.9,27,26.7,37.3L91.7,334c35.4,20.4,92.6,20.4,127.8,0L384.6,238
			c17.5-10.2,26.2-23.4,26.3-36.7l0.1-19.1C410.8,195.5,402.1,208.8,384.6,218.9z"/>
		<path id="Path_41707" class="st2" d="M384.2,144.9c35.4,20.4,35.6,53.6,0.4,74l-165.1,95.9c-35.2,20.4-92.4,20.4-127.8,0
			l-166.2-95.9c-35.4-20.4-35.6-53.6-0.4-74L90.3,49c35.2-20.4,92.4-20.4,127.8,0L384.2,144.9z"/>
	</g>
	<g id="clipboard-icon" transform="translate(69.012 58.668)">
		<path id="Path_41737" class="st1" d="M149.4,108.7l-6.3-4l-5,3.8l5.5,3.5l-65.1,49.5l-59-39.9l65.1-46.8l5.2,3.3l5-3.6l-5.2-3.3
			c-0.3-0.2-0.6-0.5-0.9-0.6c-0.4-0.2-0.7-0.3-1.1-0.5c-0.4-0.1-0.8-0.2-1.2-0.3c-0.4-0.1-0.9-0.1-1.3-0.1c-0.4,0-0.9,0-1.3,0.1
			c-0.4,0.1-0.9,0.1-1.3,0.2c-0.4,0.1-0.8,0.3-1.2,0.4c-0.4,0.2-0.7,0.4-1,0.6l-66.7,47.7c-0.6,0.4-1.1,0.9-1.4,1.5
			c-0.3,0.5-0.5,1.1-0.5,1.7c0,0.6,0.1,1.2,0.4,1.7c0.3,0.6,0.8,1.1,1.4,1.4l60.6,41.2c0.7,0.5,1.4,0.8,2.2,1
			c0.8,0.2,1.6,0.3,2.5,0.3c0.8,0,1.7-0.2,2.5-0.4c0.8-0.2,1.5-0.6,2.2-1.1l66.7-51.1c0.5-0.4,1-0.9,1.3-1.5
			c0.3-0.5,0.4-1.1,0.3-1.7c-0.1-0.6-0.3-1.2-0.6-1.6C150.5,109.5,150,109,149.4,108.7z"/>
		<path id="Path_41738" class="st1" d="M134.5,107.4c0.7-0.5,1.3-1.2,1.8-2c0.4-0.7,0.5-1.5,0.5-2.3c-0.1-0.8-0.3-1.6-0.8-2.2
			c-0.5-0.8-1.2-1.4-2-1.9l-4.9-3.1c0.7-0.9,1.3-2,1.6-3.2c0.3-1.1,0.2-2.2,0-3.3c-0.3-1.1-0.8-2.2-1.5-3.1c-0.8-1-1.8-1.9-3-2.6
			c-1.3-0.8-2.6-1.4-4.1-1.8c-1.5-0.4-3-0.7-4.6-0.8c-1.6-0.1-3.2,0-4.7,0.3c-1.5,0.3-3,0.7-4.5,1.3l-4.7-3
			c-0.9-0.5-1.8-0.9-2.9-1.2c-2.1-0.5-4.3-0.4-6.4,0.2c-1,0.3-1.9,0.7-2.8,1.3l-9.3,6.7l42.9,27.3L134.5,107.4z M124.8,107.1
			L92.6,86.7l4.2-3.1c0.1-0.1,0.3-0.1,0.4-0.2c0.3-0.1,0.6-0.1,0.9,0c0.1,0,0.3,0.1,0.4,0.2l9.7,6.1l2.5-1.8
			c0.7-0.5,1.5-0.9,2.4-1.2c0.9-0.3,1.8-0.4,2.7-0.5c0.9,0,1.9,0.1,2.8,0.3c0.9,0.2,1.7,0.5,2.5,1c0.7,0.4,1.3,0.9,1.7,1.6
			c0.4,0.6,0.6,1.2,0.6,1.9c0,0.7-0.1,1.3-0.4,1.9c-0.4,0.7-0.9,1.3-1.5,1.7l-2.5,1.9l9.9,6.3c0.1,0.1,0.2,0.2,0.3,0.3
			c0.1,0.1,0.1,0.2,0.1,0.3c0,0.1,0,0.2-0.1,0.3c-0.1,0.1-0.1,0.2-0.3,0.3L124.8,107.1z"/>
		<path id="Path_41739" class="st1" d="M77.2,94.3l37.6,24.1l-5.1,3.9L72.1,98.1L77.2,94.3z"/>
		<path id="Path_41740" class="st1" d="M66.9,101.8l37.6,24.4l-5.2,3.9l-37.6-24.5L66.9,101.8z"/>
		<path id="Path_41741" class="st1" d="M56.5,109.4l37.6,24.7l-5.3,4l-37.6-24.8L56.5,109.4z"/>
		<path id="Path_41742" class="st1" d="M46,117l37.6,25l-5.3,4l-37.6-25.1L46,117z"/>
	</g>
	<path id="icon-number" class="st1" d="M-39,44.5c0,2.9-0.2,5.8-0.6,8.7c-0.3,2.7-0.8,5.5-1.5,8.2c-0.6,2.6-1.4,5.1-2.4,7.6
		c-0.9,2.4-2.1,4.8-3.3,7.1c-1.2,2.3-2.7,4.5-4.2,6.5c-1.6,2.1-3.2,4.1-5.1,5.9c-1.9,1.9-3.9,3.7-6,5.3c-2.2,1.7-4.5,3.3-6.9,4.7
		c-2.2,1.3-4.5,2.5-6.9,3.5c-1.9,0.8-4,1.5-6.1,1.9c-1.7,0.4-3.5,0.5-5.3,0.3c-1.6-0.2-3.1-0.6-4.5-1.4c-1.4-0.8-2.6-1.8-3.6-3
		c-1.1-1.4-2-2.9-2.7-4.6c-0.8-2-1.4-4.1-1.8-6.2c-0.5-2.6-0.7-5.3-0.8-7.9l-0.5-16.3c-0.1-3.1,0-6.1,0.2-9.2
		c0.3-2.9,0.7-5.8,1.3-8.7c0.6-2.8,1.4-5.5,2.4-8.2c1.9-5.2,4.6-10.2,8-14.6c1.7-2.2,3.5-4.3,5.4-6.2c2-2,4.1-3.8,6.4-5.5
		c2.3-1.7,4.7-3.3,7.3-4.7c2.3-1.3,4.7-2.4,7.2-3.4c2-0.8,4.1-1.3,6.3-1.6c1.8-0.2,3.6-0.2,5.3,0.2c1.6,0.3,3.1,1,4.4,1.9
		c1.4,1,2.5,2.2,3.4,3.5c1,1.6,1.9,3.3,2.4,5.1c0.7,2.2,1.2,4.4,1.5,6.6c0.3,2.7,0.5,5.4,0.5,8.2L-39,44.5z M-56.7,36.8
		c0-1.9-0.1-3.6-0.2-5.1c-0.1-1.4-0.3-2.8-0.6-4.1c-0.2-1.1-0.5-2.2-1-3.2c-0.3-0.8-0.8-1.5-1.4-2.2c-0.5-0.5-1.1-1-1.8-1.3
		c-0.7-0.3-1.5-0.4-2.2-0.4c-0.9,0-1.8,0.2-2.7,0.5c-1.1,0.4-2.1,0.9-3.1,1.4c-1.1,0.6-2.1,1.3-3,2c-0.9,0.7-1.8,1.5-2.6,2.4
		c-0.8,0.9-1.5,1.8-2.2,2.8c-0.7,1-1.2,2.1-1.7,3.2c-0.5,1.2-1,2.4-1.3,3.6c-0.4,1.3-0.7,2.7-1,4.1c-0.3,1.4-0.4,2.9-0.6,4.5
		c-0.1,1.6-0.2,3.3-0.2,5l0.4,21.5c0,1.8,0.1,3.4,0.3,4.9c0.1,1.3,0.3,2.6,0.6,3.9c0.2,1,0.6,2,1,3c0.3,0.8,0.8,1.5,1.4,2.1
		c0.5,0.5,1.1,0.9,1.8,1.2c0.7,0.3,1.5,0.3,2.2,0.3c0.9-0.1,1.8-0.3,2.6-0.6c1.1-0.4,2.1-0.9,3.1-1.5c1.1-0.6,2.1-1.3,3-2.1
		c0.9-0.7,1.8-1.6,2.6-2.4c0.8-0.9,1.5-1.8,2.1-2.8c0.6-1,1.2-2,1.7-3.1c0.5-1.1,0.9-2.3,1.3-3.5c0.4-1.3,0.7-2.6,0.9-4
		c0.2-1.4,0.4-2.9,0.6-4.4c0.1-1.6,0.2-3.2,0.2-4.9L-56.7,36.8z M21.2-42.5l-0.7,15l-1.6,0.9c-1.9,1.1-3.8,2.3-5.5,3.6
		c-1.7,1.2-3.4,2.6-5,4c-1.6,1.4-3.1,2.9-4.5,4.4C2.5-13.1,1.2-11.4,0-9.7c-1.2,1.7-2.3,3.4-3.3,5.2C-4.3-2.8-5.2-1-6,0.8
		c-0.8,1.8-1.4,3.7-1.9,5.5c-0.5,1.9-0.9,3.8-1.2,5.7c1.2-1.8,2.4-3.6,3.8-5.3C-4,5.2-2.6,3.6-1.1,2.2c1.5-1.4,3-2.7,4.6-4
		c1.6-1.2,3.3-2.3,5-3.3c1.7-1,3.4-1.8,5.3-2.5c1.5-0.6,3-0.9,4.6-1.1c1.3-0.2,2.7-0.1,4,0.2c1.2,0.3,2.3,0.8,3.3,1.6
		c1,0.8,1.9,1.7,2.6,2.8C29-2.8,29.6-1.5,30-0.1c0.5,1.6,0.8,3.3,0.9,5c0.2,2,0.2,4,0.1,6c-0.1,1.4-0.2,2.8-0.4,4.2
		c-0.2,1.4-0.5,2.8-0.9,4.2c-0.3,1.4-0.8,2.8-1.3,4.3c-0.5,1.4-1.1,2.9-1.7,4.3c-0.6,1.4-1.3,2.9-2.1,4.3c-0.7,1.4-1.5,2.8-2.4,4.1
		c-0.9,1.3-1.8,2.7-2.7,3.9c-1,1.3-2,2.6-3.1,3.8c-1.1,1.2-2.2,2.4-3.3,3.6c-1.1,1.1-2.3,2.2-3.5,3.2c-1.2,1-2.5,2-3.7,2.9
		c-1.3,0.9-2.6,1.8-3.9,2.6c-2,1.2-4.1,2.3-6.2,3.2C-6.2,60.1-8,60.7-10,61c-1.6,0.3-3.3,0.4-5,0.2c-1.5-0.2-3-0.7-4.4-1.4
		c-1.4-0.7-2.5-1.7-3.5-2.9c-1.1-1.3-1.9-2.7-2.5-4.3c-0.7-1.9-1.2-3.8-1.5-5.7c-0.3-2.4-0.5-4.8-0.4-7.2l0.1-6.2
		c0-2.4,0.2-4.8,0.5-7.1c0.3-2.4,0.6-4.8,1.1-7.2c0.5-2.4,1.1-4.8,1.8-7.2c0.7-2.4,1.5-4.8,2.5-7.2c0.9-2.4,2-4.7,3.1-7
		c1.1-2.3,2.4-4.5,3.7-6.8c1.3-2.2,2.8-4.4,4.3-6.5c1.5-2.1,3.2-4.1,4.9-6.1c1.7-2,3.5-3.9,5.3-5.7c1.8-1.8,3.7-3.5,5.7-5.1
		c2-1.6,4-3.1,6.1-4.6s4.2-2.7,6.4-4L21.2-42.5z M2.8,12c-0.7,0.4-1.4,0.8-2,1.3s-1.3,1-1.9,1.5C-1.8,15.4-2.4,16-3,16.6
		c-0.6,0.6-1.2,1.3-1.8,1.9c-0.6,0.7-1.1,1.4-1.6,2.1c-0.5,0.7-1,1.4-1.4,2.1c-0.4,0.7-0.8,1.4-1.2,2.2c-0.4,0.7-0.7,1.5-1,2.2
		l-0.1,5.2c0,1.3,0,2.6,0.1,3.9c0.1,1.1,0.3,2.1,0.5,3.2c0.2,0.9,0.5,1.7,1,2.5c0.4,0.7,0.8,1.2,1.4,1.7c0.5,0.5,1.1,0.8,1.8,1
		C-4.6,45-3.9,45-3.2,45c0.8-0.1,1.7-0.3,2.4-0.6C0.2,44,1.1,43.6,2,43c0.9-0.5,1.8-1.1,2.6-1.8c0.8-0.7,1.6-1.4,2.3-2.1
		c0.7-0.8,1.4-1.6,2.1-2.5c0.7-0.9,1.3-1.9,1.8-2.9c0.6-1,1.1-2.1,1.5-3.1c0.4-1.1,0.8-2.1,1.1-3.2c0.3-1.1,0.6-2.2,0.7-3.3
		c0.2-1.1,0.3-2.3,0.3-3.4c0.1-1.1,0-2.1-0.1-3.2c-0.1-0.9-0.3-1.8-0.5-2.6c-0.2-0.7-0.5-1.4-0.9-2.1c-0.4-0.6-0.8-1.1-1.4-1.5
		c-0.5-0.4-1.1-0.7-1.7-0.9c-0.7-0.2-1.4-0.2-2.1-0.1c-0.8,0.1-1.6,0.3-2.4,0.6C4.6,11.1,3.7,11.5,2.8,12z"/>
</g>
</svg>
