<?xml version="1.0" encoding="utf-8"?>
<!-- Generator: Adobe Illustrator 26.5.0, SVG Export Plug-In . SVG Version: 6.00 Build 0)  -->
<svg version="1.1" id="Layer_1" xmlns="http://www.w3.org/2000/svg" xmlns:xlink="http://www.w3.org/1999/xlink" x="0px" y="0px"
	 viewBox="0 0 512 512" style="enable-background:new 0 0 512 512;" xml:space="preserve">
<style type="text/css">
	.st0{opacity:0.5;fill:#3598C5;}
	.st1{fill:#3598C5;}
	.st2{fill:#F5FBFF;}
	.st3{enable-background:new    ;}
</style>
<path id="shadow" class="st0" d="M439.6,320.4c28.3,16.4,28.5,42.9,0.3,59.2l-132.2,76.8c-28.2,16.4-74,16.4-102.3,0L72.4,379.6
	C44,363.2,43.9,336.7,72,320.4l132.2-76.8c28.2-16.4,74-16.4,102.3,0L439.6,320.4z"/>
<g id="icon-base" transform="translate(-0.368 0)">
	<path id="Path_41706" class="st1" d="M486,283.4l-165,95.8c-35.2,20.4-92.3,20.4-127.7,0L27.2,283.4C9.4,273.1,0.5,259.6,0.5,246.1
		l-0.1,19.1c0,13.5,8.9,27,26.7,37.3l166.2,95.9c35.4,20.4,92.5,20.4,127.7,0l165-95.9c17.5-10.2,26.2-23.4,26.3-36.7l0.1-19.1
		C512.2,260,503.5,273.3,486,283.4z"/>
	<path id="Path_41707" class="st2" d="M485.6,209.4c35.4,20.4,35.6,53.6,0.4,74l-165,95.8c-35.2,20.4-92.3,20.4-127.7,0L27.2,283.4
		c-35.4-20.4-35.6-53.6-0.4-74l165.1-95.8c35.2-20.4,92.3-20.4,127.7,0L485.6,209.4z"/>
</g>
<g id="icon-number_00000076580118766611666150000010926452026336051867_">
	<path class="st1" d="M69.6,65.1c3.3,5.8,4.9,14.2,4.9,25.2c0,10.9-1.6,21.2-4.8,30.8c-3.2,9.6-7.6,18-13.2,25.3
		c-5.6,7.3-12,13-19.2,17.1c-7.1,4.1-13.5,5.8-19.1,5c-5.6-0.8-10.1-4.1-13.3-10C1.7,152.6,0,144.2,0,133.2
		c0-10.9,1.6-21.2,4.8-30.8c3.2-9.6,7.6-18,13.2-25.3c5.6-7.3,12-13,19.1-17.1c7.2-4.2,13.6-5.8,19.2-5S66.3,59.2,69.6,65.1z
		 M52.1,121.6c1.4-5.6,2.1-12.1,2.1-19.7c0-7.5-0.8-13.2-2.2-17.1c-1.5-3.9-3.5-6.2-6-7c-2.5-0.7-5.5-0.1-8.9,1.8
		c-3.3,1.9-6.2,4.7-8.7,8.3c-2.5,3.7-4.5,8.3-5.9,13.9c-1.4,5.6-2.1,12.1-2.1,19.7c0,7.5,0.8,13.2,2.2,17.1c1.5,3.9,3.5,6.2,6,7
		c2.5,0.7,5.4,0.1,8.8-1.8c3.4-2,6.3-4.8,8.9-8.4C48.7,131.8,50.7,127.2,52.1,121.6"/>
	<path class="st1" d="M152,47.5c2.7,3.1,4.1,7.8,4.1,14.1c0,6.8-1.4,13.5-4.4,20.2c-2.9,6.7-6.8,12.8-11.8,18.4
		c-4.9,5.5-10.5,10.1-16.7,13.7c-7.9,4.6-14.8,6.7-20.7,6.2c-5.8-0.4-10.4-3.4-13.5-8.9c-3.2-5.5-4.8-13.6-4.8-24.4
		c0-11.5,1.8-22.3,5.6-32.5c3.7-10.2,8.9-19.3,15.6-27.3c6.7-8,14.3-14.6,23-19.6c4.6-2.7,9.1-4.7,13.3-6c4.2-1.3,7.9-1.7,10.9-1.2
		l-7.4,21.3c-2.4-0.5-5-0.3-7.7,0.5c-2.7,0.9-5.6,2.2-8.6,3.9c-7.5,4.3-13.5,10.4-17.9,18.2c-4.1,7.2-6.2,15.6-6.5,25
		c0.4-0.7,0.8-1.4,1.2-2c2.5-4,5.4-7.6,8.9-10.8c3.4-3.3,7.2-6.1,11.4-8.5c5.6-3.3,10.7-4.9,15.2-4.9
		C145.7,42.8,149.3,44.4,152,47.5z M134.8,82.9c1.2-3,1.9-6,1.8-8.9c0-4.6-1.4-7.4-4.1-8.6c-2.7-1.2-6.3-0.5-10.8,2.1
		c-3,1.7-5.6,3.9-7.8,6.4c-2.2,2.6-4,5.4-5.3,8.3c-1.3,3-1.9,5.9-1.9,8.9c0,2.9,0.6,5,1.9,6.6c1.2,1.5,3,2.3,5.2,2.3
		c2.2,0,5-0.9,8.2-2.8c2.8-1.6,5.3-3.7,7.5-6.1C131.8,88.6,133.5,85.9,134.8,82.9"/>
</g>
<g id="clipboard-icon_00000003070321787928351960000012951370389661677748_">
	<g>
		<g>
			<path class="st1" d="M227.6,245.5c3.1,1.8,3.2,4.7,0,6.6c-3.1,1.8-8.2,1.8-11.3,0l-10.9-6.3c-3.1-1.8-3.2-4.7,0-6.6
				c3.1-1.8,8.2-1.8,11.3,0L227.6,245.5z"/>
		</g>
		<g class="st3">
			<g>
				<path class="st1" d="M303.7,232.9c3.1,1.8,3.2,4.7,0,6.6s-8.2,1.8-11.3,0l-38.2-22.1c-3.1-1.8-3.2-4.7,0-6.6
					c3.1-1.8,8.2-1.8,11.3,0L303.7,232.9z"/>
			</g>
			<g>
				<path class="st1" d="M282,239.2c3.1,1.8,3.2,4.7,0,6.6c-3.1,1.8-8.2,1.8-11.3,0L238,226.9c-3.1-1.8-3.2-4.7,0-6.6
					c3.1-1.8,8.2-1.8,11.3,0L282,239.2z"/>
			</g>
			<g>
				<path class="st1" d="M260.3,245.5c3.1,1.8,3.2,4.7,0,6.6c-3.1,1.8-8.2,1.8-11.3,0l-27.3-15.8c-3.1-1.8-3.2-4.7,0-6.6
					c3.1-1.8,8.2-1.8,11.3,0L260.3,245.5z"/>
			</g>
		</g>
		<g>
			<path class="st1" d="M343.5,237c-1.1,1.6-2.9,3.2-5.1,4.5l-75.9,44.1c-3.4,2-7.6,3.2-12.1,3.7s-9,0.2-13.3-0.7
				c-2.8-0.7-5.5-1.7-7.8-3l-54.6-31.5c-3.4-2-5.6-4.4-6.5-7c-0.9-2.6-0.5-5.2,1.2-7.7c1.1-1.6,2.8-3.2,5.1-4.5l75.9-44.1
				c3.4-2,7.6-3.2,12.1-3.7c4.4-0.5,9-0.2,13.3,0.7c2.8,0.7,5.5,1.7,7.8,3l5.2,3c1.7-0.9,3.8-1.5,5.9-1.8c2.2-0.3,4.6-0.1,6.7,0.4
				c1.4,0.3,2.8,0.8,3.9,1.5l27.3,15.8c1.7,1,2.8,2.3,3.3,3.5c0.4,1.3,0.2,2.6-0.6,3.9c-0.5,0.8-1.3,1.5-2.4,2.1l5.2,3
				c3.4,2,5.6,4.4,6.5,7C345.6,231.9,345.2,234.5,343.5,237z M251.1,279l75.9-44.1c1.1-0.6,1.7-1.4,2-2.2c0.3-0.8,0.1-1.7-0.4-2.4
				c-0.4-0.5-0.9-1-1.6-1.4l-5.2-3c-1.7,0.9-3.7,1.5-5.9,1.8c-2.2,0.3-4.6,0.1-6.7-0.4c-1.4-0.3-2.8-0.8-3.9-1.5L277.9,210
				c-1.7-1-2.8-2.3-3.3-3.5c-0.4-1.3-0.2-2.6,0.6-3.9c0.5-0.8,1.3-1.5,2.4-2.1l-5.2-3c-1.1-0.6-2.4-1-3.8-1.2
				c-1.4-0.2-2.9-0.1-4.2,0.2c-0.9,0.2-1.7,0.5-2.4,0.9l-75.9,44.1c-1.1,0.6-1.7,1.4-2,2.2c-0.3,0.8-0.1,1.7,0.4,2.4
				c0.4,0.5,0.9,1,1.6,1.4l54.6,31.5c1.1,0.6,2.4,1,3.8,1.2c1.4,0.2,2.9,0.1,4.2-0.2C249.6,279.7,250.4,279.4,251.1,279
				 M297.1,202.2l-5,2.9l21.4,12.4l5-2.9L297.1,202.2"/>
		</g>
	</g>
</g>
</svg>
