<?xml version="1.0" encoding="utf-8"?>
<!-- Generator: Adobe Illustrator 26.5.0, SVG Export Plug-In . SVG Version: 6.00 Build 0)  -->
<svg version="1.1" id="Layer_1" xmlns="http://www.w3.org/2000/svg" xmlns:xlink="http://www.w3.org/1999/xlink" x="0px" y="0px"
	 viewBox="0 0 512 512" style="enable-background:new 0 0 512 512;" xml:space="preserve">
<style type="text/css">
	.st0{opacity:0.7;}
	.st1{fill:#5044FF;}
	.st2{fill:#F6F5FF;}
</style>
<g id="signup" transform="translate(-0.285 52.857)">
	<g id="shadow_00000059311054769726034130000013662997408258502307_" class="st0">
		
			<image style="overflow:visible;" width="398" height="261" xlink:href="1F53A63E.png"  transform="matrix(1 0 0 1 72.2975 163.3145)">
		</image>
	</g>
	<g id="icon-base" transform="translate(68.272 0)">
		<path id="Path_41685" class="st1" d="M419.3,208.6l-155.4,90.3c-33.1,19.2-86.9,19.2-120.3,0l-156.4-90.3
			c-16.8-9.7-25.1-22.4-25.1-35.1l0,18c0,12.7,8.3,25.4,25.1,35.1l156.4,90.3c33.3,19.2,87.2,19.2,120.3,0l155.4-90.3
			c16.4-9.6,24.7-22.1,24.7-34.6l0.1-18C444,186.6,435.7,199.1,419.3,208.6z"/>
		<path id="Path_41686" class="st2" d="M418.9,139c33.3,19.2,33.5,50.4,0.4,69.7l-155.4,90.3c-33.1,19.2-86.9,19.2-120.3,0
			l-156.4-90.3c-33.3-19.2-33.5-50.4-0.4-69.7l155.4-90.3c33.1-19.2,86.9-19.2,120.3,0L418.9,139z"/>
	</g>
	<g id="user-icon" transform="translate(154.322 16.607)">
		<path id="Path_41732" class="st1" d="M129.7,211.5c0.6,0.3,1.2,0.6,1.8,0.9c1.4,0.6,2.9,1,4.5,1.2c4.6,0.7,9.1-1.2,11.9-4.9
			c2.5-3.3,4.3-7.1,5.3-11.1c1.5-5.8,1.6-11.8,0.3-17.6c-1.8-7.9-5.5-15.2-10.8-21.4c-6.1-7.4-15-15-27.8-22.5
			c-10.6-6.4-22.2-11-34.3-13.8c-8.8-1.9-17.8-2.3-26.7-1c-6.6,1-13,3-18.9,6.1c-3.8,1.9-7.3,4.5-10.3,7.6c-1.6,1.6-2.6,3.7-2.9,5.9
			c-0.1,1.6,0.3,3.2,1.1,4.6c0.7,1.1,1.6,2.2,2.6,3c0.5,0.4,0.9,0.8,1.4,1.1L129.7,211.5z M34.1,141.5L34.1,141.5L34.1,141.5z
			 M34.7,141.1L137,202.2l0,0l0,0l0,0l0,0l0.1,0c0.6-0.8,1.2-1.7,1.6-2.7c0.7-1.4,1.2-2.9,1.6-4.5c0.5-2,0.8-4,0.9-6
			c0.1-2.4-0.1-4.8-0.6-7.2c-0.6-2.8-1.5-5.5-2.8-8.1c-1.6-3.3-3.6-6.3-5.9-9.1c-3-3.6-6.3-6.9-9.9-9.8c-4.7-3.8-9.6-7.2-14.8-10.2
			c-5.2-3.1-10.7-5.8-16.4-8.1c-4.6-1.8-9.3-3.3-14.1-4.3c-3.9-0.8-7.9-1.3-11.9-1.4c-3.2-0.1-6.5,0.1-9.7,0.6
			c-2.7,0.4-5.4,1.1-8,1.9c-2.1,0.7-4.2,1.6-6.2,2.7c-1.5,0.8-3,1.7-4.3,2.7c-0.9,0.6-1.7,1.3-2.4,2.1l0,0L34.7,141.1L34.7,141.1
			L34.7,141.1L34.7,141.1z M136.7,202.8L136.7,202.8L136.7,202.8z M129.3,119c2.8,1.6,5.9,2.7,9,3.2c3.2,0.5,6.4,0.6,9.5,0.1
			c3.1-0.5,6.1-1.4,8.9-2.9c2.7-1.4,5.1-3.3,7.1-5.7c1.8-2.2,3.2-4.7,3.9-7.4c0.6-2.5,0.7-5.2,0.1-7.8c-0.6-2.6-1.8-5.1-3.5-7.2
			c-1.9-2.3-4.2-4.3-6.8-5.7c-2.8-1.5-5.8-2.6-8.9-3.1c-3.1-0.5-6.3-0.5-9.4-0.1c-3.1,0.4-6,1.4-8.8,2.8c-2.7,1.4-5.1,3.2-7.1,5.5
			c-1.9,2.1-3.2,4.6-4,7.3c-0.7,2.5-0.8,5.2-0.3,7.7c0.5,2.6,1.7,5.1,3.3,7.3C124.4,115.5,126.7,117.5,129.3,119L129.3,119z
			 M174.2,119.5c-3,3.5-6.6,6.4-10.7,8.6c-4.2,2.2-8.7,3.7-13.4,4.4c-4.8,0.7-9.6,0.7-14.4-0.1c-4.8-0.8-9.4-2.4-13.6-4.8
			c-3.9-2.2-7.4-5.2-10.1-8.8c-2.4-3.2-4.1-7-4.9-10.9c-0.8-3.9-0.6-7.8,0.5-11.6c1.2-4.1,3.2-7.8,6-10.9c3-3.4,6.6-6.2,10.6-8.2
			c4.1-2.1,8.5-3.5,13.1-4.2c4.6-0.7,9.3-0.7,14,0.1c4.7,0.8,9.2,2.3,13.3,4.6c3.9,2.1,7.4,5,10.1,8.5c2.5,3.1,4.3,6.8,5.2,10.7
			c0.9,3.8,0.9,7.8,0,11.6C178.8,112.4,176.9,116.3,174.2,119.5L174.2,119.5z M245.2,161.6c0.1,0.3,0.1,0.7,0.1,1.1
			c0,0.4,0,0.7-0.1,1c-0.1,0.3-0.2,0.7-0.3,1c-0.2,0.3-0.3,0.6-0.6,0.9c-0.2,0.3-0.5,0.6-0.8,0.8c-0.3,0.2-0.6,0.5-0.9,0.7
			c-0.3,0.2-0.7,0.4-1.1,0.5c-0.4,0.1-0.8,0.2-1.2,0.3l-53.2,8.4c-0.8,0.1-1.7,0.1-2.5,0c-0.4-0.1-0.8-0.2-1.2-0.3
			c-0.4-0.1-0.8-0.3-1.1-0.5c-0.3-0.2-0.7-0.4-1-0.7c-0.3-0.3-0.6-0.5-0.8-0.8c-0.2-0.3-0.4-0.6-0.6-0.9c-0.2-0.3-0.3-0.7-0.4-1
			l-5.1-22.4c-0.2-0.7-0.1-1.4,0-2.1c0.2-0.7,0.5-1.3,1-1.9c0.5-0.6,1.1-1.1,1.7-1.4c0.7-0.4,1.5-0.7,2.3-0.8c0.8-0.1,1.7-0.1,2.5,0
			c0.8,0.1,1.5,0.4,2.2,0.8c0.7,0.4,1.2,0.9,1.7,1.4c0.5,0.6,0.8,1.2,1,2l4,17l46.6-7.3c0.4-0.1,0.8-0.1,1.2-0.1
			c0.4,0,0.8,0,1.2,0.1c0.4,0.1,0.8,0.2,1.2,0.3c0.4,0.1,0.8,0.3,1.1,0.5c0.3,0.2,0.7,0.4,1,0.7c0.3,0.2,0.6,0.5,0.8,0.8
			c0.2,0.3,0.4,0.6,0.6,0.9C245,160.9,245.1,161.2,245.2,161.6L245.2,161.6z"/>
	</g>
	<g id="icon-number" transform="translate(50.285 -52.857)">
		<path id="Path_41687" class="st1" d="M10.1,53.6c1.7,5,2.5,10.3,2.4,15.5c0,6.2-0.8,12.3-2.3,18.3c-1.5,5.9-3.7,11.7-6.5,17.1
			c-2.7,5.2-6,10.1-9.9,14.5c-3.6,4.1-7.7,7.5-12.4,10.3c-3.8,2.4-8,3.8-12.5,4.1c-3.6,0.2-7.1-0.9-9.9-3.1c-3-2.5-5.3-5.8-6.6-9.6
			c-1.7-5-2.5-10.2-2.4-15.5c0-6.2,0.8-12.3,2.3-18.3c1.5-5.9,3.7-11.7,6.5-17.1c2.7-5.2,6-10.1,9.8-14.5c3.5-4.1,7.8-7.6,12.5-10.4
			c3.7-2.3,8-3.7,12.4-4c3.6-0.2,7.1,0.9,9.9,3.1C6.5,46.5,8.8,49.9,10.1,53.6z M-4.9,89.4c0.7-3.5,1.1-7.2,1.1-10.8
			c0.1-3.2-0.3-6.5-1.1-9.6c-0.5-2.3-1.6-4.4-3.1-6.2c-1.2-1.4-2.9-2.3-4.7-2.5c-2.1-0.1-4.2,0.5-6,1.6c-2.3,1.4-4.4,3.2-6.1,5.3
			c-1.9,2.4-3.5,5.1-4.7,7.9c-1.4,3.1-2.4,6.4-3.1,9.8c-0.7,3.6-1.1,7.2-1.1,10.9c0,3.2,0.3,6.4,1.1,9.5c0.6,2.3,1.6,4.3,3.1,6.1
			c1.2,1.4,2.9,2.3,4.7,2.4c2.2,0.1,4.3-0.5,6.1-1.7c2.3-1.4,4.3-3.2,6-5.3c1.9-2.4,3.5-5.1,4.7-7.9C-6.6,95.9-5.6,92.7-4.9,89.4"/>
		<path id="Path_41688" class="st1" d="M53.9,5.1c3.4-2.1,7.2-3.7,11-4.7c2.7-0.7,5.5-0.6,8.2,0.2c2.2,0.8,4.1,2.5,5.1,4.6
			c1.3,2.7,1.9,5.6,1.8,8.5c0,3.2-0.5,6.5-1.6,9.5c-1,3.1-2.4,6.1-4,9c-1.6,2.8-3.3,5.5-5.3,8.1c-1.9,2.5-3.7,4.9-5.5,7
			c-1.5,1.8-3.1,3.8-5,6.1c-1.9,2.3-3.7,4.7-5.5,7.2c-1.8,2.5-3.5,4.9-5,7.3c-1.4,2.1-2.5,4.3-3.5,6.5l36.7-21.2l0,16.8l-58.4,33.7
			c0-4,0.2-7.9,0.8-11.8c0.6-3.8,1.6-7.5,3-11.1c1.5-4,3.5-7.8,5.8-11.4c2.8-4.5,6-8.7,9.4-12.8c3.3-4,6.2-7.4,8.8-10.5
			c2.5-3,4.6-5.6,6.3-7.9c1.5-1.9,2.8-4,3.9-6.2c0.8-1.7,1.3-3.5,1.3-5.4c0-2.8-1-4.6-2.9-5.5c-1.9-0.9-4.7-0.2-8.4,1.9
			c-1.9,1.1-3.7,2.4-5.3,4c-1.6,1.6-3.2,3.3-4.5,5.1c-1.4,1.8-2.7,3.7-3.9,5.6c-1.2,1.9-2.2,3.9-3.2,5.8l-10.4-7.8
			c1.3-2.4,2.8-4.7,4.5-6.8c2.1-2.9,4.4-5.6,6.8-8.3c2.7-3,5.6-5.8,8.7-8.4C46.8,9.6,50.2,7.2,53.9,5.1z"/>
	</g>
</g>
</svg>
