<?xml version="1.0" encoding="utf-8"?>
<!-- Generator: Adobe Illustrator 26.5.0, SVG Export Plug-In . SVG Version: 6.00 Build 0)  -->
<svg version="1.1" id="Layer_1" xmlns="http://www.w3.org/2000/svg" xmlns:xlink="http://www.w3.org/1999/xlink" x="0px" y="0px"
	 viewBox="0 0 512 512" style="enable-background:new 0 0 512 512;" xml:space="preserve">
<style type="text/css">
	.st0{opacity:0.5;fill:#5044FF;}
	.st1{fill:#5044FF;}
	.st2{fill:#F6F5FF;}
</style>
<path id="shadow" class="st0" d="M439.6,320.4c28.3,16.4,28.5,42.9,0.3,59.2l-132.2,76.8c-28.2,16.4-74,16.4-102.3,0L72.4,379.6
	C44,363.2,43.9,336.7,72,320.4l132.2-76.8c28.2-16.4,74-16.4,102.3,0L439.6,320.4z"/>
<g id="icon-base" transform="translate(68.272 0)">
	<path id="Path_41685" class="st1" d="M417.4,283.4l-165.1,95.9c-35.2,20.4-92.3,20.4-127.8,0l-166.1-95.9
		c-17.8-10.3-26.7-23.8-26.7-37.3v19.1c0,13.5,8.8,27,26.7,37.3l166.1,95.9c35.4,20.4,92.6,20.4,127.8,0l165.1-95.9
		c17.4-10.2,26.2-23.5,26.2-36.8l0.1-19.1C443.6,260,434.8,273.3,417.4,283.4z"/>
	<path id="Path_41686" class="st2" d="M417,209.5c35.4,20.4,35.6,53.5,0.4,74l-165.1,95.9c-35.2,20.4-92.3,20.4-127.8,0l-166.1-95.9
		c-35.4-20.4-35.6-53.5-0.4-74L123,113.6c35.2-20.4,92.3-20.4,127.8,0L417,209.5z"/>
</g>
<g id="icon-number">
	<path class="st1" d="M69.6,55.3c3.3,5.8,4.9,14.2,4.9,25.2c0,10.9-1.6,21.2-4.8,30.8c-3.2,9.6-7.6,18-13.2,25.3
		c-5.6,7.3-12,13-19.2,17.1c-7.1,4.1-13.5,5.8-19.1,5c-5.6-0.8-10.1-4.1-13.3-10C1.7,142.8,0,134.4,0,123.4
		c0-10.9,1.6-21.2,4.8-30.8c3.2-9.6,7.6-18,13.2-25.3c5.6-7.3,12-13,19.1-17.1c7.2-4.2,13.6-5.8,19.2-5S66.3,49.4,69.6,55.3z
		 M52.1,111.8c1.4-5.6,2.1-12.1,2.1-19.7c0-7.5-0.8-13.2-2.2-17.1c-1.5-3.9-3.5-6.2-6-7c-2.5-0.7-5.5-0.1-8.9,1.8
		c-3.3,1.9-6.2,4.7-8.7,8.3c-2.5,3.7-4.5,8.3-5.9,13.9c-1.4,5.6-2.1,12.1-2.1,19.7c0,7.5,0.8,13.2,2.2,17.1c1.5,3.9,3.5,6.2,6,7
		c2.5,0.7,5.4,0.1,8.8-1.8c3.4-2,6.3-4.8,8.9-8.4C48.7,122,50.7,117.4,52.1,111.8"/>
	<path class="st1" d="M113.4,6.2c6.5-3.7,12.1-5.8,17-6.1c4.8-0.4,8.6,0.9,11.3,3.7c2.7,2.8,4.1,7.3,4.1,13.4c0,3.2-0.3,6.7-1,10.2
		c-0.7,3.6-2.1,7.8-4.2,12.5c-2.1,4.7-5.2,10.5-9.2,17.2l-20,33.3l37.4-21.6l0.1,18.8l-65.7,37.9l0-15l33.4-55.7
		c2.6-4.3,4.6-7.9,5.8-10.8c1.2-2.9,2.1-5.4,2.5-7.5c0.4-2.1,0.7-3.9,0.7-5.4c0-4-1.2-6.4-3.6-7.2c-2.4-0.8-5.8,0.2-10.4,2.8
		c-3.6,2.1-7,4.9-10.1,8.3c-3.1,3.4-5.7,7.4-7.9,12.1L79,44.7c3.3-7.6,7.9-14.8,13.9-21.6C98.8,16.3,105.7,10.7,113.4,6.2z"/>
</g>
<g id="user-icon">
	<g>
		<g>
			<path class="st1" d="M253.9,250.9c7.4,4.3,11.5,10,11.6,16.1c0,6-4.1,11.8-11.4,16.1l-11,6.4c-3.1,1.8-8.2,1.8-11.3,0
				c-3.1-1.8-3.2-4.7,0-6.6l11-6.4c4.3-2.5,6.8-5.9,6.8-9.5c0-3.6-2.5-7-6.9-9.5l-38.8-22.4c-4.4-2.5-10.3-3.9-16.5-3.9
				c-6.2,0-12.1,1.4-16.4,3.9l-11,6.4c-3.1,1.8-8.2,1.8-11.3,0c-3.1-1.8-3.2-4.7,0-6.6l11-6.4c7.3-4.3,17.3-6.7,27.7-6.7
				c10.4,0,20.4,2.4,27.8,6.7L253.9,250.9z"/>
		</g>
		<g>
			<path class="st1" d="M234.4,221.8c-1.5-4.3-0.8-8.8,2.1-12.9c1.9-2.7,4.8-5.3,8.6-7.5c5.7-3.3,12.8-5.4,20.2-6.2
				c7.4-0.8,15.2-0.4,22.3,1.2c4.7,1.1,9.2,2.8,13,5c5.7,3.3,9.4,7.4,10.8,11.7c1.5,4.3,0.8,8.8-2.1,12.9c-1.9,2.7-4.8,5.3-8.6,7.5
				c-5.7,3.3-12.8,5.4-20.2,6.2c-7.4,0.8-15.2,0.4-22.3-1.2c-4.7-1.1-9.2-2.8-13-5C239.5,230.2,235.9,226.1,234.4,221.8z
				 M264.1,204.9c-2.8,0.7-5.4,1.6-7.7,3c-3.4,2-5.5,4.4-6.3,6.9c-0.8,2.6-0.4,5.2,1.3,7.6c1.1,1.6,2.8,3.1,5.1,4.4
				c3.4,2,7.6,3.2,12,3.7c4.4,0.5,9,0.2,13.2-0.7c2.8-0.7,5.4-1.6,7.7-3c3.4-2,5.5-4.4,6.3-6.9c0.8-2.5,0.4-5.2-1.3-7.6
				c-1.1-1.6-2.8-3.1-5.1-4.5c-3.4-2-7.6-3.2-12-3.7C272.9,203.7,268.3,204,264.1,204.9"/>
		</g>
		<g>
			<path class="st1" d="M360.6,271.4c-0.5,2.5-4.4,4.4-8.8,4.1l-64.3-4.2c-1.8-0.1-3.5-0.6-4.8-1.3c-0.3-0.2-0.5-0.3-0.7-0.5
				c-1.3-1-1.9-2.3-1.5-3.6l4.5-15.4c0.7-2.5,4.9-4.2,9.2-3.8c1.7,0.2,3.2,0.6,4.3,1.3c1.8,1,2.7,2.5,2.3,4.1l-3.1,10.6l55.9,3.7
				c1.9,0.1,3.5,0.6,4.8,1.3C360,268.6,360.9,269.9,360.6,271.4z"/>
		</g>
	</g>
</g>
</svg>
