<?xml version="1.0" encoding="utf-8"?>
<!-- Generator: Adobe Illustrator 26.5.0, SVG Export Plug-In . SVG Version: 6.00 Build 0)  -->
<svg version="1.1" id="Layer_1" xmlns="http://www.w3.org/2000/svg" xmlns:xlink="http://www.w3.org/1999/xlink" x="0px" y="0px"
	 viewBox="0 0 512 512" style="enable-background:new 0 0 512 512;" xml:space="preserve">
<style type="text/css">
	.st0{opacity:0.5;fill:#C5357C;}
	.st1{fill:#C5357C;}
	.st2{fill:#FFF3F9;}
</style>
<path id="shadow" class="st0" d="M439.6,320.4c28.3,16.4,28.5,42.9,0.3,59.2l-132.2,76.8c-28.2,16.4-74,16.4-102.3,0L72.4,379.6
	C44,363.2,43.9,336.7,72,320.4l132.2-76.8c28.2-16.4,74-16.4,102.3,0L439.6,320.4z"/>
<g id="icon-base">
	<path id="Path_41693" class="st1" d="M485.8,283.5l-165.1,95.9c-35.2,20.4-92.4,20.4-127.8,0L26.8,283.5
		C8.9,273.2,0.1,259.7,0.1,246.2L0,265.3c0,13.5,8.8,27,26.7,37.3l166.1,95.9c35.4,20.4,92.6,20.4,127.8,0l165.1-95.9
		c17.4-10.2,26.2-23.5,26.2-36.8v-19.1C512,260,503.2,273.3,485.8,283.5z"/>
	<path id="Path_41694" class="st2" d="M485.3,209.4c35.4,20.4,35.6,53.5,0.4,74l-165.1,95.9c-35.2,20.4-92.4,20.4-127.8,0
		L26.8,283.5c-35.4-20.4-35.6-53.5-0.4-74l165.1-95.9c35.2-20.4,92.4-20.4,127.8,0L485.3,209.4z"/>
</g>
<g id="icon-number_00000143580682838308829660000008768032876973182088_">
	<path class="st1" d="M69.6,65.7c3.3,5.8,4.9,14.2,4.9,25.2c0,10.9-1.6,21.2-4.8,30.8c-3.2,9.6-7.6,18-13.2,25.3
		c-5.6,7.3-12,13-19.2,17.1c-7.1,4.1-13.5,5.8-19.1,5c-5.6-0.8-10.1-4.1-13.3-10C1.7,153.2,0,144.8,0,133.9
		c0-10.9,1.6-21.2,4.8-30.8c3.2-9.6,7.6-18,13.2-25.3c5.6-7.3,12-13,19.1-17.1c7.2-4.2,13.6-5.8,19.2-5S66.3,59.8,69.6,65.7z
		 M52.1,122.2c1.4-5.6,2.1-12.1,2.1-19.7c0-7.5-0.8-13.2-2.2-17.1c-1.5-3.9-3.5-6.2-6-7c-2.5-0.7-5.5-0.1-8.9,1.8
		c-3.3,1.9-6.2,4.7-8.7,8.3c-2.5,3.7-4.5,8.3-5.9,13.9c-1.4,5.6-2.1,12.1-2.1,19.7c0,7.5,0.8,13.2,2.2,17.1c1.5,3.9,3.5,6.2,6,7
		c2.5,0.7,5.4,0.1,8.8-1.8c3.4-2,6.3-4.8,8.9-8.4C48.7,132.4,50.7,127.8,52.1,122.2"/>
	<polygon class="st1" points="145.2,0 107.4,82 130.8,68.5 130.7,49.8 149.7,38.9 149.7,57.5 163.9,49.4 164,68.2 149.8,76.4 
		149.9,97.3 130.2,108.7 130.2,87.7 83.4,114.7 83.3,99.2 124.1,12.2 	"/>
</g>
<g id="upload-icon_00000158005888263180061450000013658823445732696247_">
	<g>
		<g>
			<path class="st1" d="M250.3,210c-1.5-0.8-2.4-2-2.4-3.3c0-2.6,3.6-4.6,8-4.6l58.8,0c0.4,0,0.8,0,1.1,0c1.4,0.2,1.5,0.2,1.6,0.2
				c2.1,0.6,2.6,0.9,3,1.1c1.5,0.8,2.4,2,2.4,3.3l0.2,34.1c0,2.6-3.6,4.6-8,4.6c-2.2,0-4.2-0.5-5.7-1.4c-1.5-0.8-2.4-2-2.4-3.3
				l-0.1-22.9l-56.9,33c-3.1,1.8-8.2,1.8-11.3,0c-3.1-1.8-3.2-4.7,0-6.6l56.9-33l-39.6,0C253.8,211.4,251.8,210.8,250.3,210z"/>
		</g>
		<g>
			<path class="st1" d="M303.2,275.1c3.1,1.8,3.2,4.7,0,6.6l-23.5,13.7c-4.6,2.7-10.9,4.2-17.4,4.2c-6.5,0-12.8-1.5-17.5-4.2
				l-82.8-47.8c-4.6-2.7-7.3-6.3-7.3-10.1c0-3.8,2.6-7.4,7.2-10.1l23.5-13.7c3.1-1.8,8.2-1.8,11.3,0s3.2,4.7,0,6.6l-23.5,13.7
				c-1.6,0.9-2.5,2.2-2.5,3.5c0,1.3,0.9,2.6,2.6,3.5l82.8,47.8c1.6,0.9,3.8,1.5,6.1,1.5c2.3,0,4.5-0.5,6.1-1.5l23.5-13.7
				C295,273.3,300.1,273.3,303.2,275.1z"/>
		</g>
	</g>
</g>
</svg>
