<?xml version="1.0" encoding="utf-8"?>
<!-- Generator: Adobe Illustrator 26.5.0, SVG Export Plug-In . SVG Version: 6.00 Build 0)  -->
<svg version="1.1" id="Layer_1" xmlns="http://www.w3.org/2000/svg" xmlns:xlink="http://www.w3.org/1999/xlink" x="0px" y="0px"
	 viewBox="0 0 512 512" style="enable-background:new 0 0 512 512;" xml:space="preserve">
<style type="text/css">
	.st0{opacity:0.7;}
	.st1{fill:#FF44A0;}
	.st2{fill:#FFF5F9;}
</style>
<g id="upload" transform="translate(69.082 53.938)">
	<g id="shadow_00000059311054769726034130000013662997408258502307_" class="st0">
		
			<image style="overflow:visible;" width="398" height="261" xlink:href="DF78D8B1.png"  transform="matrix(1 0 0 1 3.128 162.0685)">
		</image>
	</g>
	<g id="icon-base">
		<path id="Path_41693" class="st1" d="M418.2,209.1l-155.4,90.3c-33.1,19.2-87,19.2-120.3,0l-156.4-90.3
			c-16.8-9.7-25.1-22.4-25.1-35.1l-0.1,18c0,12.7,8.3,25.4,25.1,35.1l156.4,90.3c33.3,19.2,87.2,19.2,120.3,0l155.4-90.3
			c16.4-9.6,24.7-22.1,24.7-34.6l0-18C442.9,187,434.6,199.5,418.2,209.1z"/>
		<path id="Path_41694" class="st2" d="M417.8,139.4c33.3,19.2,33.5,50.4,0.4,69.7l-155.4,90.3c-33.1,19.2-87,19.2-120.3,0
			l-156.4-90.3c-33.3-19.2-33.5-50.4-0.4-69.7l155.4-90.3c33.1-19.2,87-19.2,120.3,0L417.8,139.4z"/>
	</g>
	<g id="upload-icon" transform="translate(101.338 40.142)">
		<path id="Path_41733" class="st1" d="M57.5,89.9c0.4,0.3,0.7,0.6,1,1c0.2,0.3,0.4,0.7,0.5,1.1c0.1,0.4,0,0.8-0.1,1.1
			c-0.1,0.4-0.4,0.7-0.7,1l-16.5,15c-0.6,0.6-1.1,1.3-1.4,2c-0.3,0.7-0.3,1.5-0.2,2.3c0.1,0.8,0.4,1.6,0.9,2.3c0.5,0.8,1.2,1.5,2,2
			l74.3,52.8c1.7,1.2,3.7,1.8,5.8,1.8c1,0,1.9-0.2,2.8-0.5c0.9-0.3,1.6-0.8,2.3-1.5l15.8-16.1c0.3-0.3,0.7-0.6,1.1-0.7
			c0.4-0.2,0.9-0.2,1.4-0.3c0.5,0,1,0.1,1.5,0.2c0.5,0.2,1,0.4,1.4,0.7c0.4,0.3,0.8,0.6,1,1c0.3,0.4,0.4,0.8,0.5,1.2
			c0.1,0.4,0.1,0.8,0,1.2c-0.1,0.4-0.3,0.8-0.6,1.1l-15.7,16.2c-1.3,1.3-2.8,2.3-4.5,2.9c-1.8,0.7-3.7,1-5.6,1.1
			c-4.2,0.1-8.3-1.2-11.7-3.6l-74.4-53c-1.6-1.1-2.9-2.5-4-4.1c-0.9-1.4-1.5-3-1.8-4.6c-0.2-1.6-0.1-3.1,0.5-4.6
			c0.6-1.6,1.5-2.9,2.8-4l16.5-15c0.3-0.3,0.7-0.5,1.1-0.7c0.4-0.1,0.9-0.2,1.4-0.2c0.5,0,1,0.1,1.4,0.2
			C56.6,89.4,57.1,89.6,57.5,89.9L57.5,89.9z M98.8,95.5c0.1,0.4,0.3,0.8,0.5,1.2c0.3,0.4,0.6,0.7,1,0.9c0.4,0.3,0.8,0.5,1.3,0.6
			c0.5,0.2,1,0.2,1.5,0.2l24-0.1l3.9,19.4c0,0.3,0.1,0.6,0.3,0.8c0.1,0.3,0.3,0.5,0.5,0.7c0.2,0.2,0.5,0.5,0.7,0.6
			c0.3,0.2,0.6,0.4,0.9,0.5c0.3,0.1,0.6,0.2,1,0.3c0.3,0.1,0.7,0.1,1,0.1c0.3,0,0.6,0,0.9-0.1c0.3-0.1,0.6-0.2,0.9-0.3
			c0.3-0.1,0.5-0.3,0.7-0.5c0.2-0.2,0.3-0.4,0.5-0.6c0.1-0.2,0.2-0.5,0.2-0.7c0-0.3,0-0.5-0.1-0.8l-4.5-22.4c0-0.2-0.1-0.4-0.2-0.6
			c-0.1-0.2-0.2-0.4-0.3-0.6c-0.1-0.2-0.3-0.4-0.4-0.5c-0.2-0.2-0.4-0.3-0.5-0.4c-0.2-0.1-0.4-0.3-0.6-0.4c-0.4-0.2-0.9-0.4-1.4-0.4
			c-0.2,0-0.5-0.1-0.7-0.1L102,92.5c-0.2,0-0.5,0-0.7,0.1c-0.2,0-0.4,0.1-0.7,0.2c-0.2,0.1-0.4,0.2-0.6,0.3
			c-0.2,0.1-0.3,0.2-0.5,0.4c-0.1,0.1-0.3,0.3-0.4,0.5c-0.1,0.2-0.2,0.3-0.2,0.5c-0.1,0.2-0.1,0.4-0.1,0.6
			C98.8,95.1,98.8,95.3,98.8,95.5L98.8,95.5z"/>
		<path id="Path_41734" class="st1" d="M129.5,96c0.4,0.3,0.7,0.6,1,1c0.2,0.3,0.4,0.7,0.5,1.1c0.2,0.8-0.1,1.6-0.7,2.1l-35.9,34.7
			c-0.3,0.3-0.7,0.5-1.1,0.7c-0.4,0.2-0.9,0.2-1.4,0.2c-0.5,0-1-0.1-1.5-0.2c-0.5-0.1-1-0.4-1.4-0.7c-0.4-0.3-0.7-0.6-1-1
			c-0.2-0.4-0.4-0.7-0.5-1.2c-0.1-0.4,0-0.8,0.1-1.2c0.1-0.4,0.4-0.8,0.7-1l36-34.6c0.3-0.3,0.7-0.5,1.1-0.7
			c0.4-0.1,0.9-0.2,1.3-0.2C127.7,95.1,128.7,95.4,129.5,96L129.5,96z"/>
	</g>
	<g id="icon-number" transform="translate(-18.242 -53.938)">
		<path id="Path_41695" class="st1" d="M9.2,57.7c1.7,5,2.5,10.3,2.4,15.5c0,6.2-0.8,12.3-2.3,18.3c-1.5,5.9-3.7,11.7-6.5,17.1
			c-2.7,5.2-6,10.1-9.9,14.5c-3.6,4.1-7.7,7.5-12.4,10.3c-3.8,2.4-8.1,3.8-12.5,4.1c-3.6,0.2-7.1-0.9-9.9-3.1
			c-3-2.5-5.3-5.8-6.6-9.6c-1.7-5-2.5-10.3-2.4-15.5c0-6.2,0.8-12.3,2.3-18.3c1.5-5.9,3.7-11.7,6.5-17.1c2.7-5.2,6-10.1,9.8-14.5
			c3.6-4.1,7.8-7.6,12.5-10.4c3.7-2.4,8-3.7,12.4-4c3.6-0.2,7.1,0.9,9.9,3.1C5.7,50.6,8,54,9.2,57.7z M-5.8,93.5
			c0.7-3.5,1.1-7.2,1.1-10.8c0.1-3.2-0.3-6.5-1.1-9.6c-0.5-2.3-1.6-4.4-3.1-6.2c-1.2-1.4-2.9-2.3-4.7-2.4c-2.1-0.1-4.2,0.5-6,1.6
			c-2.3,1.4-4.4,3.2-6.1,5.3c-1.9,2.4-3.5,5.1-4.7,7.9c-1.4,3.1-2.4,6.4-3.1,9.8c-0.7,3.6-1.1,7.2-1.1,10.9c0,3.2,0.3,6.4,1.1,9.5
			c0.6,2.3,1.6,4.3,3.1,6.1c1.2,1.4,2.9,2.3,4.7,2.4c2.2,0.1,4.3-0.5,6.1-1.7c2.3-1.4,4.3-3.2,6-5.3c1.9-2.4,3.5-5.1,4.7-7.9
			C-7.5,100-6.4,96.8-5.8,93.5"/>
		<path id="Path_41696" class="st1" d="M71.6,59.7l10.7-6.2l0,16.7l-10.7,6.2l0.1,20.7l-16.2,9.3l-0.1-20.7l-35.3,20.4l0-16.6
			L60.4,6.4l11-6.4L71.6,59.7z M57.2,68l-0.1-31.4L36.2,80.1L57.2,68"/>
	</g>
</g>
</svg>
