<svg width="512" height="512" viewBox="0 0 512 512" fill="none" xmlns="http://www.w3.org/2000/svg">
<rect width="512" height="512" rx="150" fill="white"/>
<path d="M256.074 65.1182L87.9358 127.753C87.9307 127.835 87.3963 136.284 87.516 150.109C87.5858 158.18 87.8633 166.445 88.3411 174.673C88.9382 184.957 89.852 195.215 91.0564 205.158C94.122 230.468 99.0681 253.926 105.757 274.878C107.691 280.935 109.798 286.859 112.02 292.488C114.359 298.413 116.89 304.172 119.542 309.607C122.324 315.305 125.317 320.806 128.438 325.953C131.628 331.228 135.093 336.332 138.818 341.244C145.914 350.573 153.35 359.671 160.918 368.288C167.797 376.12 174.942 383.731 182.152 390.908C193.904 402.649 206.361 413.661 219.456 423.884C224.41 427.731 229.385 431.385 234.243 434.744C238.129 437.431 241.95 439.937 245.599 442.189C251.815 446.027 255.418 447.825 255.454 447.842C255.487 447.825 259.083 445.993 265.333 442.079C268.986 439.79 272.809 437.253 276.696 434.537C281.551 431.143 286.522 427.459 291.465 423.589C304.491 413.341 316.888 402.317 328.588 390.577C335.744 383.42 342.824 375.845 349.631 368.063C357.118 359.502 364.459 350.479 371.45 341.244C375.129 336.368 378.558 331.308 381.722 326.083C384.824 320.972 387.817 315.505 390.614 309.833C393.282 304.424 395.842 298.687 398.225 292.78C400.489 287.169 402.653 281.257 404.655 275.21C411.581 254.29 416.923 230.821 420.532 205.453C421.95 195.487 423.101 185.201 423.952 174.88C424.633 166.624 425.125 158.327 425.415 150.219C425.909 136.39 425.637 127.838 425.635 127.753L256.074 65.1182Z" fill="white"/>
<path d="M255.421 463.624C255.381 463.605 251.382 461.677 244.554 457.576C240.532 455.16 236.323 452.471 232.044 449.585C226.695 445.974 221.221 442.042 215.772 437.896C201.384 426.89 187.7 414.993 174.802 402.274C166.896 394.506 159.068 386.26 151.537 377.765C143.253 368.421 135.123 358.543 127.373 348.406C123.306 343.07 119.523 337.524 116.038 331.791C112.63 326.199 109.362 320.223 106.324 314.031C103.428 308.124 100.664 301.866 98.1097 295.429C95.682 289.313 93.3821 282.875 91.271 276.294C83.967 253.528 78.5657 228.04 75.2178 200.539C73.9028 189.736 72.9051 178.591 72.2527 167.415C71.731 158.475 71.4279 149.495 71.3517 140.724C71.2226 125.84 71.8042 116.526 71.8103 116.434L255.421 48.3765L440.584 116.434V116.437C440.596 116.825 440.872 126.114 440.343 140.844C440.027 149.653 439.49 158.668 438.745 167.64C437.816 178.854 436.559 190.031 435.011 200.859C431.069 228.423 425.236 253.924 417.672 276.654C415.486 283.225 413.124 289.648 410.652 295.745C408.049 302.164 405.253 308.398 402.34 314.274C399.285 320.437 396.018 326.379 392.629 331.93C389.173 337.609 385.429 343.108 381.412 348.405C373.777 358.439 365.77 368.234 357.614 377.518C350.199 385.958 342.494 394.165 334.712 401.912C322.009 414.603 308.548 426.512 294.404 437.574C289.044 441.745 283.661 445.709 278.401 449.358C274.193 452.277 270.055 455.002 266.102 457.456C259.38 461.628 255.459 463.604 255.42 463.624H255.421ZM256.074 65.1181L87.9359 127.753C87.9309 127.835 87.3964 136.284 87.5161 150.108C87.5859 158.18 87.8634 166.445 88.3412 174.673C88.9384 184.957 89.8521 195.215 91.0565 205.158C94.1222 230.468 99.0683 253.926 105.758 274.878C107.691 280.935 109.798 286.859 112.02 292.488C114.359 298.413 116.89 304.172 119.543 309.607C122.325 315.305 125.317 320.806 128.438 325.953C131.628 331.228 135.093 336.332 138.818 341.244C145.914 350.573 153.35 359.671 160.918 368.288C167.797 376.12 174.942 383.731 182.152 390.908C193.904 402.649 206.361 413.661 219.456 423.884C224.41 427.731 229.385 431.385 234.243 434.744C238.13 437.431 241.95 439.937 245.599 442.189C251.815 446.027 255.418 447.825 255.454 447.842C255.488 447.825 259.083 445.993 265.333 442.079C268.987 439.79 272.809 437.253 276.696 434.537C281.552 431.143 286.522 427.459 291.465 423.589C304.492 413.341 316.889 402.317 328.588 390.577C335.744 383.42 342.824 375.845 349.631 368.063C357.118 359.502 364.459 350.479 371.45 341.244C375.129 336.368 378.558 331.308 381.722 326.083C384.824 320.972 387.817 315.505 390.614 309.833C393.282 304.424 395.842 298.687 398.225 292.78C400.49 287.169 402.653 281.257 404.655 275.21C411.581 254.29 416.923 230.821 420.532 205.453C421.95 195.487 423.101 185.201 423.952 174.88C424.633 166.624 425.125 158.327 425.415 150.219C425.909 136.39 425.638 127.838 425.635 127.753L256.074 65.1181Z" fill="url(#paint0_linear_519_57)"/>
<path d="M340.028 256.684C340.028 257.68 340 258.663 339.955 259.63C338.153 303.774 302.116 339.238 257.752 340.147C257.166 340.162 256.579 340.177 255.993 340.177C255.406 340.177 254.819 340.162 254.233 340.147C207.248 339.194 169.599 299.449 172.091 251.684C174.378 207.527 211.264 172.384 255.481 172.105C273.493 171.954 291.071 177.632 305.591 188.29C307.638 189.788 309.303 191.747 310.449 194.009C311.596 196.272 312.192 198.773 312.189 201.309V201.324C312.196 203.454 311.776 205.563 310.953 207.527C310.13 209.492 308.921 211.271 307.398 212.76C305.875 214.249 304.069 215.416 302.086 216.194C300.104 216.972 297.985 217.345 295.856 217.289C292.417 217.246 289.075 216.146 286.283 214.137C278.045 208.163 268.216 204.775 258.047 204.402C257.358 204.374 256.683 204.359 255.994 204.359C255.451 204.359 254.923 204.374 254.381 204.387C254.333 204.374 254.283 204.374 254.234 204.387C228.021 205.269 206.703 225.72 204.432 251.538C204.147 254.669 204.147 257.819 204.432 260.949C204.477 261.332 204.505 261.713 204.549 262.094C207.246 286.077 226.642 305.24 250.658 307.645C259.16 308.533 267.749 307.297 275.656 304.047C283.562 300.797 290.538 295.636 295.958 289.025C298.345 286.177 299.658 282.581 299.667 278.865C299.667 270.288 292.777 262.109 282.909 262.109C280.497 262.096 278.112 262.614 275.922 263.628C273.733 264.641 271.794 266.124 270.243 267.972C267.771 270.954 264.425 273.087 260.678 274.068C256.93 275.049 252.969 274.83 249.352 273.441C245.735 272.052 242.645 269.564 240.517 266.326C238.39 263.089 237.331 259.266 237.49 255.395C237.857 245.954 245.598 238.124 255.04 237.64C257.903 237.488 260.763 238.005 263.392 239.15C266.02 240.295 268.346 242.037 270.184 244.238C271.741 246.099 273.688 247.596 275.887 248.622C278.085 249.648 280.483 250.178 282.909 250.176H300.136C304.621 250.176 309.034 248.504 312.069 245.205C313.382 243.787 314.936 242.611 316.658 241.732C319.125 240.485 321.872 239.899 324.633 240.031C333.359 240.425 340.028 247.96 340.028 256.684Z" fill="url(#paint1_linear_519_57)"/>
<path d="M286.283 214.138C278.045 208.164 268.216 204.776 258.046 204.403C271.662 204.779 284.845 209.272 295.856 217.29C292.417 217.247 289.075 216.147 286.283 214.138V214.138Z" fill="url(#paint2_linear_519_57)"/>
<path style="mix-blend-mode:multiply" opacity="0.8" d="M323.903 272.268C323.903 293.126 314.495 311.787 299.421 324.473C287.711 334.27 273.018 339.796 257.754 340.147C257.167 340.161 256.581 340.177 255.994 340.177C255.408 340.177 254.821 340.162 254.235 340.147C217.555 339.223 188.101 309.184 188.101 272.268C188.101 235.352 217.555 205.313 254.235 204.388C224.547 205.386 201.133 231.498 204.549 262.094C207.247 286.077 226.643 305.24 250.658 307.645C259.16 308.533 267.75 307.297 275.656 304.047C283.562 300.797 290.538 295.636 295.958 289.025C298.345 286.177 299.658 282.581 299.667 278.864C299.667 270.288 292.777 262.109 282.909 262.109C280.497 262.096 278.112 262.614 275.923 263.628C273.733 264.641 271.794 266.124 270.243 267.972C267.771 270.955 264.426 273.087 260.678 274.068C256.93 275.05 252.969 274.83 249.352 273.442C245.735 272.053 242.645 269.564 240.517 266.327C238.389 263.089 237.331 259.266 237.491 255.395C237.857 245.954 245.598 238.124 255.04 237.64C257.904 237.487 260.763 238.004 263.392 239.15C266.021 240.295 268.346 242.037 270.185 244.238C271.741 246.099 273.688 247.596 275.887 248.622C278.086 249.648 280.483 250.178 282.909 250.175H300.136C304.621 250.175 309.034 248.504 312.069 245.205C313.383 243.787 314.936 242.611 316.658 241.732C321.436 251.201 323.917 261.662 323.903 272.268Z" fill="url(#paint3_linear_519_57)"/>
<path style="mix-blend-mode:multiply" opacity="0.8" d="M340.028 256.684C340.028 257.68 339.999 258.663 339.955 259.631C338.138 295.507 308.479 324.019 272.15 324.019C236.275 324.019 206.91 296.194 204.432 260.949C204.476 261.332 204.505 261.713 204.549 262.094C207.246 286.078 226.642 305.24 250.658 307.645C259.16 308.533 267.749 307.297 275.656 304.047C283.562 300.798 290.538 295.636 295.958 289.026C298.345 286.177 299.657 282.581 299.667 278.865C299.667 270.288 292.776 262.109 282.909 262.109C280.497 262.096 278.111 262.615 275.922 263.628C273.733 264.641 271.794 266.124 270.243 267.972C267.771 270.955 264.425 273.087 260.677 274.068C256.929 275.049 252.968 274.83 249.352 273.441C245.735 272.052 242.645 269.564 240.517 266.327C238.389 263.089 237.331 259.266 237.49 255.395C237.856 245.954 245.597 238.124 255.04 237.64C257.903 237.487 260.763 238.004 263.392 239.149C266.021 240.294 268.347 242.036 270.186 244.237C271.743 246.098 273.689 247.595 275.888 248.621C278.087 249.647 280.484 250.177 282.911 250.175H300.138C304.622 250.175 309.035 248.503 312.07 245.204C313.384 243.786 314.937 242.61 316.659 241.731C319.126 240.484 321.874 239.897 324.634 240.029C333.358 240.425 340.028 247.96 340.028 256.684Z" fill="url(#paint4_linear_519_57)"/>
<defs>
<linearGradient id="paint0_linear_519_57" x1="163.666" y1="387.634" x2="468.037" y2="152.291" gradientUnits="userSpaceOnUse">
<stop stop-color="#88DEFD"/>
<stop offset="0.284" stop-color="#1C7BAC"/>
<stop offset="0.573" stop-color="#2F4DAC"/>
<stop offset="1" stop-color="#1D46BB"/>
</linearGradient>
<linearGradient id="paint1_linear_519_57" x1="185.922" y1="209.919" x2="316.849" y2="315.287" gradientUnits="userSpaceOnUse">
<stop stop-color="#B8E6FC"/>
<stop offset="0.264" stop-color="#47D9D9"/>
<stop offset="0.657" stop-color="#525AB4"/>
<stop offset="1" stop-color="#08ECFF"/>
</linearGradient>
<linearGradient id="paint2_linear_519_57" x1="283.984" y1="210.576" x2="261.507" y2="218.061" gradientUnits="userSpaceOnUse">
<stop stop-color="#DB25E8" stop-opacity="0"/>
<stop offset="0.134" stop-color="#C525E8" stop-opacity="0.161"/>
<stop offset="0.451" stop-color="#9625E8" stop-opacity="0.518"/>
<stop offset="0.71" stop-color="#7325E8" stop-opacity="0.776"/>
<stop offset="0.9" stop-color="#5E25E8" stop-opacity="0.937"/>
<stop offset="1" stop-color="#5625E8"/>
</linearGradient>
<linearGradient id="paint3_linear_519_57" x1="334.631" y1="285.454" x2="179.957" y2="226.104" gradientUnits="userSpaceOnUse">
<stop stop-color="#8FE68B"/>
<stop offset="0.312" stop-color="#89B6EB"/>
<stop offset="0.451" stop-color="#65B7D5"/>
<stop offset="0.71" stop-color="#4695C7"/>
<stop offset="0.9" stop-color="#325BB7"/>
<stop offset="1" stop-color="#1BB76F"/>
</linearGradient>
<linearGradient id="paint4_linear_519_57" x1="243.619" y1="245.822" x2="290.244" y2="326.885" gradientUnits="userSpaceOnUse">
<stop stop-color="#64AED5" stop-opacity="0.18"/>
<stop offset="0.134" stop-color="#303151" stop-opacity="0.314"/>
<stop offset="0.451" stop-color="#64B7D5" stop-opacity="0.345"/>
<stop offset="0.621" stop-color="#3FC7CC"/>
<stop offset="0.764" stop-color="#2988C3"/>
<stop offset="0.9" stop-color="#1E5DB2"/>
<stop offset="1" stop-color="#2BBABA"/>
</linearGradient>
</defs>
</svg>
